<?xml version="1.0"?>
<svg xmlns="http://www.w3.org/2000/svg" xmlns:xlink="http://www.w3.org/1999/xlink" version="1.1" id="Capa_1" x="0px" y="0px" viewBox="0 0 483.618 483.618" style="enable-background:new 0 0 483.618 483.618;" xml:space="preserve" width="512px" height="512px" class=""><g><g>
	<g>
		<path d="M241.809,0c-42.773,0-142.25,4.219-142.25,43.277c0,0.447,0.081,0.87,0.106,1.317l-0.057,0.008    l33.173,408.241l6.828,4.341c2.487,1.577,42.561,26.434,101.315,26.434c29.938,0,64.72-6.454,101.851-25.719l7.99-4.146    L384.01,44.602l-0.057-0.008c0.024-0.447,0.106-0.87,0.106-1.317C384.059,4.211,284.581,0,241.809,0z M241.809,32.514    c47.625,0,81.131,5.511,98.583,10.762c-17.46,5.251-50.958,10.77-98.583,10.77s-81.123-5.519-98.583-10.77    C160.678,38.017,194.184,32.514,241.809,32.514z M319.827,432.952c-74.474,34.831-135.999,10.559-155.995,0.504L134.674,74.563    c32.88,10.38,80.774,11.998,107.135,11.998s74.263-1.618,107.135-11.998L319.827,432.952z" data-original="#010002" class="active-path" data-old_color="#aa8fc4" fill="#aa8fc4"/>
		<path d="M164.587,161.377l19.931,245.272c0,0,58.079,28.808,114.589,0l19.923-245.272    c0-4.365-7.844-8.324-20.582-11.291c0.041,3.764,0.065,7.527,0.089,11.291c0.024,3.755,0.041,7.511,0.041,11.266    c-0.016,35.05-1.252,70.133-6.503,104.696c-5.267,34.693-13.949,90.048-56.827,95.893c-15.599,2.13-17.273-22.207-1.764-24.321    c37.042-5.048,37.936-97.77,39.253-124.123c0.805-16.103,1.138-32.189,1.252-48.284c0.041-5.04,0.057-10.088,0.049-15.127    c-0.008-5.04-0.008-10.088-0.049-15.127c-9.803-0.975-20.679-1.528-32.173-1.528C199.158,144.713,164.587,152.175,164.587,161.377    z" data-original="#010002" class="active-path" data-old_color="#aa8fc4" fill="#aa8fc4"/>
	</g>
</g></g> </svg>
