<?xml version="1.0"?>
<svg xmlns="http://www.w3.org/2000/svg" xmlns:xlink="http://www.w3.org/1999/xlink" version="1.1" id="Capa_1" x="0px" y="0px" viewBox="0 0 469.068 469.068" style="enable-background:new 0 0 469.068 469.068;" xml:space="preserve" width="512px" height="512px" class=""><g><g>
	<g>
		<path d="M416.752,161.97c0-27.54-18.655-51.527-45.366-58.347c-1.366-0.35-2.756-0.675-4.162-0.927    c-1.341-0.244-2.699-0.471-4.072-0.626l-2.853-0.317l-0.658-2.788C345.838,40.7,294.393,0,234.534,0    c-59.851,0-111.296,40.7-125.107,98.974l-0.658,2.788l-2.853,0.317c-1.374,0.154-2.731,0.382-4.081,0.626    c-1.398,0.252-2.788,0.577-4.162,0.927c-26.702,6.82-45.357,30.807-45.357,58.347c0,23.02,13.111,43.772,33.335,53.876    c-1.049-7.243,0.545-12.884,1.861-16.054c1.756-4.243,6.316-12.079,17.103-16.851c1.309-0.569,2.747-1.089,4.235-1.561    c1.349-0.431,2.829-0.772,4.341-1.105c4.528-0.992,8.787-1.455,13.404-1.455h215.854c4.601,0,8.868,0.463,13.404,1.455    c1.528,0.333,3.008,0.675,4.349,1.105c1.496,0.471,2.926,0.984,4.235,1.553c10.795,4.771,15.363,12.607,17.111,16.851    c1.309,3.17,2.902,8.811,1.861,16.054C403.633,205.75,416.752,184.99,416.752,161.97z M293.263,112.191    c-7.795-26.873-28.588-41.765-55.705-45.544c-8.795-1.227-13.469-12.307-11.356-19.996c2.577-9.364,11.226-12.575,19.996-11.356    c38.115,5.316,67.727,31.425,78.416,68.256C330.475,123.725,299.099,132.284,293.263,112.191z" data-original="#010002" class="active-path" data-old_color="#efbae2" fill="#efbae2"/>
		<polygon points="309.406,341.051 234.534,299.879 159.661,341.051 166.221,357.552 234.534,395.122     302.854,357.552   " data-original="#010002" class="active-path" data-old_color="#efbae2" fill="#efbae2"/>
		<path d="M234.534,469.068c10.405,0,20.801-3.967,28.743-11.9l9.031-22.719l-37.765-20.769l-37.765,20.769    l9.031,22.719C213.733,465.101,224.137,469.068,234.534,469.068z" data-original="#010002" class="active-path" data-old_color="#efbae2" fill="#efbae2"/>
		<polygon points="293.417,381.295 251.401,404.397 278.355,419.215   " data-original="#010002" class="active-path" data-old_color="#efbae2" fill="#efbae2"/>
		<polygon points="190.721,419.215 217.667,404.397 175.65,381.295   " data-original="#010002" class="active-path" data-old_color="#efbae2" fill="#efbae2"/>
		<polygon points="153.614,325.826 217.667,290.597 117.799,235.68   " data-original="#010002" class="active-path" data-old_color="#efbae2" fill="#efbae2"/>
		<polygon points="351.268,235.68 251.401,290.597 315.454,325.826   " data-original="#010002" class="active-path" data-old_color="#efbae2" fill="#efbae2"/>
		<path d="M355.17,201.109c-1.219-0.463-2.577-0.845-4.056-1.146c-1.341-0.276-2.756-0.496-4.308-0.626    c-1.374-0.114-2.812-0.187-4.349-0.187h-38.464H165.067h-38.464c-1.536,0-2.975,0.073-4.349,0.187    c-1.553,0.13-2.967,0.358-4.308,0.626c-1.479,0.301-2.837,0.683-4.056,1.146c-5.088,1.926-7.893,5.178-8.242,9.332l24.394,13.42    l1.756,0.967l13.599,7.478l49.869,27.426l13.437,7.389l25.824,14.201l25.824-14.201l13.437-7.389l49.869-27.426l13.599-7.478    l1.756-0.967l24.402-13.42C363.063,206.287,360.267,203.036,355.17,201.109z" data-original="#010002" class="active-path" data-old_color="#efbae2" fill="#efbae2"/>
	</g>
</g></g> </svg>
