<?xml version="1.0"?>
<svg xmlns="http://www.w3.org/2000/svg" xmlns:xlink="http://www.w3.org/1999/xlink" version="1.1" id="Capa_1" x="0px" y="0px" viewBox="0 0 477.465 477.465" style="enable-background:new 0 0 477.465 477.465;" xml:space="preserve" width="512px" height="512px" class=""><g><g>
	<g>
		<path d="M319.303,27.727c15.989-14.152-7.47-37.44-23.37-23.37c-20.947,18.533-38.261,40.098-51.877,63.761    c-4.389-0.301-8.803-0.512-13.274-0.512c-108.793,0-196.988,91.747-196.988,204.93s88.195,204.93,196.988,204.93    s196.988-91.747,196.988-204.93c0-28.653-5.674-55.933-15.883-80.701c-0.577-1.39-1.195-2.764-1.796-4.137    c-0.618-1.414-1.203-2.837-1.853-4.235c8.316,0.723,17.013,1.162,26.239,1.162c0.008,0,0.008,0,0.016,0    c3.024,0,6.08-0.041,9.177-0.13c-4.032-23.166-25.288-128.196-79.075-128.196c-9.137,0-18.988,3.056-29.287,9.096    c-10.461,6.137-18.769,12.754-25.052,19.639c-1.301-0.602-2.601-1.203-3.918-1.78c-1.333-0.577-2.682-1.105-4.024-1.65    c-7.413-3.008-15.022-5.601-22.841-7.673C290.422,57.128,303.607,41.619,319.303,27.727z M288.748,111.386    c1.333,0.528,2.699,0.984,4.016,1.544c1.366,0.585,2.715,1.195,4.064,1.813c-0.081,3.479,0.154,6.966,1.097,10.461    c5.324,19.606,28.629,40.228,69.369,51.275c1,1.553,1.837,3.219,2.788,4.804c0.919,1.536,1.821,3.081,2.699,4.65    c14.201,25.483,22.484,55.014,22.484,86.602c0,95.072-73.783,172.415-164.474,172.415S66.317,367.607,66.317,272.535    c0-94.275,72.58-171.025,162.238-172.293c-6.926,17.249-12.217,35.246-15.363,53.941c-0.163,0.951-0.171,1.845-0.187,2.739    c-4.942-1.699-9.86-4.016-14.802-6.982c-13.745-8.242-26.198,13.193-12.51,21.403c26.15,15.688,53.234,17.94,80.676,4.129    c14.282-7.186,1.731-28.572-12.51-21.403c-2.56,1.284-5.088,2.325-7.6,3.186c3.617-18.891,9.267-36.847,16.916-53.746    C271.986,105.363,280.489,108.111,288.748,111.386z" data-original="#010002" class="active-path" data-old_color="#f2a9a9" fill="#f2a9a9"/>
	</g>
</g></g> </svg>
