<?xml version="1.0"?>
<svg xmlns="http://www.w3.org/2000/svg" xmlns:xlink="http://www.w3.org/1999/xlink" version="1.1" id="Capa_1" x="0px" y="0px" viewBox="0 0 480.659 480.659" style="enable-background:new 0 0 480.659 480.659;" xml:space="preserve" width="512px" height="512px" class=""><g><g>
	<g>
		<path d="M392.441,317.283c-1.057-0.268-3.016-0.642-5.739-0.642l0,0c-6.739,0-17.745,2.341-31.872,13.493    c-17.655,13.94-36.709,21.012-56.64,21.012c-34.977,0-58.127-22.41-60.647-24.963l-1.114-1.122l-1-1.227    c-0.13-0.163-14.388-16.306-39.798-16.306c-16.631,0-35.091,6.779-54.852,20.151c-26.426,17.875-49.357,26.564-70.093,26.564    c-7.665,0-14.664-1.244-21.069-3.382v58.908h381.425v-81.562c-0.325,0.008-0.658,0.041-0.984,0.041    C414.225,328.256,399.57,321.29,392.441,317.283z" data-original="#010002" class="active-path" data-old_color="#f282b3" fill="#f282b3"/>
		<path d="M456.397,409.81H24.265c-9.575,0-15.062,5.584-12.242,12.477l41.83,45.894    c2.812,6.893,12.868,12.477,22.443,12.477h328.069c9.575,0,19.622-5.584,22.443-12.477l41.83-45.894    C471.451,415.395,465.972,409.81,456.397,409.81z" data-original="#010002" class="active-path" data-old_color="#f282b3" fill="#f282b3"/>
		<path d="M445.886,274.624v-54.876c0-64.159-52.007-108.419-116.165-108.419h-71.637V95.072V83.594h-35.522    v11.478v16.257h-71.637c-64.159,0-116.165,44.26-116.165,108.419v54.876c0,0,0.033,26.076,14.843,39.424    c5.088,4.585,11.892,7.681,21.069,7.681c12.469,0,29.255-5.682,51.877-20.98c28.426-19.232,52.933-25.735,73.076-25.735    c42.033,0,65.029,28.32,65.029,28.32s15.119,15.306,37.522,15.306c10.77,0,23.223-3.536,36.489-14.014    c20.85-16.46,39.123-20.492,52.023-20.492c12.388,0,19.817,3.715,19.817,3.715s12.599,7.901,23.54,7.901    c0.333,0,0.65-0.057,0.984-0.073C439.026,295.303,445.886,290.434,445.886,274.624z" data-original="#010002" class="active-path" data-old_color="#f282b3" fill="#f282b3"/>
		<path d="M240.331,76.132c45.333,4.081,0-76.132,0-76.132S194.998,72.052,240.331,76.132z" data-original="#010002" class="active-path" data-old_color="#f282b3" fill="#f282b3"/>
	</g>
</g></g> </svg>
