<?xml version="1.0"?>
<svg xmlns="http://www.w3.org/2000/svg" xmlns:xlink="http://www.w3.org/1999/xlink" version="1.1" id="Capa_1" x="0px" y="0px" viewBox="0 0 50.019 50.019" style="enable-background:new 0 0 50.019 50.019;" xml:space="preserve" width="512px" height="512px"><g><g>
	<circle cx="29.882" cy="7.873" r="1.134" data-original="#000000" class="active-path" data-old_color="#d6a922" fill="#d6a922"/>
	<circle cx="23.081" cy="7.873" r="1.134" data-original="#000000" class="active-path" data-old_color="#d6a922" fill="#d6a922"/>
	<circle cx="26.482" cy="5.606" r="1.134" data-original="#000000" class="active-path" data-old_color="#d6a922" fill="#d6a922"/>
	<path d="M35.14,30.597h-2.492c-1.05,0-2.039,0.261-2.912,0.714c0.436-2.035-0.13-4.243-1.708-5.821l-1.762-1.762   c-0.391-0.391-1.023-0.391-1.414,0L23.09,25.49c-1.576,1.576-2.143,3.781-1.71,5.813c-0.869-0.448-1.853-0.707-2.896-0.707h-2.491   c-0.553,0-1,0.447-1,1v2.491c0,3.497,2.845,6.342,6.341,6.342h2.492c0.553,0,1-0.447,1-1v-2.491c0-0.272-0.023-0.538-0.056-0.802   l0.083,0.083c0.195,0.195,0.451,0.293,0.707,0.293s0.512-0.098,0.707-0.293l0.1-0.1c-0.035,0.269-0.059,0.541-0.059,0.819v2.491   c0,0.553,0.447,1,1,1h2.491c3.497,0,6.342-2.845,6.342-6.342v-2.491C36.14,31.044,35.693,30.597,35.14,30.597z M22.825,38.43   h-1.492c-2.394,0-4.341-1.947-4.341-4.342v-1.491h1.491c2.395,0,4.342,1.947,4.342,4.342V38.43z M25.559,34.099l-1.055-1.055   c-1.692-1.692-1.692-4.447,0-6.14l1.055-1.055l1.055,1.055c1.692,1.692,1.692,4.447,0,6.14L25.559,34.099z M34.14,34.088   c0,2.395-1.947,4.342-4.342,4.342h-1.491v-1.491c0-2.395,1.947-4.342,4.341-4.342h1.492V34.088z" data-original="#000000" class="active-path" data-old_color="#d6a922" fill="#d6a922"/>
	<path d="M49.294,44.72l-2.812-2.812c-0.002-0.089-0.008-0.18-0.018-0.273L43.76,19.346c1.215-0.308,2.076-1.177,2.076-2.239v-0.199   c0-2.756-2.745-5.215-6.166-5.779C38.563,9.206,33.397,1.071,24.636,0.014L24.516,0l-0.12,0.014   C15.67,1.067,10.51,9.141,9.374,11.106c-3.503,0.507-6.346,2.998-6.346,5.802v0.199c0,1.228,1.146,2.198,2.665,2.339L3.526,41.694   c-0.009,0.08-0.014,0.16-0.016,0.239L0.725,44.72c-0.758,0.759-0.938,1.867-0.459,2.826c0.48,0.957,1.473,1.469,2.536,1.328   l5.2-0.744c0.051,0.017,0.103,0.031,0.156,0.043c5.539,1.23,11.119,1.846,16.704,1.846c5.3,0,10.604-0.555,15.872-1.664   l1.033-0.218c0.036-0.008,0.071-0.017,0.107-0.026l5.342,0.764c1.066,0.159,2.057-0.37,2.535-1.329   C50.232,46.587,50.052,45.479,49.294,44.72z M24.516,2.015c6.492,0.844,10.912,6.318,12.711,8.992H11.802   C13.595,8.333,18.005,2.86,24.516,2.015z M5.028,17.107v-0.199c0-1.804,2.465-3.901,5.643-3.901h27.522   c3.178,0,5.643,2.098,5.643,3.901l0.002,0.183c-0.023,0.067-0.196,0.198-0.469,0.289l-8.371,1.23   c-2.548,0.374-6.709,0.556-10.862,0.548c-4.153-0.008-8.299-0.205-10.819-0.589L5.89,17.436l-0.002,0.02   C5.376,17.408,5.06,17.187,5.028,17.107z M47.964,46.65c-0.055,0.108-0.184,0.278-0.464,0.243l-5.771-0.824l-0.196,0.052   c-0.059,0.016-0.115,0.035-0.176,0.059l-1.034,0.218c-10.539,2.22-21.214,2.159-31.771-0.192c-0.059-0.021-0.117-0.042-0.178-0.06   l-0.206-0.06L2.52,46.894c-0.278,0.036-0.41-0.135-0.465-0.242c-0.054-0.108-0.114-0.318,0.084-0.518l3.372-3.372l-0.002-0.567   c-0.001-0.092-0.005-0.184,0.007-0.292l2.159-22.171l5.342,0.814c0.336,0.051,0.699,0.099,1.084,0.145   c0.009,0.001,0.019,0.002,0.028,0.003c0.377,0.044,0.775,0.084,1.192,0.122c0.008,0.001,0.016,0.001,0.023,0.002   c2.555,0.23,5.796,0.345,9.028,0.345c0.007,0,0.013,0,0.02,0c0.038,0,0.076,0,0.114-0.001c0.474,0,0.946-0.003,1.417-0.008   c0.057,0,0.114-0.002,0.171-0.003c0.458-0.006,0.913-0.013,1.363-0.024c0.067-0.002,0.133-0.004,0.2-0.006   c0.437-0.011,0.87-0.023,1.295-0.039c0.091-0.003,0.178-0.008,0.268-0.011c0.396-0.015,0.79-0.031,1.172-0.051   c0.124-0.006,0.24-0.014,0.361-0.021c0.342-0.019,0.684-0.038,1.012-0.06c0.157-0.01,0.301-0.023,0.454-0.034   c0.28-0.021,0.564-0.041,0.831-0.064c0.21-0.018,0.403-0.04,0.603-0.06c0.193-0.019,0.395-0.037,0.578-0.057   c0.375-0.042,0.729-0.088,1.059-0.136l6.491-0.953l2.697,22.231c0.012,0.099,0.007,0.195,0.006,0.292l-0.002,0.577l3.398,3.398   C48.078,46.332,48.018,46.543,47.964,46.65z" data-original="#000000" class="active-path" data-old_color="#d6a922" fill="#d6a922"/>
</g></g> </svg>
