<?xml version="1.0"?>
<svg xmlns="http://www.w3.org/2000/svg" xmlns:xlink="http://www.w3.org/1999/xlink" version="1.1" id="Capa_1" x="0px" y="0px" viewBox="0 0 498.363 498.363" style="enable-background:new 0 0 498.363 498.363;" xml:space="preserve" width="512px" height="512px" class=""><g><g>
	<g>
		<path d="M308.374,202.87c-66.451,0-125.334,32.132-162.149,81.66c-19.2-46.552-63.5-80.595-116.377-84.261    l-1.926-0.065C12.526,200.204,0,212.852,0,228.393v215.407c0,15.542,12.526,28.19,27.922,28.19l1.935-0.065    c52.876-3.666,97.177-37.708,116.369-84.261c36.814,49.519,95.698,81.66,162.149,81.66c87.415,0,161.848-55.526,189.989-133.219    C470.222,258.396,395.788,202.87,308.374,202.87z M40.643,429.438V242.757c43.114,9.372,75.189,48.015,75.189,93.34    S83.749,420.065,40.643,429.438z M162.36,336.097c26.402-55.933,83.326-92.584,146.014-92.584c6.568,0,13.063,0.496,19.476,1.276    v182.608c-6.413,0.788-12.908,1.276-19.476,1.276C245.686,428.673,188.77,392.03,162.36,336.097z M368.493,416.895V255.299    c37.261,15.038,68.345,43.61,85.895,80.798C436.838,373.285,405.754,401.865,368.493,416.895z" data-original="#010002" class="active-path" data-old_color="#5aa7bc" fill="#5aa7bc"/>
		<circle cx="403.722" cy="320.515" r="21.825" data-original="#010002" class="active-path" data-old_color="#5aa7bc" fill="#5aa7bc"/>
		<path d="M193.127,57.506c16.786-12.193,0.585-40.423-16.412-28.076    c-20.256,14.713-34.457,33.831-29.523,60.054c4.463,23.719,25.751,48.365,3.877,68.475c-15.461,14.225,7.592,37.156,22.988,22.988    c17.322-15.932,22.906-34.66,18.102-57.518C186.957,98.605,166.359,76.958,193.127,57.506z" data-original="#010002" class="active-path" data-old_color="#5aa7bc" fill="#5aa7bc"/>
		<path d="M274.413,57.506c16.785-12.193,0.585-40.423-16.412-28.076    c-20.256,14.713-34.457,33.831-29.523,60.054c4.463,23.719,25.751,48.365,3.877,68.475c-15.461,14.225,7.592,37.156,22.988,22.988    c17.322-15.932,22.906-34.66,18.102-57.518C268.243,98.605,247.645,76.958,274.413,57.506z" data-original="#010002" class="active-path" data-old_color="#5aa7bc" fill="#5aa7bc"/>
		<path d="M355.698,57.506c16.785-12.193,0.585-40.423-16.412-28.076    c-20.256,14.713-34.457,33.831-29.523,60.054c4.463,23.719,25.751,48.365,3.877,68.475c-15.461,14.225,7.592,37.156,22.988,22.988    c17.322-15.932,22.906-34.66,18.102-57.518C349.529,98.605,328.931,76.958,355.698,57.506z" data-original="#010002" class="active-path" data-old_color="#5aa7bc" fill="#5aa7bc"/>
	</g>
</g></g> </svg>
