<?xml version="1.0"?>
<svg xmlns="http://www.w3.org/2000/svg" xmlns:xlink="http://www.w3.org/1999/xlink" version="1.1" id="Capa_1" x="0px" y="0px" viewBox="0 0 480.004 480.004" style="enable-background:new 0 0 480.004 480.004;" xml:space="preserve" width="512px" height="512px" class=""><g><g>
	<g>
		<path d="M437.434,88.262c-11.278-13.732-29.145-20.222-46.606-16.93c-4.571-30.374-32.9-51.291-63.274-46.72    c-0.547,0.082-1.094,0.173-1.638,0.272C308.881-0.745,274.296-7.713,248.667,9.321c-0.387,0.257-0.771,0.52-1.152,0.787    c-23.79-16.667-56.385-12.308-74.96,10.024c-28.623-11.647-61.267,2.115-72.914,30.738c-2.731,6.711-4.132,13.889-4.126,21.134    c0,0.176,0,0.352,0,0.528c-4.033-0.57-8.117-0.691-12.176-0.36c-9.314-12.795-27.237-15.617-40.032-6.304    c-7.402,5.388-11.784,13.988-11.792,23.144c-0.016,5.729,1.708,11.328,4.944,16.056c-6.711,14.838-6.585,31.871,0.344,46.608    c-0.984,0.888-2,1.728-2.944,2.672c-1.752,1.751-2.594,4.215-2.28,6.672l40,312c0.511,3.993,3.91,6.984,7.936,6.984h312    c4.124,0.021,7.588-3.097,8-7.2l32-312c0.104-1.405-0.173-2.811-0.8-4.072C451.478,139.679,454.486,109.024,437.434,88.262z     M335.515,40.003c22.007-0.084,39.916,17.688,40,39.695c0.012,3.213-0.364,6.415-1.12,9.537c-0.702,2.958,0.334,6.058,2.672,8    c9.159,7.592,14.456,18.872,14.448,30.768c-0.02,1.929-0.178,3.854-0.472,5.76c-22.449-4.711-45.824,0.969-63.608,15.456    c-4.265-3.473-8.898-6.467-13.816-8.928c-1.345-3.959-2.055-8.107-2.104-12.288c0.028-2.163,0.237-4.32,0.624-6.448    c0.738-4.356-2.196-8.486-6.552-9.223c-1.307-0.221-2.648-0.114-3.904,0.311c-1.282,0.472-2.634,0.726-4,0.752    c-6.959,0.038-12.631-5.572-12.669-12.531c-0.025-4.632,2.492-8.904,6.557-11.125c2.683-1.497,4.271-4.397,4.088-7.464    l-0.072-1.008c0-0.424-0.072-0.8-0.072-1.264C295.542,57.923,313.435,40.03,335.515,40.003z M230.715,110.947    c0.872-0.08,1.728-0.216,2.616-0.216c13.922,0.019,25.92,9.806,28.736,23.44c-11.226,2.597-21.702,7.746-30.616,15.048    c-1.88-1.544-3.84-2.96-5.84-4.304c3.875-7.733,5.896-16.262,5.904-24.912C231.493,116.968,231.226,113.94,230.715,110.947z     M239.427,163.555c10.945-9.948,25.21-15.452,40-15.432c14.736-0.019,28.953,5.442,39.888,15.32l-4.432,86.232    c-24.144-9.064-49.67-13.9-75.456-14.296V163.555z M259.491,21.451h0.024c16.714-9.796,38.058-6.093,50.496,8.76    c-18.273,9.339-29.974,27.925-30.496,48.44c-12.232,9.987-14.052,27.998-4.066,40.23c4.97,6.088,12.227,9.861,20.066,10.434    c0,1.6,0.36,3.128,0.528,4.688c-5.453-1.232-11.025-1.862-16.616-1.88c-0.504,0-1,0.048-1.496,0.064    c-2.636-14.792-12.414-27.325-26.12-33.48C274.739,79.216,278.133,45.076,259.491,21.451z M151.515,32.003    c6.877,0.009,13.635,1.789,19.624,5.168c3.7,2.093,8.391,0.926,10.68-2.656c11.803-18.642,36.484-24.187,55.127-12.383    c18.642,11.803,24.187,36.484,12.383,55.127c-5.47,8.64-14.045,14.853-23.958,17.36c-14.038-27.558-47.759-38.518-75.318-24.48    c-8.827,4.497-16.304,11.255-21.667,19.584c-4.663-4.969-10.186-9.054-16.304-12.056c-0.322-1.872-0.512-3.765-0.568-5.664    C111.542,49.923,129.435,32.03,151.515,32.003z M51.515,98.171c-2.549-2.364-3.998-5.683-4-9.16    c-0.004-6.99,5.659-12.659,12.648-12.664c5.05-0.003,9.619,2.997,11.624,7.632c1.479,3.393,5.092,5.329,8.736,4.68    c17.039-3.138,34.143,5.144,42.248,20.456c2.09,3.893,6.94,5.353,10.833,3.263c1.824-0.98,3.197-2.628,3.831-4.599    c6.682-21.057,29.169-32.709,50.225-26.027c21.057,6.682,32.709,29.169,26.027,50.225c-0.602,1.896-1.344,3.744-2.221,5.53    c-8.908-3.553-18.41-5.38-28-5.384c-17.501-0.053-34.473,5.992-48,17.096c-24.229-19.794-58.134-22.654-85.336-7.2    c-4.298-11.172-3.27-23.694,2.792-34.016C54.792,104.796,54.209,100.725,51.515,98.171z M223.459,163.515v71.864    c-25.749,0.411-51.236,5.25-75.344,14.304l-4.448-86.32c10.92-9.83,25.099-15.261,39.792-15.24    C198.245,148.091,212.509,153.58,223.459,163.515z M86.555,464.003L47.971,163.035c22.847-20.132,57.183-19.849,79.696,0.656    l4.8,93.288c-22.96,12.552-36.952,29.568-36.952,48.624c0,20.432,16.08,38.52,42.072,51.272l5.504,107.128H86.555z     M159.115,464.003l-5.152-100.256c22.414,7.554,45.855,11.62,69.504,12.056l0.048,88.2H159.115z M111.515,305.603    c0-29.488,54.952-54.4,120-54.4s120,24.928,120,54.4s-54.952,54.4-120,54.4S111.515,335.083,111.515,305.603z M303.883,464.003    h-64.368v-88.2c23.681-0.418,47.156-4.482,69.6-12.048L303.883,464.003z M384.315,464.003h-64.408l5.504-107.128    c26.016-12.752,42.104-30.848,42.104-51.272c0-19.056-14.008-36.072-36.968-48.624l4.8-93.36    c22.614-20.428,56.958-20.635,79.816-0.48L384.315,464.003z M418.779,145.667c-3.893-2.714-8.034-5.052-12.368-6.984    c3.782-18.377-2.062-37.414-15.504-50.504c0-0.176-0.008-0.288,0.016-0.432l0.024,0c17.38-4.802,35.362,5.394,40.164,22.774    C434.742,123.662,429.825,137.676,418.779,145.667z" data-original="#000000" class="active-path" data-old_color="#9dafdd" fill="#9dafdd"/>
	</g>
</g><g>
	<g>
		<path d="M337.247,53.023c-15.256-0.011-27.633,12.348-27.644,27.604c0,0.013,0,0.027,0,0.04h16    c0.009-6.413,5.203-11.611,11.616-11.624c6.419,0.004,11.623,5.205,11.632,11.624h16    C364.862,65.411,352.504,53.034,337.247,53.023z" data-original="#000000" class="active-path" data-old_color="#9dafdd" fill="#9dafdd"/>
	</g>
</g><g>
	<g>
		<path d="M175.925,93.73c-15.254-0.26-27.83,11.896-28.09,27.15c-0.005,0.313-0.005,0.627,0,0.94h16    c0.004-6.419,5.205-11.623,11.624-11.632c6.414,0.018,11.607,5.218,11.616,11.632h16    C203.335,106.565,191.179,93.989,175.925,93.73z" data-original="#000000" class="active-path" data-old_color="#9dafdd" fill="#9dafdd"/>
	</g>
</g><g>
	<g>
		<path d="M213.699,28.051v16c6.418,0,11.623,5.198,11.632,11.616h16C241.309,40.418,228.948,28.065,213.699,28.051z" data-original="#000000" class="active-path" data-old_color="#9dafdd" fill="#9dafdd"/>
	</g>
</g></g> </svg>
