<?xml version="1.0"?>
<svg xmlns="http://www.w3.org/2000/svg" xmlns:xlink="http://www.w3.org/1999/xlink" version="1.1" id="Capa_1" x="0px" y="0px" viewBox="0 0 475 475" style="enable-background:new 0 0 475 475;" xml:space="preserve" width="512px" height="512px" class=""><g><path id="XMLID_971_" d="M443.796,177.161c2.547-7.981,3.872-16.358,3.872-24.802c0-44.87-36.504-81.374-81.373-81.374  c-0.935,0-1.879,0.018-2.831,0.052c-15.157-21.393-40.082-34.449-66.471-34.449s-51.313,13.057-66.471,34.449  c-0.952-0.035-1.897-0.052-2.831-0.052c-19.423,0-37.88,6.957-52.326,19.073V27.164h-10c-39.477,0-72.75,27.053-82.265,63.593  L59.299,66.956l-7.071,7.071c-27.913,27.913-32.312,70.568-13.205,103.133H0v10c0,85.737,45.927,164.338,120.261,206.578v54.097  h234.479v-54.097C429.073,351.499,475,272.898,475,187.161v-10H443.796z M227.691,90.985c2.216,0,4.528,0.132,6.874,0.394  l6.396,0.712l3.298-5.526c11.036-18.49,31.243-29.977,52.734-29.977s41.698,11.487,52.734,29.977l3.298,5.526l6.396-0.712  c2.344-0.261,4.656-0.394,6.873-0.394c33.841,0,61.373,27.532,61.373,61.374c0,8.566-1.794,17.036-5.221,24.802h-69.823  l37.192-37.192l-14.143-14.143l-51.335,51.335h-17.346V92.278h-20v84.882h-17.347l-51.333-51.333l-14.143,14.142l37.191,37.191  h-65.997v-56.885C186.505,102.148,206.324,90.985,227.691,90.985z M155.365,47.932v115.089l-54.863-54.862  C102.375,77.526,125.545,52.556,155.365,47.932z M59.842,95.783l81.377,81.377H63.632C43.299,154.176,42.026,120.138,59.842,95.783z   M140.261,427.836v-30h194.479v30H140.261z M342.188,377.836H132.812C66.093,341.138,23.677,272.767,20.228,197.161h434.545  C451.323,272.767,408.907,341.138,342.188,377.836z" data-original="#000000" class="active-path" data-old_color="#68b79d" fill="#68b79d"/></g> </svg>
