<?xml version="1.0"?>
<svg xmlns="http://www.w3.org/2000/svg" xmlns:xlink="http://www.w3.org/1999/xlink" version="1.1" id="Capa_1" x="0px" y="0px" viewBox="0 0 491.689 491.689" style="enable-background:new 0 0 491.689 491.689;" xml:space="preserve" width="512px" height="512px"><g><g>
	<g>
		<path d="M380.982,234.225l-12.737-15.582c17.046-22.427,26.962-50.113,26.962-80.831    C395.207,59.241,330.992,0,245.845,0S96.482,59.249,96.482,137.82c0,32.409,11.055,61.428,29.873,84.464l-9.551,12.03v257.375    h264.179V234.225z M137.125,241.386l3.325-4.186l15.274-19.248l19.037-23.987v-42.748h145.258v40.537l18.915,23.142l15.639,19.127    l6.088,7.446v229.884H137.125V241.386z M120.868,137.82c0-62.647,51.462-113.434,124.977-113.434S370.822,75.173,370.822,137.82    c0,22.532-6.747,43.472-18.688,61.119l-11.795-14.428v-42.789c7.641-4.975,12.916-14.851,12.916-26.369    c0-16.485-10.697-29.848-23.898-29.848H164.908c-13.201,0-23.898,13.363-23.898,29.848c0,11.77,5.503,21.85,13.42,26.71v44.821    l-12.396,15.623C128.517,184.153,120.868,161.881,120.868,137.82z" data-original="#010002" class="active-path" data-old_color="#8c6662" fill="#8c6662"/>
		<path d="M327.943,254.156c-18.923-10.925-36.749-6.698-59.761,6.852    c-22.695,13.363-40.814,8.364-63.541-1.187c-10.746-4.519-21.191-3.674-31.189-0.333c-6.283,2.097-12.388,5.178-18.273,8.584    c-5.365,3.105-6.828,8.194-5.82,12.851v175.122h197.516V279.964c1.74-4.097,1.39-8.99-2.731-13.079    C338.567,261.35,333.219,257.196,327.943,254.156z M322.489,431.652H173.744V287.077c26.816-10.624,47.902,14.274,77.132,7.673    c26.524-5.991,47.625-32.457,71.613-13.306V431.652z" data-original="#010002" class="active-path" data-old_color="#8c6662" fill="#8c6662"/>
	</g>
</g></g> </svg>
