<svg id="Layer_1" data-name="Layer 1" xmlns="http://www.w3.org/2000/svg" viewBox="0 0 1280 720"><defs><style>.cls-1,.cls-2,.cls-5{font-size:14.71px;}.cls-1,.cls-10{fill:#5ab3ab;}.cls-1,.cls-2,.cls-3,.cls-5,.cls-8{font-family:AGHelvetica, AG_Helvetica;}.cls-2,.cls-3,.cls-8{fill:#fff;}.cls-3{font-size:13.82px;}.cls-4{letter-spacing:-0.07em;}.cls-5{fill:#666;}.cls-11,.cls-12,.cls-6,.cls-7{fill:none;}.cls-12,.cls-6{stroke:#5ab3ab;}.cls-6,.cls-7{stroke-width:2px;}.cls-7{stroke:gray;}.cls-8{font-size:9.28px;}.cls-9{letter-spacing:-0.07em;}</style></defs><title>10</title><text class="cls-1" transform="translate(394.9 359.93)">COOPERATE</text><text class="cls-2" transform="translate(621.66 619.26)">YOU</text><text class="cls-3" transform="translate(609.4 637.11) scale(1.06 1)">CHOOSE</text><text class="cls-2" transform="translate(616.34 80.78)">YOUR </text><text class="cls-2" transform="translate(607.89 98.43)"><tspan class="cls-4">P</tspan><tspan x="8.74" y="0">ARTNER</tspan></text><text class="cls-2" transform="translate(604.08 116.08)">CHOOSES</text><text class="cls-5" transform="translate(800.46 359.93)">DEFECT</text><path class="cls-6" d="M633.77,593.72c0-75.37-80.3-136.46-179.36-136.46"/><path class="cls-7" d="M645.48,593.72c0-75.37,80.3-136.46,179.36-136.46"/><path class="cls-6" d="M634.59,132.05c0,75.36-80.31,136.45-179.36,136.45"/><path class="cls-7" d="M646.3,132.05c0,75.36,80.3,136.45,179.36,136.45"/><text class="cls-8" transform="translate(361.42 186.44)">YOUR </text><text class="cls-8" transform="translate(353 197.57)"><tspan class="cls-9">P</tspan><tspan x="5.51" y="0">ARTNER</tspan></text><text class="cls-8" transform="translate(362.19 208.7)">GETS</text><text class="cls-8" transform="translate(367.86 526.08)">YOU</text><text class="cls-8" transform="translate(368.37 537.22)">GET</text><path class="cls-10" d="M378.84,296.72c10.31,0,18.67-11,18.67-24.48s-8.36-24.48-18.67-24.48-18.68,11-18.68,24.48,8.36,24.48,18.68,24.48"/><ellipse class="cls-11" cx="378.84" cy="272.24" rx="18.68" ry="24.48"/><path class="cls-10" d="M406.19,227.4h-5.58c0,9.85-10.63,17.82-23.73,17.82s-23.73-8-23.73-17.82h-4.86c0,12.67,13,22.94,28.95,22.94s28.95-10.27,28.95-22.94"/><path class="cls-11" d="M406.19,227.4h-5.58c0,9.85-10.63,17.82-23.73,17.82s-23.73-8-23.73-17.82h-4.86c0,12.67,13,22.94,28.95,22.94S406.19,240.07,406.19,227.4Z"/><path class="cls-10" d="M421.48,227.4h-3.6c0,6.31-6.86,11.42-15.31,11.42s-15.31-5.11-15.31-11.42h-3.14c0,8.12,8.37,14.69,18.68,14.69s18.68-6.57,18.68-14.69"/><path class="cls-11" d="M421.48,227.4h-3.6c0,6.31-6.86,11.42-15.31,11.42s-15.31-5.11-15.31-11.42h-3.14c0,8.12,8.37,14.69,18.68,14.69S421.48,235.52,421.48,227.4Z"/><path class="cls-10" d="M372.73,227.4h-3.61c0,6.31-6.85,11.42-15.31,11.42s-15.31-5.11-15.31-11.42h-3.13c0,8.12,8.36,14.69,18.68,14.69s18.68-6.57,18.68-14.69"/><path class="cls-11" d="M372.73,227.4h-3.61c0,6.31-6.85,11.42-15.31,11.42s-15.31-5.11-15.31-11.42h-3.13c0,8.12,8.36,14.69,18.68,14.69S372.73,235.52,372.73,227.4Z"/><path class="cls-10" d="M377.87,509.71c10.32,0,18.68-11,18.68-24.48s-8.36-24.48-18.68-24.48-18.68,11-18.68,24.48,8.37,24.48,18.68,24.48"/><ellipse class="cls-12" cx="377.87" cy="485.23" rx="18.68" ry="24.48"/><path class="cls-10" d="M405.23,440.39h-5.59c0,9.84-10.62,17.82-23.73,17.82s-23.73-8-23.73-17.82h-4.85c0,12.67,13,22.94,28.95,22.94s29-10.27,29-22.94"/><path class="cls-11" d="M405.23,440.39h-5.59c0,9.84-10.62,17.82-23.73,17.82s-23.73-8-23.73-17.82h-4.85c0,12.67,13,22.94,28.95,22.94S405.23,453.06,405.23,440.39Z"/><path class="cls-10" d="M420.52,440.39h-3.61c0,6.3-6.85,11.41-15.31,11.41s-15.31-5.11-15.31-11.41h-3.13c0,8.11,8.36,14.69,18.68,14.69s18.68-6.58,18.68-14.69"/><path class="cls-11" d="M420.52,440.39h-3.61c0,6.3-6.85,11.41-15.31,11.41s-15.31-5.11-15.31-11.41h-3.13c0,8.11,8.36,14.69,18.68,14.69S420.52,448.5,420.52,440.39Z"/><path class="cls-10" d="M371.76,440.39h-3.6c0,6.3-6.85,11.41-15.31,11.41s-15.31-5.11-15.31-11.41h-3.13c0,8.11,8.36,14.69,18.68,14.69s18.67-6.58,18.67-14.69"/><path class="cls-11" d="M371.76,440.39h-3.6c0,6.3-6.85,11.41-15.31,11.41s-15.31-5.11-15.31-11.41h-3.13c0,8.11,8.36,14.69,18.68,14.69S371.76,448.5,371.76,440.39Z"/></svg>