<svg id="Layer_1" data-name="Layer 1" xmlns="http://www.w3.org/2000/svg" xmlns:xlink="http://www.w3.org/1999/xlink" viewBox="0 0 1280 720"><defs><style>.cls-1,.cls-14,.cls-7,.cls-8,.cls-9{fill:none;}.cls-2,.cls-3,.cls-6{font-size:14.71px;}.cls-2{fill:#5ab3ab;}.cls-10,.cls-2,.cls-3,.cls-4,.cls-6{font-family:AGHelvetica, AG_Helvetica;}.cls-10,.cls-16,.cls-3,.cls-4{fill:#fff;}.cls-4{font-size:13.82px;}.cls-5{letter-spacing:-0.07em;}.cls-13,.cls-15,.cls-6{fill:#d7b265;}.cls-7{stroke:#5ab3ab;}.cls-7,.cls-8,.cls-9{stroke-width:2px;}.cls-8{stroke:gray;}.cls-14,.cls-9{stroke:#d7b265;}.cls-10{font-size:9.28px;}.cls-11{letter-spacing:-0.07em;}.cls-12{clip-path:url(#clip-path);}.cls-15,.cls-16{stroke:#fff;}.cls-15{stroke-miterlimit:10;}.cls-16{stroke-linecap:round;stroke-width:5px;}</style><clipPath id="clip-path"><rect class="cls-1" x="876.89" y="215.88" width="49.79" height="105.73"/></clipPath></defs><title>11</title><text class="cls-2" transform="translate(394.5 359.93)">COOPERATE</text><text class="cls-3" transform="translate(621.26 619.26)">YOU</text><text class="cls-4" transform="translate(609 637.11) scale(1.06 1)">CHOOSE</text><text class="cls-3" transform="translate(615.94 80.78)">YOUR </text><text class="cls-3" transform="translate(607.48 98.43)"><tspan class="cls-5">P</tspan><tspan x="8.74" y="0">ARTNER</tspan></text><text class="cls-3" transform="translate(603.67 116.08)">CHOOSES</text><text class="cls-6" transform="translate(800.06 359.93)">DEFECT</text><path class="cls-7" d="M633.37,593.72c0-75.37-80.3-136.46-179.36-136.46"/><path class="cls-8" d="M645.08,593.72c0-75.37,80.3-136.46,179.36-136.46"/><path class="cls-8" d="M634.18,132.05c0,75.36-80.3,136.45-179.35,136.45"/><path class="cls-9" d="M645.9,132.05c0,75.36,80.3,136.45,179.35,136.45"/><text class="cls-10" transform="translate(883.9 186.44)">YOUR </text><text class="cls-10" transform="translate(875.49 197.57)"><tspan class="cls-11">P</tspan><tspan x="5.51" y="0">ARTNER</tspan></text><text class="cls-10" transform="translate(884.67 208.7)">GETS</text><text class="cls-10" transform="translate(367.46 526.08)">YOU</text><text class="cls-10" transform="translate(367.97 537.22)">GET</text><g class="cls-12"><path class="cls-13" d="M896.75,321.23c10.77,0,19.49-14.34,19.49-32s-8.72-32-19.49-32-19.49,14.33-19.49,32,8.73,32,19.49,32"/><ellipse class="cls-14" cx="896.75" cy="289.21" rx="19.49" ry="32.02"/><path class="cls-13" d="M898.12,216.26c5.4.36,4.81,23,3.8,36.88s-6.21,24.87-11.61,24.51-9-11.92-7.94-25.82,10.35-35.93,15.75-35.57"/><path class="cls-14" d="M898.12,216.26c5.4.36,4.81,23,3.8,36.88s-6.21,24.87-11.61,24.51-9-11.92-7.94-25.82S892.72,215.9,898.12,216.26Z"/><path class="cls-13" d="M923.57,216.71c-5-2.18-15.21,18-20.94,30.76s-6.35,24.79-1.4,27,13.6-6.37,19.33-19.08,8-36.47,3-38.65"/><path class="cls-15" d="M923.57,216.71c-5-2.18-15.21,18-20.94,30.76s-6.35,24.79-1.4,27,13.6-6.37,19.33-19.08S928.52,218.89,923.57,216.71Z"/></g><line class="cls-16" x1="347.98" y1="412.61" x2="407.07" y2="501.85"/><line class="cls-16" x1="344.58" y1="501.85" x2="410.69" y2="412.61"/></svg>