<svg id="Layer_1" data-name="Layer 1" xmlns="http://www.w3.org/2000/svg" viewBox="0 0 1280 720"><defs><style>.cls-1,.cls-2,.cls-5{font-size:14.71px;}.cls-1{fill:#606060;}.cls-1,.cls-2,.cls-3,.cls-5,.cls-8{font-family:AGHelvetica, AG_Helvetica;}.cls-2,.cls-3,.cls-8{fill:#fff;}.cls-3{font-size:13.82px;}.cls-4{letter-spacing:-0.07em;}.cls-10,.cls-12,.cls-5{fill:#d7b265;}.cls-11,.cls-13,.cls-6,.cls-7{fill:none;}.cls-6{stroke:gray;}.cls-6,.cls-7{stroke-width:2px;}.cls-11,.cls-7{stroke:#d7b265;}.cls-8{font-size:9.28px;}.cls-9{letter-spacing:-0.07em;}.cls-12{stroke:#fff;stroke-miterlimit:10;}</style></defs><title>12</title><text class="cls-1" transform="translate(427.1 359.93)">COOPERATE</text><text class="cls-2" transform="translate(653.85 619.26)">YOU</text><text class="cls-3" transform="translate(641.6 637.11) scale(1.06 1)">CHOOSE</text><text class="cls-2" transform="translate(648.54 80.78)">YOUR </text><text class="cls-2" transform="translate(640.08 98.43)"><tspan class="cls-4">P</tspan><tspan x="8.74" y="0">ARTNER</tspan></text><text class="cls-2" transform="translate(636.27 116.08)">CHOOSES</text><text class="cls-5" transform="translate(832.66 359.93)">DEFECT</text><path class="cls-6" d="M666,593.72c0-75.37-80.3-136.46-179.35-136.46"/><path class="cls-7" d="M677.68,593.72c0-75.37,80.3-136.46,179.35-136.46"/><path class="cls-6" d="M666.78,132.05c0,75.36-80.3,136.45-179.36,136.45"/><path class="cls-7" d="M678.49,132.05c0,75.36,80.3,136.45,179.36,136.45"/><text class="cls-8" transform="translate(916.5 186.44)">YOUR </text><text class="cls-8" transform="translate(908.08 197.57)"><tspan class="cls-9">P</tspan><tspan x="5.51" y="0">ARTNER</tspan></text><text class="cls-8" transform="translate(917.27 208.7)">GETS</text><text class="cls-8" transform="translate(919.26 526.08)">YOU</text><text class="cls-8" transform="translate(919.77 537.22)">GET</text><path class="cls-10" d="M929.35,321.23c10.76,0,19.49-14.34,19.49-32s-8.73-32-19.49-32-19.49,14.33-19.49,32,8.73,32,19.49,32"/><ellipse class="cls-11" cx="929.35" cy="289.21" rx="19.49" ry="32.02"/><path class="cls-10" d="M930.72,216.26c5.4.36,4.81,23,3.8,36.88s-6.21,24.87-11.61,24.51-9-11.92-7.95-25.82,10.36-35.93,15.76-35.57"/><path class="cls-11" d="M930.72,216.26c5.4.36,4.81,23,3.8,36.88s-6.21,24.87-11.61,24.51-9-11.92-7.95-25.82S925.32,215.9,930.72,216.26Z"/><path class="cls-10" d="M956.17,216.71c-4.95-2.18-15.21,18-20.94,30.76s-6.35,24.79-1.41,27,13.61-6.37,19.33-19.08,8-36.47,3-38.65"/><path class="cls-12" d="M956.17,216.71c-4.95-2.18-15.21,18-20.94,30.76s-6.35,24.79-1.41,27,13.61-6.37,19.33-19.08S961.12,218.89,956.17,216.71Z"/><rect class="cls-13" x="909.48" y="215.88" width="49.79" height="105.73"/><path class="cls-10" d="M929.35,507.18c10.76,0,19.49-14.33,19.49-32s-8.73-32-19.49-32-19.49,14.34-19.49,32,8.73,32,19.49,32"/><ellipse class="cls-11" cx="929.35" cy="475.16" rx="19.49" ry="32.02"/><path class="cls-10" d="M930.72,402.21c5.4.36,4.81,23,3.8,36.89s-6.21,24.87-11.61,24.5-9-11.92-7.95-25.81,10.36-35.94,15.76-35.58"/><path class="cls-11" d="M930.72,402.21c5.4.36,4.81,23,3.8,36.89s-6.21,24.87-11.61,24.5-9-11.92-7.95-25.81S925.32,401.85,930.72,402.21Z"/><path class="cls-10" d="M956.17,402.67c-4.95-2.18-15.21,18-20.94,30.75s-6.35,24.79-1.41,27,13.61-6.36,19.33-19.08,8-36.46,3-38.64"/><path class="cls-12" d="M956.17,402.67c-4.95-2.18-15.21,18-20.94,30.75s-6.35,24.79-1.41,27,13.61-6.36,19.33-19.08S961.12,404.85,956.17,402.67Z"/><rect class="cls-13" x="909.48" y="401.83" width="49.79" height="105.73"/></svg>