<svg id="Layer_1" data-name="Layer 1" xmlns="http://www.w3.org/2000/svg" viewBox="0 0 1280 720"><defs><style>.cls-1,.cls-2,.cls-5{font-size:14.71px;}.cls-1{fill:#5ab3ab;}.cls-1,.cls-2,.cls-3,.cls-5,.cls-9{font-family:AGHelvetica, AG_Helvetica;}.cls-15,.cls-2,.cls-3,.cls-9{fill:#fff;}.cls-3{font-size:13.82px;}.cls-4{letter-spacing:-0.07em;}.cls-11,.cls-13,.cls-5{fill:#d7b265;}.cls-12,.cls-14,.cls-6,.cls-7,.cls-8{fill:none;}.cls-6{stroke:gray;}.cls-6,.cls-7,.cls-8{stroke-width:2px;}.cls-12,.cls-7{stroke:#d7b265;}.cls-8{stroke:#5ab3ab;}.cls-9{font-size:9.28px;}.cls-10{letter-spacing:-0.07em;}.cls-13,.cls-15{stroke:#fff;}.cls-15{stroke-linecap:round;stroke-width:5px;}</style></defs><title>13</title><text class="cls-1" transform="translate(398.03 359.93)">COOPERATE</text><text class="cls-2" transform="translate(624.79 619.26)">YOU</text><text class="cls-3" transform="translate(612.54 637.11) scale(1.06 1)">CHOOSE</text><text class="cls-2" transform="translate(619.47 80.78)">YOUR </text><text class="cls-2" transform="translate(611.02 98.43)"><tspan class="cls-4">P</tspan><tspan x="8.74" y="0">ARTNER</tspan></text><text class="cls-2" transform="translate(607.21 116.08)">CHOOSES</text><text class="cls-5" transform="translate(803.59 359.93)">DEFECT</text><path class="cls-6" d="M636.9,593.72c0-75.37-80.3-136.46-179.36-136.46"/><path class="cls-7" d="M648.61,593.72c0-75.37,80.3-136.46,179.36-136.46"/><path class="cls-8" d="M637.72,132.05c0,75.36-80.3,136.45-179.36,136.45"/><path class="cls-6" d="M649.43,132.05c0,75.36,80.3,136.45,179.36,136.45"/><text class="cls-9" transform="translate(390.32 186.44)">YOUR </text><text class="cls-9" transform="translate(381.91 197.57)"><tspan class="cls-10">P</tspan><tspan x="5.51" y="0">ARTNER</tspan></text><text class="cls-9" transform="translate(391.09 208.7)">GETS</text><text class="cls-9" transform="translate(890.19 526.08)">YOU</text><text class="cls-9" transform="translate(890.7 537.22)">GET</text><path class="cls-11" d="M900.28,507.18c10.77,0,19.49-14.33,19.49-32s-8.72-32-19.49-32-19.48,14.34-19.48,32,8.72,32,19.48,32"/><ellipse class="cls-12" cx="900.28" cy="475.16" rx="19.49" ry="32.02"/><path class="cls-11" d="M901.65,402.21c5.4.36,4.81,23,3.8,36.89s-6.21,24.87-11.61,24.5-9-11.92-7.94-25.81,10.35-35.94,15.75-35.58"/><path class="cls-12" d="M901.65,402.21c5.4.36,4.81,23,3.8,36.89s-6.21,24.87-11.61,24.5-9-11.92-7.94-25.81S896.25,401.85,901.65,402.21Z"/><path class="cls-11" d="M927.11,402.67c-5-2.18-15.22,18-20.94,30.75s-6.36,24.79-1.41,27,13.6-6.36,19.33-19.08,8-36.46,3-38.64"/><path class="cls-13" d="M927.11,402.67c-5-2.18-15.22,18-20.94,30.75s-6.36,24.79-1.41,27,13.6-6.36,19.33-19.08S932.06,404.85,927.11,402.67Z"/><rect class="cls-14" x="880.42" y="401.83" width="49.79" height="105.73"/><line class="cls-15" x1="375.45" y1="224.81" x2="434.53" y2="314.05"/><line class="cls-15" x1="372.05" y1="314.05" x2="438.16" y2="224.81"/></svg>