<svg id="Layer_1" data-name="Layer 1" xmlns="http://www.w3.org/2000/svg" xmlns:xlink="http://www.w3.org/1999/xlink" viewBox="0 0 1280 720"><defs><style>.cls-1,.cls-10,.cls-12,.cls-2,.cls-3,.cls-5{fill:none;}.cls-2,.cls-5{stroke:#5ab3ab;}.cls-10,.cls-2,.cls-3{stroke-width:2px;}.cls-3{stroke:gray;}.cls-4{fill:#5ab3ab;}.cls-6{font-size:36px;font-family:ArialMT, Arial;}.cls-14,.cls-15,.cls-6{fill:#fff;}.cls-7{letter-spacing:-0.04em;}.cls-8{letter-spacing:-0.07em;}.cls-9{letter-spacing:-0.02em;}.cls-10,.cls-12{stroke:#d7b265;}.cls-11,.cls-13{fill:#d7b265;}.cls-13,.cls-14,.cls-15{stroke:#fff;}.cls-13{stroke-miterlimit:10;}.cls-14{stroke-linecap:round;stroke-width:5px;}.cls-15{font-size:61.49px;font-family:MyriadPro-Regular, Myriad Pro;}.cls-16{clip-path:url(#clip-path);}</style><clipPath id="clip-path"><rect class="cls-1" x="1248.82" y="262.95" width="25.27" height="53.66"/></clipPath></defs><title>14</title><path class="cls-2" d="M159.54,456.59c0-39.27-38.59-71.11-86.2-71.11"/><path class="cls-3" d="M165.17,456.59c0-39.27,38.59-71.11,86.2-71.11"/><path class="cls-2" d="M159.93,216c0,39.27-38.59,71.11-86.2,71.11"/><path class="cls-3" d="M165.56,216c0,39.27,38.59,71.11,86.2,71.11"/><path class="cls-4" d="M37,301.83c5,0,9-5.71,9-12.76s-4-12.75-9-12.75-9,5.71-9,12.75,4,12.76,9,12.76"/><ellipse class="cls-1" cx="37.02" cy="289.07" rx="8.98" ry="12.76"/><path class="cls-4" d="M50.17,265.71H47.48c0,5.13-5.1,9.28-11.4,9.28s-11.41-4.15-11.41-9.28H22.34c0,6.6,6.23,12,13.91,12s13.92-5.35,13.92-12"/><path class="cls-1" d="M50.17,265.71H47.48c0,5.13-5.1,9.28-11.4,9.28s-11.41-4.15-11.41-9.28H22.34c0,6.6,6.23,12,13.91,12S50.17,272.31,50.17,265.71Z"/><path class="cls-4" d="M57.51,265.71H55.78c0,3.28-3.29,6-7.36,6s-7.35-2.67-7.35-6H39.56c0,4.23,4,7.65,9,7.65s9-3.42,9-7.65"/><path class="cls-1" d="M57.51,265.71H55.78c0,3.28-3.29,6-7.36,6s-7.35-2.67-7.35-6H39.56c0,4.23,4,7.65,9,7.65S57.51,269.94,57.51,265.71Z"/><path class="cls-4" d="M34.08,265.71H32.35c0,3.28-3.29,6-7.36,6s-7.36-2.67-7.36-6h-1.5c0,4.23,4,7.65,9,7.65s9-3.42,9-7.65"/><path class="cls-1" d="M34.08,265.71H32.35c0,3.28-3.29,6-7.36,6s-7.36-2.67-7.36-6h-1.5c0,4.23,4,7.65,9,7.65S34.08,269.94,34.08,265.71Z"/><path class="cls-4" d="M36.56,412.81c4.95,0,9-5.71,9-12.75s-4-12.76-9-12.76-9,5.71-9,12.76,4,12.75,9,12.75"/><ellipse class="cls-5" cx="36.56" cy="400.06" rx="8.98" ry="12.76"/><path class="cls-4" d="M49.7,376.69H47c0,5.13-5.11,9.29-11.41,9.29s-11.4-4.16-11.4-9.29H21.88c0,6.6,6.23,11.95,13.91,11.95s13.91-5.35,13.91-11.95"/><path class="cls-1" d="M49.7,376.69H47c0,5.13-5.11,9.29-11.41,9.29s-11.4-4.16-11.4-9.29H21.88c0,6.6,6.23,11.95,13.91,11.95S49.7,383.29,49.7,376.69Z"/><path class="cls-4" d="M57.05,376.69H55.32c0,3.29-3.3,5.95-7.36,5.95S40.6,380,40.6,376.69H39.1c0,4.23,4,7.66,9,7.66s9-3.43,9-7.66"/><path class="cls-1" d="M57.05,376.69H55.32c0,3.29-3.3,5.95-7.36,5.95S40.6,380,40.6,376.69H39.1c0,4.23,4,7.66,9,7.66S57.05,380.92,57.05,376.69Z"/><path class="cls-4" d="M33.62,376.69H31.89c0,3.29-3.3,5.95-7.36,5.95s-7.36-2.66-7.36-5.95h-1.5c0,4.23,4,7.66,9,7.66s9-3.43,9-7.66"/><path class="cls-1" d="M33.62,376.69H31.89c0,3.29-3.3,5.95-7.36,5.95s-7.36-2.66-7.36-5.95h-1.5c0,4.23,4,7.66,9,7.66S33.62,380.92,33.62,376.69Z"/><text class="cls-6" transform="translate(78.67 547.96)">RE<tspan class="cls-7" x="50.01" y="0">W</tspan><tspan x="82.65" y="0">ARD</tspan></text><text class="cls-6" transform="translate(669.67 546.96)">TEMP<tspan class="cls-8" x="100" y="0">TA</tspan><tspan x="140.66" y="0">TION</tspan></text><text class="cls-6" transform="translate(346.67 546.96)">PUNISHMEN<tspan class="cls-9" x="216.02" y="0">T</tspan></text><path class="cls-3" d="M783.32,454.19c0-38.89-41.43-70.41-92.54-70.41"/><path class="cls-10" d="M789.37,454.19c0-38.89,41.43-70.41,92.54-70.41"/><path class="cls-2" d="M783.74,216c0,38.89-41.43,70.41-92.54,70.41"/><path class="cls-3" d="M789.79,216c0,38.89,41.43,70.41,92.54,70.41"/><path class="cls-11" d="M919.22,409.54c5.56,0,10.06-7.4,10.06-16.53s-4.5-16.52-10.06-16.52-10.05,7.4-10.05,16.52,4.5,16.53,10.05,16.53"/><ellipse class="cls-12" cx="919.22" cy="393.01" rx="10.06" ry="16.52"/><path class="cls-11" d="M919.93,355.37c2.79.19,2.48,11.87,2,19s-3.21,12.83-6,12.64-4.62-6.15-4.1-13.32,5.34-18.54,8.13-18.36"/><path class="cls-12" d="M919.93,355.37c2.79.19,2.48,11.87,2,19s-3.21,12.83-6,12.64-4.62-6.15-4.1-13.32S917.14,355.19,919.93,355.37Z"/><path class="cls-11" d="M933.06,355.61c-2.55-1.13-7.85,9.31-10.8,15.87s-3.28,12.79-.73,13.91,7-3.28,10-9.84,4.11-18.82,1.55-19.94"/><path class="cls-13" d="M933.06,355.61c-2.55-1.13-7.85,9.31-10.8,15.87s-3.28,12.79-.73,13.91,7-3.28,10-9.84S935.62,356.73,933.06,355.61Z"/><rect class="cls-1" x="908.97" y="355.18" width="25.69" height="54.55"/><line class="cls-14" x1="648.42" y1="263.84" x2="678.91" y2="309.89"/><line class="cls-14" x1="646.67" y1="309.89" x2="680.78" y2="263.84"/><text class="cls-15" transform="translate(281.12 555.01)">&gt;</text><text class="cls-15" transform="translate(964.12 555.01)">&gt;</text><text class="cls-15" transform="translate(604.12 555.01)">=</text><path class="cls-3" d="M419.78,454.39c0-38.91-41.45-70.44-92.58-70.44"/><path class="cls-10" d="M425.82,454.39c0-38.91,41.46-70.44,92.59-70.44"/><path class="cls-3" d="M420.2,216.07c0,38.91-41.45,70.44-92.58,70.44"/><path class="cls-10" d="M426.25,216.07c0,38.91,41.45,70.44,92.58,70.44"/><path class="cls-11" d="M555.74,313.73c5.55,0,10.06-7.4,10.06-16.53s-4.51-16.53-10.06-16.53-10.06,7.4-10.06,16.53,4.5,16.53,10.06,16.53"/><ellipse class="cls-12" cx="555.74" cy="297.2" rx="10.06" ry="16.53"/><path class="cls-11" d="M556.44,259.54c2.79.19,2.49,11.87,2,19s-3.2,12.84-6,12.65-4.62-6.15-4.1-13.32,5.34-18.55,8.13-18.37"/><path class="cls-12" d="M556.44,259.54c2.79.19,2.49,11.87,2,19s-3.2,12.84-6,12.65-4.62-6.15-4.1-13.32S553.65,259.36,556.44,259.54Z"/><path class="cls-11" d="M569.58,259.78c-2.55-1.13-7.85,9.31-10.81,15.87s-3.28,12.8-.72,13.93,7-3.29,10-9.85,4.12-18.83,1.56-20"/><path class="cls-13" d="M569.58,259.78c-2.55-1.13-7.85,9.31-10.81,15.87s-3.28,12.8-.72,13.93,7-3.29,10-9.85S572.14,260.9,569.58,259.78Z"/><rect class="cls-1" x="545.48" y="259.35" width="25.7" height="54.58"/><path class="cls-11" d="M555.74,409.72c5.55,0,10.06-7.4,10.06-16.53s-4.51-16.53-10.06-16.53-10.06,7.4-10.06,16.53,4.5,16.53,10.06,16.53"/><ellipse class="cls-12" cx="555.74" cy="393.19" rx="10.06" ry="16.53"/><path class="cls-11" d="M556.44,355.53c2.79.19,2.49,11.87,2,19s-3.2,12.84-6,12.65-4.62-6.15-4.1-13.32,5.34-18.55,8.13-18.37"/><path class="cls-12" d="M556.44,355.53c2.79.19,2.49,11.87,2,19s-3.2,12.84-6,12.65-4.62-6.15-4.1-13.32S553.65,355.35,556.44,355.53Z"/><path class="cls-11" d="M569.58,355.77c-2.55-1.13-7.85,9.31-10.81,15.87s-3.28,12.8-.72,13.92,7-3.28,10-9.84,4.12-18.83,1.56-20"/><path class="cls-13" d="M569.58,355.77c-2.55-1.13-7.85,9.31-10.81,15.87s-3.28,12.8-.72,13.92,7-3.28,10-9.84S572.14,356.89,569.58,355.77Z"/><rect class="cls-1" x="545.48" y="355.34" width="25.7" height="54.58"/><path class="cls-2" d="M1125.21,454.73c0-38.25-40.76-69.26-91-69.26"/><path class="cls-3" d="M1131.16,454.73c0-38.25,40.76-69.26,91-69.26"/><path class="cls-3" d="M1125.63,220.4c0,38.25-40.76,69.26-91,69.26"/><path class="cls-10" d="M1131.57,220.4c0,38.25,40.76,69.26,91,69.26"/><g class="cls-16"><path class="cls-11" d="M1258.9,316.42c5.46,0,9.89-7.28,9.89-16.25s-4.43-16.26-9.89-16.26-9.89,7.28-9.89,16.26,4.43,16.25,9.89,16.25"/><ellipse class="cls-12" cx="1258.9" cy="300.17" rx="9.89" ry="16.25"/><path class="cls-11" d="M1259.59,263.14c2.74.18,2.45,11.67,1.93,18.72s-3.15,12.62-5.89,12.44-4.55-6.05-4-13.1,5.25-18.24,8-18.06"/><path class="cls-12" d="M1259.59,263.14c2.74.18,2.45,11.67,1.93,18.72s-3.15,12.62-5.89,12.44-4.55-6.05-4-13.1S1256.85,263,1259.59,263.14Z"/><path class="cls-11" d="M1272.51,263.37c-2.51-1.11-7.72,9.16-10.62,15.61s-3.23,12.58-.72,13.69,6.91-3.23,9.81-9.68,4-18.51,1.53-19.62"/><path class="cls-13" d="M1272.51,263.37c-2.51-1.11-7.72,9.16-10.62,15.61s-3.23,12.58-.72,13.69,6.91-3.23,9.81-9.68S1275,264.48,1272.51,263.37Z"/></g><line class="cls-14" x1="980.36" y1="362.8" x2="1010.35" y2="408.1"/><line class="cls-14" x1="978.63" y1="408.1" x2="1012.19" y2="362.8"/><text class="cls-6" transform="translate(1048.67 546.96)">SUCKER</text></svg>