<svg id="Layer_1" data-name="Layer 1" xmlns="http://www.w3.org/2000/svg" xmlns:xlink="http://www.w3.org/1999/xlink" viewBox="0 0 1280 720"><defs><style>.cls-1,.cls-13,.cls-2,.cls-8{fill:none;}.cls-14,.cls-2,.cls-9{stroke:#fff;}.cls-3{font-size:36px;}.cls-14,.cls-3,.cls-5{fill:#fff;}.cls-3,.cls-5{font-family:ArialMT, Arial;}.cls-4{letter-spacing:-0.09em;}.cls-5{font-size:18px;}.cls-6{clip-path:url(#clip-path);}.cls-7,.cls-9{fill:#d7b265;}.cls-8{stroke:#d7b265;}.cls-9{stroke-miterlimit:10;}.cls-10{clip-path:url(#clip-path-2);}.cls-11{clip-path:url(#clip-path-3);}.cls-12{fill:#5ab3ab;}.cls-13{stroke:#5ab3ab;}.cls-14{stroke-linecap:round;stroke-width:5px;}</style><clipPath id="clip-path"><rect class="cls-1" x="708.67" y="411.51" width="79.83" height="177.95"/></clipPath><clipPath id="clip-path-2"><rect class="cls-1" x="485.67" y="411.51" width="79.83" height="177.95"/></clipPath><clipPath id="clip-path-3"><rect class="cls-1" x="434.67" y="204.3" width="177" height="142.7"/></clipPath></defs><title>stag story</title><rect class="cls-2" x="640" y="168.06" width="222" height="222"/><rect class="cls-2" x="418" y="168.06" width="222" height="222"/><rect class="cls-2" x="640" y="389.94" width="222" height="222"/><rect class="cls-2" x="418" y="389.94" width="222" height="222"/><text class="cls-3" transform="translate(294.72 194.44)"><tspan class="cls-4">Y</tspan><tspan x="20.71" y="0">ou</tspan></text><text class="cls-3" transform="translate(415.21 113.94)"><tspan class="cls-4">Y</tspan><tspan x="20.71" y="0">our Partner</tspan></text><text class="cls-5" transform="translate(417.7 144.16)">Cooperates</text><text class="cls-5" transform="translate(295.2 226.66)">Cooperate</text><text class="cls-5" transform="translate(295.2 417.66)">Defect</text><text class="cls-5" transform="translate(642.7 144.16)">Defects</text><g class="cls-6"><path class="cls-7" d="M740.52,588.82c17.25,0,31.24-24.13,31.24-53.89s-14-53.9-31.24-53.9-31.25,24.13-31.25,53.9,14,53.89,31.25,53.89"/><ellipse class="cls-8" cx="740.52" cy="534.93" rx="31.25" ry="53.89"/><path class="cls-7" d="M742.71,412.15c8.65.61,7.71,38.69,6.09,62.08s-10,41.85-18.61,41.24S715.83,495.41,717.45,472s16.6-60.48,25.26-59.87"/><path class="cls-8" d="M742.71,412.15c8.65.61,7.71,38.69,6.09,62.08s-10,41.85-18.61,41.24S715.83,495.41,717.45,472,734.05,411.54,742.71,412.15Z"/><path class="cls-7" d="M783.52,412.91c-7.94-3.66-24.39,30.36-33.57,51.77s-10.2,41.72-2.26,45.39,21.81-10.71,31-32.12,12.77-61.37,4.84-65"/><path class="cls-9" d="M783.52,412.91c-7.94-3.66-24.39,30.36-33.57,51.77s-10.2,41.72-2.26,45.39,21.81-10.71,31-32.12S791.45,416.58,783.52,412.91Z"/></g><g class="cls-10"><path class="cls-7" d="M517.52,588.82c17.25,0,31.24-24.13,31.24-53.89s-14-53.9-31.24-53.9-31.25,24.13-31.25,53.9,14,53.89,31.25,53.89"/><ellipse class="cls-8" cx="517.52" cy="534.93" rx="31.25" ry="53.89"/><path class="cls-7" d="M519.71,412.15c8.65.61,7.71,38.69,6.09,62.08s-10,41.85-18.61,41.24S492.83,495.41,494.45,472s16.6-60.48,25.26-59.87"/><path class="cls-8" d="M519.71,412.15c8.65.61,7.71,38.69,6.09,62.08s-10,41.85-18.61,41.24S492.83,495.41,494.45,472,511.05,411.54,519.71,412.15Z"/><path class="cls-7" d="M560.52,412.91c-7.94-3.66-24.39,30.36-33.57,51.77s-10.2,41.72-2.26,45.39,21.81-10.71,31-32.12,12.77-61.37,4.84-65"/><path class="cls-9" d="M560.52,412.91c-7.94-3.66-24.39,30.36-33.57,51.77s-10.2,41.72-2.26,45.39,21.81-10.71,31-32.12S568.45,416.58,560.52,412.91Z"/></g><g class="cls-11"><path class="cls-12" d="M524,346.47c21.07,0,38.16-22.4,38.16-50s-17.09-50-38.16-50-38.17,22.4-38.17,50,17.09,50,38.17,50"/><ellipse class="cls-13" cx="524.01" cy="296.44" rx="38.16" ry="50.02"/><path class="cls-12" d="M579.9,204.82H568.49c0,20.11-21.71,36.41-48.49,36.41s-48.49-16.3-48.49-36.41H461.6c0,25.89,26.48,46.87,59.15,46.87s59.15-21,59.15-46.87"/><path class="cls-12" d="M579.9,204.82H568.49c0,20.11-21.71,36.41-48.49,36.41s-48.49-16.3-48.49-36.41H461.6c0,25.89,26.48,46.87,59.15,46.87S579.9,230.71,579.9,204.82Z"/><path class="cls-12" d="M611.14,204.82h-7.36c0,12.88-14,23.32-31.29,23.32s-31.28-10.44-31.28-23.32h-6.4c0,16.58,17.09,30,38.17,30s38.16-13.44,38.16-30"/><path class="cls-12" d="M611.14,204.82h-7.36c0,12.88-14,23.32-31.29,23.32s-31.28-10.44-31.28-23.32h-6.4c0,16.58,17.09,30,38.17,30S611.14,221.4,611.14,204.82Z"/><path class="cls-12" d="M511.52,204.82h-7.36c0,12.88-14,23.32-31.28,23.32s-31.29-10.44-31.29-23.32h-6.4c0,16.58,17.09,30,38.17,30s38.16-13.44,38.16-30"/><path class="cls-12" d="M511.52,204.82h-7.36c0,12.88-14,23.32-31.28,23.32s-31.29-10.44-31.29-23.32h-6.4c0,16.58,17.09,30,38.17,30S511.52,221.4,511.52,204.82Z"/></g><line class="cls-14" x1="682.07" y1="204.61" x2="775.93" y2="346.38"/><line class="cls-14" x1="676.67" y1="346.38" x2="781.69" y2="204.61"/></svg>