<svg id="Layer_1" data-name="Layer 1" xmlns="http://www.w3.org/2000/svg" viewBox="0 0 1280 720"><defs><style>.cls-1,.cls-2{fill:#fff;stroke:#fff;}.cls-1{stroke-miterlimit:10;}</style></defs><title>2</title><polygon class="cls-1" points="392.85 252.5 358.48 260.9 398.73 287.39 392.85 252.5"/><path class="cls-1" d="M448,467.5c44.56,0,80.69-34.9,80.69-78s-36.13-78-80.69-78-80.69,34.91-80.69,78,36.12,78,80.69,78"/><ellipse class="cls-2" cx="447.97" cy="389.54" rx="80.69" ry="77.96"/><line class="cls-2" x1="252.44" y1="465.86" x2="383.92" y2="266.07"/><polygon class="cls-1" points="392.85 252.5 358.48 260.9 398.73 287.39 392.85 252.5"/><polygon class="cls-1" points="875.15 252.5 909.52 260.9 869.27 287.39 875.15 252.5"/><path class="cls-1" d="M820,467.5c-44.56,0-80.69-34.9-80.69-78s36.13-78,80.69-78,80.69,34.91,80.69,78-36.12,78-80.69,78"/><ellipse class="cls-2" cx="820.03" cy="389.54" rx="80.69" ry="77.96"/><line class="cls-2" x1="1015.56" y1="465.86" x2="884.08" y2="266.07"/><polygon class="cls-1" points="875.15 252.5 909.52 260.9 869.27 287.39 875.15 252.5"/></svg>