<svg id="Layer_1" data-name="Layer 1" xmlns="http://www.w3.org/2000/svg" xmlns:xlink="http://www.w3.org/1999/xlink" viewBox="0 0 1280 720"><defs><style>.cls-1,.cls-4,.cls-7{fill:none;}.cls-2{clip-path:url(#clip-path);}.cls-3{fill:#5ab3ab;}.cls-4{stroke:#5ab3ab;}.cls-5{clip-path:url(#clip-path-2);}.cls-6,.cls-8{fill:#d7b265;}.cls-7{stroke:#d7b265;}.cls-8{stroke:#fff;}</style><clipPath id="clip-path"><rect class="cls-1" x="264.96" y="211.75" width="367.78" height="296.5"/></clipPath><clipPath id="clip-path-2"><rect class="cls-1" x="770.42" y="206.47" width="144.62" height="307.07"/></clipPath></defs><title>3</title><g class="cls-2"><path class="cls-3" d="M450.59,507.16c43.8,0,79.3-46.54,79.3-103.94s-35.5-103.94-79.3-103.94-79.3,46.53-79.3,103.94,35.51,103.94,79.3,103.94"/><ellipse class="cls-4" cx="450.59" cy="403.22" rx="79.3" ry="103.94"/><path class="cls-3" d="M566.73,212.84H543c0,41.78-45.1,75.66-100.75,75.66s-100.75-33.88-100.75-75.66h-20.6c0,53.78,55,97.38,122.9,97.38s122.91-43.6,122.91-97.38"/><path class="cls-3" d="M566.73,212.84H543c0,41.78-45.1,75.66-100.75,75.66s-100.75-33.88-100.75-75.66h-20.6c0,53.78,55,97.38,122.9,97.38S566.73,266.62,566.73,212.84Z"/><path class="cls-3" d="M631.65,212.84h-15.3c0,26.76-29.1,48.46-65,48.46s-65-21.7-65-48.46H473c0,34.44,35.51,62.37,79.31,62.37s79.3-27.93,79.3-62.37"/><path class="cls-3" d="M631.65,212.84h-15.3c0,26.76-29.1,48.46-65,48.46s-65-21.7-65-48.46H473c0,34.44,35.51,62.37,79.31,62.37S631.65,247.28,631.65,212.84Z"/><path class="cls-3" d="M424.66,212.84h-15.3c0,26.76-29.1,48.46-65,48.46s-65-21.7-65-48.46h-13.3c0,34.44,35.51,62.37,79.3,62.37s79.31-27.93,79.31-62.37"/><path class="cls-3" d="M424.66,212.84h-15.3c0,26.76-29.1,48.46-65,48.46s-65-21.7-65-48.46h-13.3c0,34.44,35.51,62.37,79.3,62.37S424.66,247.28,424.66,212.84Z"/></g><g class="cls-5"><path class="cls-6" d="M828.12,512.44c31.26,0,56.6-41.64,56.6-93s-25.34-93-56.6-93-56.61,41.64-56.61,93,25.34,93,56.61,93"/><ellipse class="cls-7" cx="828.12" cy="419.44" rx="56.6" ry="93"/><path class="cls-6" d="M832.09,207.57c15.68,1.05,14,66.77,11,107.13s-18,72.22-33.72,71.17-26-34.62-23.07-75,30.08-104.38,45.76-103.33"/><path class="cls-7" d="M832.09,207.57c15.68,1.05,14,66.77,11,107.13s-18,72.22-33.72,71.17-26-34.62-23.07-75S816.41,206.52,832.09,207.57Z"/><path class="cls-6" d="M906,208.89c-14.38-6.33-44.19,52.39-60.82,89.33s-18.46,72-4.09,78.33,39.51-18.49,56.14-55.42S920.39,215.22,906,208.89"/><path class="cls-8" d="M906,208.89c-14.38-6.33-44.19,52.39-60.82,89.33s-18.46,72-4.09,78.33,39.51-18.49,56.14-55.42S920.39,215.22,906,208.89Z"/></g></svg>