<svg id="Layer_1" data-name="Layer 1" xmlns="http://www.w3.org/2000/svg" xmlns:xlink="http://www.w3.org/1999/xlink" viewBox="0 0 1280 720"><defs><style>.cls-1,.cls-4,.cls-7{fill:none;}.cls-2{clip-path:url(#clip-path);}.cls-3{fill:#5ab3ab;}.cls-4{stroke:#5ab3ab;}.cls-5{clip-path:url(#clip-path-2);}.cls-6,.cls-8{fill:#d7b265;}.cls-7{stroke:#d7b265;}.cls-8{stroke:#fff;}</style><clipPath id="clip-path"><rect class="cls-1" x="202.5" y="131.24" width="567.5" height="457.52"/></clipPath><clipPath id="clip-path-2"><rect class="cls-1" x="935.33" y="393.31" width="62.17" height="132.01"/></clipPath></defs><title>4</title><g class="cls-2"><path class="cls-3" d="M488.94,587.07c67.58,0,122.37-71.8,122.37-160.38S556.52,266.3,488.94,266.3,366.58,338.11,366.58,426.69s54.78,160.38,122.36,160.38"/><ellipse class="cls-4" cx="488.94" cy="426.69" rx="122.37" ry="160.39"/><path class="cls-3" d="M668.15,132.93H631.57c0,64.47-69.61,116.74-155.46,116.74S320.64,197.4,320.64,132.93H288.85c0,83,84.91,150.25,189.65,150.25s189.65-67.27,189.65-150.25"/><path class="cls-3" d="M668.15,132.93H631.57c0,64.47-69.61,116.74-155.46,116.74S320.64,197.4,320.64,132.93H288.85c0,83,84.91,150.25,189.65,150.25S668.15,215.91,668.15,132.93Z"/><path class="cls-3" d="M768.32,132.93H744.71c0,41.29-44.9,74.76-100.3,74.76S544.1,174.22,544.1,132.93H523.59c0,53.14,54.78,96.23,122.36,96.23s122.37-43.09,122.37-96.23"/><path class="cls-3" d="M768.32,132.93H744.71c0,41.29-44.9,74.76-100.3,74.76S544.1,174.22,544.1,132.93H523.59c0,53.14,54.78,96.23,122.36,96.23S768.32,186.07,768.32,132.93Z"/><path class="cls-3" d="M448.92,132.93h-23.6c0,41.29-44.91,74.76-100.31,74.76S224.7,174.22,224.7,132.93H204.19c0,53.14,54.78,96.23,122.36,96.23s122.37-43.09,122.37-96.23"/><path class="cls-3" d="M448.92,132.93h-23.6c0,41.29-44.91,74.76-100.31,74.76S224.7,174.22,224.7,132.93H204.19c0,53.14,54.78,96.23,122.36,96.23S448.92,186.07,448.92,132.93Z"/></g><g class="cls-5"><path class="cls-6" d="M960.13,524.84c13.44,0,24.33-17.9,24.33-40s-10.89-40-24.33-40-24.33,17.9-24.33,40,10.89,40,24.33,40"/><ellipse class="cls-7" cx="960.13" cy="484.86" rx="24.33" ry="39.98"/><path class="cls-6" d="M961.84,393.78c6.74.45,6,28.7,4.74,46.05s-7.75,31.05-14.49,30.6-11.18-14.88-9.92-32.23,12.93-44.87,19.67-44.42"/><path class="cls-7" d="M961.84,393.78c6.74.45,6,28.7,4.74,46.05s-7.75,31.05-14.49,30.6-11.18-14.88-9.92-32.23S955.1,393.33,961.84,393.78Z"/><path class="cls-6" d="M993.62,394.35c-6.18-2.72-19,22.52-26.14,38.4s-7.94,30.95-1.76,33.67,17-7.94,24.13-23.82,9.95-45.53,3.77-48.25"/><path class="cls-8" d="M993.62,394.35c-6.18-2.72-19,22.52-26.14,38.4s-7.94,30.95-1.76,33.67,17-7.94,24.13-23.82S999.8,397.07,993.62,394.35Z"/></g></svg>