<svg id="Layer_1" data-name="Layer 1" xmlns="http://www.w3.org/2000/svg" xmlns:xlink="http://www.w3.org/1999/xlink" viewBox="0 0 1280 720"><defs><style>.cls-1,.cls-4{fill:none;}.cls-2{clip-path:url(#clip-path);}.cls-3{fill:#5ab3ab;}.cls-4{stroke:#5ab3ab;}.cls-5,.cls-6{fill:#fff;stroke:#fff;}.cls-5{stroke-miterlimit:10;}</style><clipPath id="clip-path"><rect class="cls-1" x="488.61" y="316.32" width="351.87" height="283.68"/></clipPath></defs><title>5</title><g class="cls-2"><path class="cls-3" d="M666.21,599c41.9,0,75.87-44.52,75.87-99.44s-34-99.45-75.87-99.45-75.87,44.53-75.87,99.45,34,99.44,75.87,99.44"/><ellipse class="cls-4" cx="666.21" cy="499.51" rx="75.87" ry="99.44"/><path class="cls-3" d="M777.32,317.37H754.64c0,40-43.15,72.38-96.39,72.38s-96.39-32.41-96.39-72.38H542.15c0,51.45,52.64,93.16,117.58,93.16s117.59-41.71,117.59-93.16"/><path class="cls-3" d="M777.32,317.37H754.64c0,40-43.15,72.38-96.39,72.38s-96.39-32.41-96.39-72.38H542.15c0,51.45,52.64,93.16,117.58,93.16S777.32,368.82,777.32,317.37Z"/><path class="cls-3" d="M839.43,317.37H824.8c0,25.6-27.85,46.36-62.2,46.36S700.41,343,700.41,317.37H687.69c0,32.95,34,59.66,75.87,59.66s75.87-26.71,75.87-59.66"/><path class="cls-3" d="M839.43,317.37H824.8c0,25.6-27.85,46.36-62.2,46.36S700.41,343,700.41,317.37H687.69c0,32.95,34,59.66,75.87,59.66S839.43,350.32,839.43,317.37Z"/><path class="cls-3" d="M641.39,317.37H626.76c0,25.6-27.84,46.36-62.19,46.36s-62.2-20.76-62.2-46.36H489.65c0,32.95,34,59.66,75.87,59.66s75.87-26.71,75.87-59.66"/><path class="cls-3" d="M641.39,317.37H626.76c0,25.6-27.84,46.36-62.19,46.36s-62.2-20.76-62.2-46.36H489.65c0,32.95,34,59.66,75.87,59.66S641.39,350.32,641.39,317.37Z"/></g><path class="cls-5" d="M482.72,120c34.11,0,61.76,26.71,61.76,59.67s-27.65,59.66-61.76,59.66S421,212.62,421,179.67,448.61,120,482.72,120"/><ellipse class="cls-6" cx="482.72" cy="179.67" rx="61.76" ry="59.67"/><path class="cls-5" d="M861.12,120c34.1,0,61.76,26.71,61.76,59.67s-27.66,59.66-61.76,59.66-61.76-26.71-61.76-59.66S827,120,861.12,120"/><ellipse class="cls-6" cx="861.12" cy="179.67" rx="61.76" ry="59.67"/><line class="cls-6" x1="333.07" y1="121.26" x2="433.7" y2="274.17"/><polygon class="cls-5" points="440.54 284.55 414.23 278.12 445.04 257.85 440.54 284.55"/><line class="cls-6" x1="1006.93" y1="121.26" x2="906.3" y2="274.17"/><polygon class="cls-5" points="899.46 284.55 894.96 257.85 925.77 278.12 899.46 284.55"/></svg>