<svg id="Layer_1" data-name="Layer 1" xmlns="http://www.w3.org/2000/svg" xmlns:xlink="http://www.w3.org/1999/xlink" viewBox="0 0 1280 720"><defs><style>.cls-1,.cls-6{fill:none;}.cls-2,.cls-3{fill:#fff;}.cls-2,.cls-3,.cls-7{stroke:#fff;}.cls-2{stroke-miterlimit:10;}.cls-4{clip-path:url(#clip-path);}.cls-5,.cls-7{fill:#d7b265;}.cls-6{stroke:#d7b265;}</style><clipPath id="clip-path"><rect class="cls-1" x="696.05" y="296.67" width="141.95" height="301.4"/></clipPath></defs><title>6</title><path class="cls-2" d="M595.53,121.93c35,0,63.36,27.41,63.36,61.21s-28.37,61.22-63.36,61.22S532.17,217,532.17,183.14s28.37-61.21,63.36-61.21"/><ellipse class="cls-3" cx="595.53" cy="183.14" rx="63.36" ry="61.21"/><line class="cls-3" x1="442" y1="123.22" x2="545.24" y2="280.09"/><polygon class="cls-2" points="552.25 290.75 525.26 284.15 556.87 263.35 552.25 290.75"/><g class="cls-4"><path class="cls-5" d="M752.68,597c30.68,0,55.56-40.87,55.56-91.29s-24.88-91.28-55.56-91.28-55.56,40.87-55.56,91.28S722,597,752.68,597"/><ellipse class="cls-6" cx="752.68" cy="505.71" rx="55.56" ry="91.28"/><path class="cls-5" d="M756.58,297.76c15.39,1,13.71,65.53,10.83,105.15s-17.71,70.89-33.1,69.86-25.53-34-22.64-73.6,29.52-102.44,44.91-101.41"/><path class="cls-6" d="M756.58,297.76c15.39,1,13.71,65.53,10.83,105.15s-17.71,70.89-33.1,69.86-25.53-34-22.64-73.6S741.19,296.73,756.58,297.76Z"/><path class="cls-5" d="M829.14,299.05c-14.11-6.21-43.37,51.43-59.69,87.68s-18.12,70.67-4,76.88,38.78-18.14,55.11-54.39,22.71-104,8.6-110.17"/><path class="cls-7" d="M829.14,299.05c-14.11-6.21-43.37,51.43-59.69,87.68s-18.12,70.67-4,76.88,38.78-18.14,55.11-54.39S843.25,305.26,829.14,299.05Z"/></g></svg>