<svg id="Layer_1" data-name="Layer 1" xmlns="http://www.w3.org/2000/svg" xmlns:xlink="http://www.w3.org/1999/xlink" viewBox="0 0 1280 720"><defs><style>.cls-1,.cls-11,.cls-2,.cls-3,.cls-8{fill:none;}.cls-11,.cls-14,.cls-2{stroke:#5ab3ab;}.cls-2,.cls-3{stroke-width:2px;}.cls-13,.cls-3,.cls-8{stroke:#d7b265;}.cls-4,.cls-5{font-size:19.73px;font-family:AGHelvetica, AG_Helvetica;}.cls-10,.cls-4{fill:#5ab3ab;}.cls-5,.cls-7,.cls-9{fill:#d7b265;}.cls-12,.cls-13,.cls-14,.cls-6{fill:#fff;}.cls-9{stroke:#fff;}.cls-12{stroke:#000;stroke-miterlimit:10;}.cls-15{opacity:0.5;}.cls-16{clip-path:url(#clip-path);}</style><clipPath id="clip-path"><rect class="cls-1" x="349.21" y="382.21" width="96.98" height="26.76"/></clipPath></defs><title>7</title><path class="cls-2" d="M632.6,614.38c0-101.09-107.72-183-240.6-183"/><path class="cls-3" d="M648.31,614.38c0-101.09,107.72-183,240.59-183"/><text class="cls-4" transform="translate(243.1 435.46)">HUNT STAG<tspan x="0" y="23.68" xml:space="preserve"> (Cooperate)</tspan></text><text class="cls-5" transform="translate(935.48 435.46)">HUNT HARE <tspan x="0" y="23.68" xml:space="preserve">   (Defect)</tspan></text><path class="cls-6" d="M967.41,263.2c64.74,0,117.23-42.43,117.23-94.77s-52.49-94.78-117.23-94.78-117.23,42.43-117.23,94.78,52.48,94.77,117.23,94.77"/><path class="cls-7" d="M967.25,248.5c15.66,0,28.35-20.86,28.35-46.59s-12.69-46.58-28.35-46.58-28.35,20.85-28.35,46.58,12.69,46.59,28.35,46.59"/><ellipse class="cls-8" cx="967.25" cy="201.91" rx="28.35" ry="46.58"/><path class="cls-7" d="M969.24,95.78c7.85.53,7,33.45,5.52,53.66s-9,36.18-16.89,35.66-13-17.35-11.55-37.56,15.06-52.28,22.92-51.76"/><path class="cls-8" d="M969.24,95.78c7.85.53,7,33.45,5.52,53.66s-9,36.18-16.89,35.66-13-17.35-11.55-37.56S961.38,95.26,969.24,95.78Z"/><path class="cls-7" d="M1006.27,96.44c-7.2-3.17-22.13,26.25-30.46,44.75s-9.25,36.07-2,39.24,19.79-9.26,28.12-27.76,11.59-53.06,4.39-56.23"/><path class="cls-9" d="M1006.27,96.44c-7.2-3.17-22.13,26.25-30.46,44.75s-9.25,36.07-2,39.24,19.79-9.26,28.12-27.76S1013.47,99.61,1006.27,96.44Z"/><path class="cls-6" d="M314.59,266.91c64.75,0,117.23-42.43,117.23-94.77S379.34,77.36,314.59,77.36s-117.23,42.43-117.23,94.78,52.49,94.77,117.23,94.77"/><path class="cls-10" d="M315,263.2c21.94,0,39.72-23.31,39.72-52.06S337,159.07,315,159.07s-39.72,23.31-39.72,52.07S293.07,263.2,315,263.2"/><ellipse class="cls-11" cx="315.01" cy="211.14" rx="39.72" ry="52.07"/><path class="cls-10" d="M373.18,115.78H361.31c0,20.93-22.6,37.89-50.47,37.89s-50.47-17-50.47-37.89H250.05c0,26.94,27.57,48.77,61.57,48.77s61.56-21.83,61.56-48.77"/><path class="cls-10" d="M373.18,115.78H361.31c0,20.93-22.6,37.89-50.47,37.89s-50.47-17-50.47-37.89H250.05c0,26.94,27.57,48.77,61.57,48.77S373.18,142.72,373.18,115.78Z"/><path class="cls-10" d="M405.7,115.78H398c0,13.4-14.58,24.27-32.56,24.27s-32.57-10.87-32.57-24.27h-6.66C326.25,133,344,147,366,147s39.72-14,39.72-31.24"/><path class="cls-10" d="M405.7,115.78H398c0,13.4-14.58,24.27-32.56,24.27s-32.57-10.87-32.57-24.27h-6.66C326.25,133,344,147,366,147S405.7,133,405.7,115.78Z"/><path class="cls-10" d="M302,115.78h-7.67c0,13.4-14.57,24.27-32.56,24.27s-32.56-10.87-32.56-24.27h-6.66c0,17.25,17.78,31.24,39.72,31.24S302,133,302,115.78"/><path class="cls-10" d="M302,115.78h-7.67c0,13.4-14.57,24.27-32.56,24.27s-32.56-10.87-32.56-24.27h-6.66c0,17.25,17.78,31.24,39.72,31.24S302,133,302,115.78Z"/><path class="cls-12" d="M306.42,399.37c17.86,0,32.34-14,32.34-31.24s-14.48-31.24-32.34-31.24-32.33,14-32.33,31.24,14.47,31.24,32.33,31.24"/><ellipse class="cls-11" cx="306.42" cy="368.13" rx="32.34" ry="31.24"/><path class="cls-12" d="M504.53,399.37c17.86,0,32.34-14,32.34-31.24s-14.48-31.24-32.34-31.24-32.33,14-32.33,31.24,14.48,31.24,32.33,31.24"/><ellipse class="cls-11" cx="504.53" cy="368.13" rx="32.34" ry="31.24"/><path class="cls-8" d="M996.87,399.37c17.86,0,32.34-14,32.34-31.24s-14.48-31.24-32.34-31.24-32.33,14-32.33,31.24,14.47,31.24,32.33,31.24"/><ellipse class="cls-13" cx="996.87" cy="368.13" rx="32.34" ry="31.24"/><line class="cls-11" x1="228.07" y1="398.72" x2="280.76" y2="318.65"/><polygon class="cls-14" points="284.34 313.22 270.56 316.58 286.69 327.2 284.34 313.22"/><line class="cls-11" x1="580.88" y1="398.72" x2="528.19" y2="318.65"/><polygon class="cls-14" points="524.61 313.22 538.38 316.58 522.25 327.2 524.61 313.22"/><line class="cls-8" x1="969.45" y1="410.28" x2="916.76" y2="330.22"/><polygon class="cls-13" points="913.18 324.78 926.96 328.15 910.83 338.76 913.18 324.78"/><g class="cls-15"><g class="cls-16"><path class="cls-2" d="M359.92,384.34c2.21,6.36,17.12,17.89,38.73,17.89S437,389,437.78,383.17"/><polyline class="cls-2" points="357.57 389.69 359.92 384.34 365.08 387.08"/></g></g><path class="cls-2" d="M437.59,363.83c-2.21-6.37-17.11-17.89-38.72-17.89s-38.3,13.22-39.14,19.06"/><polyline class="cls-2" points="439.95 358.48 437.59 363.83 432.43 361.09"/><ellipse class="cls-11" cx="323.03" cy="322.14" rx="3.79" ry="4.02"/><ellipse class="cls-11" cx="332.05" cy="310.77" rx="5.35" ry="5.67"/><ellipse class="cls-11" cx="337.62" cy="293.23" rx="9.36" ry="9.9"/><ellipse class="cls-8" cx="974.65" cy="321.06" rx="3.79" ry="4.02"/><ellipse class="cls-8" cx="965.64" cy="309.69" rx="5.35" ry="5.67"/><ellipse class="cls-8" cx="960.06" cy="292.16" rx="9.36" ry="9.9"/></svg>