<svg id="Layer_1" data-name="Layer 1" xmlns="http://www.w3.org/2000/svg" xmlns:xlink="http://www.w3.org/1999/xlink" viewBox="0 0 1280 720"><defs><style>.cls-1,.cls-14,.cls-17,.cls-7,.cls-9{fill:none;}.cls-2{font-size:9.38px;}.cls-12,.cls-18,.cls-19,.cls-2{fill:#fff;}.cls-10,.cls-11,.cls-2{font-family:AGHelvetica, AG_Helvetica;}.cls-3{letter-spacing:-0.07em;}.cls-4{letter-spacing:0em;}.cls-5{opacity:0.51;}.cls-6{clip-path:url(#clip-path);}.cls-17,.cls-18,.cls-7{stroke:#5ab3ab;}.cls-7,.cls-9{stroke-width:2px;}.cls-8{clip-path:url(#clip-path-2);}.cls-14,.cls-19,.cls-9{stroke:#d7b265;}.cls-10,.cls-11{font-size:14.07px;}.cls-10,.cls-16{fill:#5ab3ab;}.cls-11,.cls-13,.cls-15{fill:#d7b265;}.cls-15{stroke:#fff;}.cls-20{opacity:0.5;}.cls-21{clip-path:url(#clip-path-3);}</style><clipPath id="clip-path"><rect class="cls-1" x="454.77" y="486.38" width="186.46" height="137.6"/></clipPath><clipPath id="clip-path-2"><rect class="cls-1" x="636.81" y="486.38" width="186.46" height="137.6"/></clipPath><clipPath id="clip-path-3"><rect class="cls-1" x="286.59" y="255.22" width="90.01" height="24.84"/></clipPath></defs><title>8</title><text class="cls-2" transform="translate(570.94 82.06)"><tspan xml:space="preserve">YOUR  </tspan><tspan class="cls-3" x="36.49" y="0">P</tspan><tspan class="cls-4" x="42.05" y="0">ARTNER”S CHOICES</tspan></text><g class="cls-5"><g class="cls-6"><path class="cls-7" d="M633.42,623.2c0-72.11-76.83-130.57-171.61-130.57"/></g></g><path class="cls-7" d="M634.05,100.8c0,81.39-76.83,147.37-171.6,147.37"/><g class="cls-5"><g class="cls-8"><path class="cls-9" d="M644.62,623.2c0-72.11,76.84-130.57,171.61-130.57"/></g></g><path class="cls-9" d="M645.26,100.8c0,81.39,76.83,147.37,171.61,147.37"/><text class="cls-10" transform="translate(355.6 253.21)">HUNT STAG</text><text class="cls-11" transform="translate(849.46 253.21)">HUNT HARE</text><path class="cls-12" d="M872.23,497.8c46.18,0,83.61-30.26,83.61-67.6s-37.43-67.6-83.61-67.6-83.62,30.27-83.62,67.6,37.44,67.6,83.62,67.6"/><path class="cls-13" d="M872.11,487.31c11.17,0,20.23-14.87,20.23-33.22s-9.06-33.23-20.23-33.23-20.22,14.88-20.22,33.23,9.05,33.22,20.22,33.22"/><ellipse class="cls-14" cx="872.11" cy="454.09" rx="20.22" ry="33.23"/><path class="cls-13" d="M873.53,378.39c5.6.37,5,23.85,3.94,38.27s-6.44,25.81-12,25.43-9.3-12.37-8.25-26.78,10.75-37.3,16.35-36.92"/><path class="cls-14" d="M873.53,378.39c5.6.37,5,23.85,3.94,38.27s-6.44,25.81-12,25.43-9.3-12.37-8.25-26.78S867.93,378,873.53,378.39Z"/><path class="cls-13" d="M900,378.86c-5.14-2.26-15.79,18.72-21.73,31.91s-6.6,25.73-1.47,28,14.12-6.6,20.06-19.8,8.27-37.84,3.14-40.1"/><path class="cls-15" d="M900,378.86c-5.14-2.26-15.79,18.72-21.73,31.91s-6.6,25.73-1.47,28,14.12-6.6,20.06-19.8S905.08,381.12,900,378.86Z"/><path class="cls-12" d="M391,500.45c46.18,0,83.62-30.27,83.62-67.6s-37.44-67.6-83.62-67.6-83.62,30.26-83.62,67.6,37.44,67.6,83.62,67.6"/><path class="cls-16" d="M391.26,497.8c15.65,0,28.33-16.62,28.33-37.13s-12.68-37.14-28.33-37.14-28.34,16.63-28.34,37.14,12.69,37.13,28.34,37.13"/><ellipse class="cls-17" cx="391.26" cy="460.67" rx="28.33" ry="37.14"/><path class="cls-16" d="M432.75,392.65h-8.47c0,14.93-16.11,27-36,27s-36-12.1-36-27h-7.36c0,19.21,19.66,34.79,43.91,34.79s43.91-15.58,43.91-34.79"/><path class="cls-16" d="M432.75,392.65h-8.47c0,14.93-16.11,27-36,27s-36-12.1-36-27h-7.36c0,19.21,19.66,34.79,43.91,34.79S432.75,411.86,432.75,392.65Z"/><path class="cls-16" d="M456,392.65h-5.47c0,9.56-10.4,17.31-23.23,17.31S404,402.21,404,392.65h-4.75c0,12.31,12.68,22.28,28.33,22.28S456,405,456,392.65"/><path class="cls-16" d="M456,392.65h-5.47c0,9.56-10.4,17.31-23.23,17.31S404,402.21,404,392.65h-4.75c0,12.31,12.68,22.28,28.33,22.28S456,405,456,392.65Z"/><path class="cls-16" d="M382,392.65h-5.46c0,9.56-10.4,17.31-23.23,17.31s-23.23-7.75-23.23-17.31h-4.75c0,12.31,12.69,22.28,28.34,22.28S382,405,382,392.65"/><path class="cls-16" d="M382,392.65h-5.46c0,9.56-10.4,17.31-23.23,17.31s-23.23-7.75-23.23-17.31h-4.75c0,12.31,12.69,22.28,28.34,22.28S382,405,382,392.65Z"/><path class="cls-17" d="M260,265.59c12.74,0,23.07,10,23.07,22.28S272.78,310.16,260,310.16,237,300.18,237,287.87,247.3,265.59,260,265.59"/><ellipse class="cls-18" cx="260.04" cy="287.87" rx="23.06" ry="22.28"/><path class="cls-12" d="M401.35,265.59c12.74,0,23.06,10,23.06,22.28s-10.32,22.29-23.06,22.29-23.07-10-23.07-22.29,10.33-22.28,23.07-22.28"/><ellipse class="cls-18" cx="401.35" cy="287.87" rx="23.06" ry="22.28"/><path class="cls-12" d="M893.24,265.59c12.74,0,23.07,10,23.07,22.28S906,310.16,893.24,310.16s-23.06-10-23.06-22.29,10.32-22.28,23.06-22.28"/><ellipse class="cls-19" cx="893.24" cy="287.87" rx="23.06" ry="22.28"/><line class="cls-17" x1="204.16" y1="266.06" x2="241.74" y2="323.17"/><polygon class="cls-18" points="244.29 327.04 234.46 324.64 245.97 317.07 244.29 327.04"/><line class="cls-17" x1="455.8" y1="266.06" x2="418.22" y2="323.17"/><polygon class="cls-18" points="415.67 327.04 425.49 324.64 413.99 317.07 415.67 327.04"/><line class="cls-14" x1="873.68" y1="257.81" x2="836.1" y2="314.92"/><polygon class="cls-19" points="833.55 318.8 843.38 316.39 831.87 308.82 833.55 318.8"/><ellipse class="cls-17" cx="384.54" cy="315.67" rx="3.52" ry="3.73"/><ellipse class="cls-14" cx="906.92" cy="314.67" rx="3.52" ry="3.73"/><ellipse class="cls-17" cx="376.18" cy="326.23" rx="4.96" ry="5.26"/><ellipse class="cls-14" cx="915.29" cy="325.23" rx="4.96" ry="5.26"/><ellipse class="cls-17" cx="371" cy="342.5" rx="8.69" ry="9.19"/><ellipse class="cls-14" cx="920.46" cy="341.5" rx="8.69" ry="9.19"/><path class="cls-7" d="M366.65,289.07c-2,5.91-15.88,16.6-35.94,16.6S295.17,293.4,294.4,288"/><polyline class="cls-7" points="368.84 294.03 366.65 289.07 361.86 291.61"/><g class="cls-20"><g class="cls-21"><path class="cls-7" d="M296.52,278.08c2.05-5.91,15.89-16.61,35.94-16.61s35.55,12.28,36.32,17.69"/><polyline class="cls-7" points="294.34 273.12 296.52 278.08 301.31 275.54"/></g></g></svg>