<svg id="Layer_1" data-name="Layer 1" xmlns="http://www.w3.org/2000/svg" viewBox="0 0 750 1334"><defs><style>.cls-1{fill:#231f20;}.cls-2{fill:#e8d9c2;}.cls-3{fill:#b65040;}.cls-4{fill:#f3f0e9;}.cls-5,.cls-7,.cls-8{fill:none;stroke-miterlimit:10;}.cls-5{stroke:#e6e7e8;stroke-width:2px;}.cls-6{fill:#e6e7e8;}.cls-7{stroke:#a6a8ab;}.cls-8{stroke:#808184;stroke-width:0.5px;}</style></defs><title>track - for mobile v1</title><rect class="cls-1" width="750" height="1334"/><ellipse class="cls-2" cx="388.9" cy="236.98" rx="13.02" ry="13.46" transform="translate(-4.08 6.82) rotate(-1)"/><ellipse class="cls-2" cx="359.91" cy="265.46" rx="13.02" ry="13.46" transform="translate(-4.58 6.32) rotate(-1)"/><ellipse class="cls-2" cx="359.9" cy="322.08" rx="13.02" ry="13.46" transform="translate(-5.57 6.33) rotate(-1)"/><ellipse class="cls-2" cx="360.41" cy="294.01" rx="13.02" ry="13.46" transform="translate(-5.08 6.33) rotate(-1)"/><ellipse class="cls-2" cx="359.7" cy="931.17" rx="13.02" ry="13.46" transform="matrix(1, -0.02, 0.02, 1, -16.2, 6.42)"/><ellipse class="cls-2" cx="360.21" cy="960.2" rx="13.02" ry="13.46" transform="translate(-16.7 6.43) rotate(-1)"/><ellipse class="cls-2" cx="360.12" cy="723.32" rx="13.02" ry="13.46" transform="translate(-12.57 6.4) rotate(-1)"/><ellipse class="cls-2" cx="388.91" cy="1125.66" rx="13.02" ry="13.46" transform="translate(-19.59 6.96) rotate(-1)"/><ellipse class="cls-2" cx="388.66" cy="363.02" rx="13.02" ry="13.46" transform="matrix(1, -0.02, 0.02, 1, -6.28, 6.84)"/><ellipse class="cls-2" cx="359.89" cy="421.24" rx="13.02" ry="13.46" transform="translate(-7.3 6.35) rotate(-1)"/><ellipse class="cls-2" cx="360.05" cy="469.9" rx="13.02" ry="13.46" transform="translate(-8.15 6.36) rotate(-1)"/><ellipse class="cls-2" cx="388.7" cy="614.7" rx="13.02" ry="13.46" transform="matrix(1, -0.02, 0.02, 1, -10.67, 6.88)"/><ellipse class="cls-2" cx="389.18" cy="587.77" rx="13.02" ry="13.46" transform="translate(-10.2 6.88) rotate(-1)"/><ellipse class="cls-2" cx="360.41" cy="802.7" rx="13.02" ry="13.46" transform="translate(-13.95 6.41) rotate(-1)"/><ellipse class="cls-2" cx="389.16" cy="491.64" rx="13.02" ry="13.46" transform="matrix(1, -0.02, 0.02, 1, -8.52, 6.87)"/><ellipse class="cls-2" cx="360.41" cy="521.33" rx="13.02" ry="13.46" transform="matrix(1, -0.02, 0.02, 1, -9.04, 6.37)"/><ellipse class="cls-2" cx="360.09" cy="874.32" rx="13.02" ry="13.46" transform="matrix(1, -0.02, 0.02, 1, -15.2, 6.42)"/><ellipse class="cls-2" cx="360.88" cy="548.25" rx="13.02" ry="13.46" transform="matrix(1, -0.02, 0.02, 1, -9.51, 6.38)"/><ellipse class="cls-3" cx="359.59" cy="902.7" rx="13.02" ry="13.46" transform="translate(-15.7 6.41) rotate(-1)"/><path class="cls-3" d="M380.91,400.91a12.71,12.71,0,0,0,18.35-1.51,13.79,13.79,0,0,0-1.48-19,12.71,12.71,0,0,0-18.35,1.51A13.79,13.79,0,0,0,380.91,400.91Z"/><ellipse class="cls-3" cx="360.18" cy="846.61" rx="13.02" ry="13.46" transform="translate(-14.72 6.41) rotate(-1)"/><ellipse class="cls-2" cx="359.63" cy="1180.87" rx="13.02" ry="13.46" transform="translate(-20.55 6.46) rotate(-1)"/><ellipse class="cls-2" cx="360.37" cy="1054.77" rx="13.02" ry="13.46" transform="translate(-18.35 6.45) rotate(-1)"/><ellipse class="cls-3" cx="359.76" cy="1153.94" rx="13.02" ry="13.46" transform="translate(-20.08 6.45) rotate(-1)"/><ellipse class="cls-3" cx="359.76" cy="1207.94" rx="13.02" ry="13.46" transform="translate(-21.03 6.46) rotate(-1)"/><ellipse class="cls-3" cx="359.96" cy="1001.66" rx="13.02" ry="13.46" transform="translate(-17.43 6.43) rotate(-1)"/><path class="cls-4" d="M139,654.15a7.49,7.49,0,0,1,2.86,2.45,5.81,5.81,0,0,1,1.06,3.36.33.33,0,0,1-.32.38l-2.3.16q-.26,0-.32-.51a4.66,4.66,0,0,0-4.93-4.42,6.64,6.64,0,0,0-4.94,2,11.6,11.6,0,0,0-2.82,4.91,21,21,0,0,0-.88,6q0,6.69,5.79,6.69a7.23,7.23,0,0,0,4-1.12,8.85,8.85,0,0,0,2.93-3.52q.1-.26.48-.1l1.89.51a.23.23,0,0,1,.13.22,1.25,1.25,0,0,1-.1.35,10.13,10.13,0,0,1-2.08,3,10.78,10.78,0,0,1-3.31,2.26,10.21,10.21,0,0,1-4.21.86,8.23,8.23,0,0,1-6.43-2.51,10,10,0,0,1-2.27-7,20.17,20.17,0,0,1,1.28-7.15,12.83,12.83,0,0,1,3.94-5.57,10.06,10.06,0,0,1,6.56-2.16A8.65,8.65,0,0,1,139,654.15Z"/><path class="cls-4" d="M146.78,675.66a7.25,7.25,0,0,1-1.9-5.26,11.1,11.1,0,0,1,1.26-5.31,9.63,9.63,0,0,1,3.41-3.71,8.63,8.63,0,0,1,4.67-1.34,6.72,6.72,0,0,1,5.15,2,7.55,7.55,0,0,1,1.89,5.38,11,11,0,0,1-1.23,5.23,9.36,9.36,0,0,1-3.38,3.65,8.76,8.76,0,0,1-4.7,1.33A6.86,6.86,0,0,1,146.78,675.66Zm8.59-1.1a7.05,7.05,0,0,0,2.32-3,11.33,11.33,0,0,0,.85-4.54,5.41,5.41,0,0,0-1.15-3.66,4.05,4.05,0,0,0-3.23-1.33,5.55,5.55,0,0,0-3.33,1.09,7.29,7.29,0,0,0-2.37,3,11.05,11.05,0,0,0-.86,4.51,5.31,5.31,0,0,0,1.17,3.63,4.14,4.14,0,0,0,3.28,1.33A5.57,5.57,0,0,0,155.37,674.55Z"/><path class="cls-4" d="M164,676.79l2.27-16.13a.49.49,0,0,1,.1-.26.31.31,0,0,1,.22-.06h2q.35,0,.26.35l-.26,1.82v.13q0,.19.26,0a14.85,14.85,0,0,1,3.12-1.94,7.58,7.58,0,0,1,3.09-.66,4.85,4.85,0,0,1,3.41,1.1,3.83,3.83,0,0,1,1.2,3q0,.26-.06.83l-1.7,12a.52.52,0,0,1-.13.34.57.57,0,0,1-.35.08H175.6q-.42,0-.32-.51l1.6-11.36a6.91,6.91,0,0,0,.06-.8q0-2.5-2.82-2.5a5.73,5.73,0,0,0-2.59.61,21,21,0,0,0-3.1,2l-1.73,12.13a.43.43,0,0,1-.14.3.65.65,0,0,1-.37.08h-1.82Q163.95,677.31,164,676.79Z"/><path class="cls-4" d="M184,676.62a5.05,5.05,0,0,1-2.42-2.64,1.3,1.3,0,0,1-.06-.22.29.29,0,0,1,.19-.26l1.25-.64.22-.06a.37.37,0,0,1,.32.22q1.28,2.66,4.86,2.66a8.62,8.62,0,0,0,2.14-.29,4.81,4.81,0,0,0,1.94-1,2.22,2.22,0,0,0,.82-1.78q0-1.6-2.82-2.4l-3.17-.9a6.49,6.49,0,0,1-2.91-1.5,3.14,3.14,0,0,1-.9-2.27,4.66,4.66,0,0,1,1-3,6.18,6.18,0,0,1,2.64-1.92,9.48,9.48,0,0,1,3.54-.66,7.72,7.72,0,0,1,3.7.83,5.49,5.49,0,0,1,2.32,2.27.5.5,0,0,1,.06.19.29.29,0,0,1-.19.26l-1.22.61a.35.35,0,0,1-.16,0c-.13,0-.25-.08-.35-.26a4,4,0,0,0-1.65-1.5,5.72,5.72,0,0,0-2.61-.54,6.3,6.3,0,0,0-3.09.78,2.41,2.41,0,0,0-1.42,2.19,1.65,1.65,0,0,0,.5,1.18,4.18,4.18,0,0,0,1.78.9l3.87,1.18a5.45,5.45,0,0,1,2.74,1.57,3.61,3.61,0,0,1,.91,2.43,4.34,4.34,0,0,1-1.1,3,6.79,6.79,0,0,1-2.82,1.87,10.25,10.25,0,0,1-3.54.62A8.84,8.84,0,0,1,184,676.62Z"/><path class="cls-4" d="M212.27,661.15a6.47,6.47,0,0,1,2.21,3,.36.36,0,0,1,0,.16c0,.11-.06.18-.19.22l-1.76.38h-.06a.19.19,0,0,1-.16-.11,2.09,2.09,0,0,1-.13-.27,6.5,6.5,0,0,0-1.68-1.94,3.52,3.52,0,0,0-2.06-.59,5.35,5.35,0,0,0-3.55,1.26,8,8,0,0,0-2.29,3.23,10.84,10.84,0,0,0-.78,4,5.38,5.38,0,0,0,1.22,3.74,4.3,4.3,0,0,0,3.36,1.34,5.27,5.27,0,0,0,2.8-.75,9,9,0,0,0,2.42-2.32c.06-.08.12-.13.16-.13a.56.56,0,0,1,.22.1l1.28.51a.33.33,0,0,1,.21.21.44.44,0,0,1,0,.34,9.65,9.65,0,0,1-3.1,2.91,8.18,8.18,0,0,1-4.26,1.12,6.69,6.69,0,0,1-5.09-2,7.34,7.34,0,0,1-1.89-5.28,11.5,11.5,0,0,1,1.14-5,9.74,9.74,0,0,1,3.23-3.86,8.28,8.28,0,0,1,4.88-1.47A6.37,6.37,0,0,1,212.27,661.15Z"/><path class="cls-4" d="M219.12,676.86q0,.32-.13.38a1,1,0,0,1-.45.06h-1.63q-.54,0-.48-.54l2.27-16.06a.55.55,0,0,1,.1-.29.37.37,0,0,1,.26-.06h2q.38,0,.32.48Zm2.94-20.1a.87.87,0,0,1-.18.43.62.62,0,0,1-.43.11h-2q-.48,0-.35-.61l.38-2.66q.06-.48.48-.48h2.08a.31.31,0,0,1,.29.16.54.54,0,0,1,0,.42Z"/><path class="cls-4" d="M226,675.66a7.25,7.25,0,0,1-1.9-5.26,11.1,11.1,0,0,1,1.26-5.31,9.63,9.63,0,0,1,3.41-3.71,8.63,8.63,0,0,1,4.67-1.34,6.72,6.72,0,0,1,5.15,2,7.55,7.55,0,0,1,1.89,5.38,11,11,0,0,1-1.23,5.23,9.36,9.36,0,0,1-3.38,3.65,8.76,8.76,0,0,1-4.7,1.33A6.86,6.86,0,0,1,226,675.66Zm8.59-1.1a7.05,7.05,0,0,0,2.32-3,11.33,11.33,0,0,0,.85-4.54,5.41,5.41,0,0,0-1.15-3.66,4.05,4.05,0,0,0-3.23-1.33,5.55,5.55,0,0,0-3.33,1.09,7.29,7.29,0,0,0-2.37,3,11.05,11.05,0,0,0-.86,4.51,5.31,5.31,0,0,0,1.17,3.63,4.14,4.14,0,0,0,3.28,1.33A5.57,5.57,0,0,0,234.6,674.55Z"/><path class="cls-4" d="M244.83,676.47a3.91,3.91,0,0,1-1.26-3,6.73,6.73,0,0,1,0-.77l1.7-11.9a.52.52,0,0,1,.13-.34.5.5,0,0,1,.32-.08h1.79a.4.4,0,0,1,.34.14.47.47,0,0,1,.08.37l-1.57,11.23a6.72,6.72,0,0,0-.06.7,2.42,2.42,0,0,0,2.75,2.72,5.64,5.64,0,0,0,2.7-.74,16.37,16.37,0,0,0,2.93-2.11l1.7-11.94a.43.43,0,0,1,.14-.3.65.65,0,0,1,.37-.08h1.76a.45.45,0,0,1,.35.14.44.44,0,0,1,.1.37L256.81,677a1,1,0,0,1-.11.26s-.11.06-.24.06H254.6q-.38,0-.35-.35l.26-1.79v-.1c0-.08,0-.13-.06-.13a.47.47,0,0,0-.26.13,14.79,14.79,0,0,1-3.28,2,7.38,7.38,0,0,1-2.77.56A4.72,4.72,0,0,1,244.83,676.47Z"/><path class="cls-4" d="M263,676.62a5.05,5.05,0,0,1-2.42-2.64,1.3,1.3,0,0,1-.06-.22.29.29,0,0,1,.19-.26l1.25-.64.22-.06a.37.37,0,0,1,.32.22q1.28,2.66,4.86,2.66a8.62,8.62,0,0,0,2.14-.29,4.81,4.81,0,0,0,1.94-1,2.22,2.22,0,0,0,.82-1.78q0-1.6-2.82-2.4l-3.17-.9a6.49,6.49,0,0,1-2.91-1.5,3.14,3.14,0,0,1-.9-2.27,4.66,4.66,0,0,1,1-3,6.18,6.18,0,0,1,2.64-1.92,9.48,9.48,0,0,1,3.54-.66,7.72,7.72,0,0,1,3.7.83,5.49,5.49,0,0,1,2.32,2.27.5.5,0,0,1,.06.19.29.29,0,0,1-.19.26l-1.22.61a.35.35,0,0,1-.16,0c-.13,0-.25-.08-.35-.26a4,4,0,0,0-1.65-1.5,5.72,5.72,0,0,0-2.61-.54,6.3,6.3,0,0,0-3.09.78,2.41,2.41,0,0,0-1.42,2.19,1.65,1.65,0,0,0,.5,1.18,4.18,4.18,0,0,0,1.78.9l3.87,1.18a5.45,5.45,0,0,1,2.74,1.57,3.61,3.61,0,0,1,.91,2.43,4.34,4.34,0,0,1-1.1,3,6.79,6.79,0,0,1-2.82,1.87,10.25,10.25,0,0,1-3.54.62A8.84,8.84,0,0,1,263,676.62Z"/><path class="cls-4" d="M487.38,656.22a7.06,7.06,0,0,0-3.09-.62,6.59,6.59,0,0,0-4.16,1.26,4,4,0,0,0-1.63,3.34,2.68,2.68,0,0,0,.69,1.73,5.19,5.19,0,0,0,2.22,1.41l4.45,1.63a8.52,8.52,0,0,1,3.49,2.14,4.51,4.51,0,0,1,1.09,3.07,6.74,6.74,0,0,1-1.22,4,7.45,7.45,0,0,1-3.34,2.56,12.7,12.7,0,0,1-4.82.86,10.52,10.52,0,0,1-4.93-1,7.6,7.6,0,0,1-3.14-3.09.6.6,0,0,1-.06-.32.46.46,0,0,1,.26-.38l1.22-.77a.55.55,0,0,1,.35-.13.54.54,0,0,1,.45.29,10.39,10.39,0,0,0,1.55,1.82,4.89,4.89,0,0,0,1.82,1,9.19,9.19,0,0,0,2.7.34,7.75,7.75,0,0,0,4.48-1.15,3.93,3.93,0,0,0,1.66-3.46,2.46,2.46,0,0,0-.7-1.76,6.87,6.87,0,0,0-2.46-1.41l-4.61-1.76a6.46,6.46,0,0,1-3.1-2.11,5,5,0,0,1-1-3,6.58,6.58,0,0,1,1.18-3.89,7.8,7.8,0,0,1,3.22-2.61,10.7,10.7,0,0,1,4.5-.93,9.56,9.56,0,0,1,4.19.86,7.92,7.92,0,0,1,2.94,2.4.64.64,0,0,1,.19.35.27.27,0,0,1-.16.22L490,658.19a.18.18,0,0,1-.13,0q-.13,0-.45-.35A5.8,5.8,0,0,0,487.38,656.22Z"/><path class="cls-4" d="M496.48,676.88a.58.58,0,0,1-.13.37.71.71,0,0,1-.42.08h-1.66q-.54,0-.48-.54l3.26-22.85a.54.54,0,0,1,.1-.29.37.37,0,0,1,.26-.06h2q.38,0,.29.45Z"/><path class="cls-4" d="M504.83,676.75a6.21,6.21,0,0,1-2.48-2.53,7.83,7.83,0,0,1-.88-3.78,11.53,11.53,0,0,1,1.15-5.06,9.79,9.79,0,0,1,3.26-3.87,8.35,8.35,0,0,1,4.9-1.47,6.56,6.56,0,0,1,4.93,1.84A7.05,7.05,0,0,1,517.5,667a12.73,12.73,0,0,1-.13,1.86.61.61,0,0,1-.67.54H504.58c-.17,0-.29.11-.35.32a4.47,4.47,0,0,0-.1,1.12,4.59,4.59,0,0,0,1.33,3.44,4.67,4.67,0,0,0,3.41,1.3,6.58,6.58,0,0,0,5.41-2.69.37.37,0,0,1,.26-.13.43.43,0,0,1,.26.1l1.22.67a.34.34,0,0,1,.13.54,9.75,9.75,0,0,1-3.38,2.72,9.9,9.9,0,0,1-4.18.83A7.54,7.54,0,0,1,504.83,676.75Zm9.44-9a.57.57,0,0,0,.53-.3,2.51,2.51,0,0,0,.18-1.14,4.36,4.36,0,0,0-1.14-3.12,4.05,4.05,0,0,0-3.09-1.2,5.68,5.68,0,0,0-3,.82,6.39,6.39,0,0,0-2.16,2.14,7,7,0,0,0-1,2.8Z"/><path class="cls-4" d="M523.42,676.75a6.21,6.21,0,0,1-2.48-2.53,7.83,7.83,0,0,1-.88-3.78,11.53,11.53,0,0,1,1.15-5.06,9.79,9.79,0,0,1,3.26-3.87,8.35,8.35,0,0,1,4.9-1.47,6.56,6.56,0,0,1,4.93,1.84A7.05,7.05,0,0,1,536.1,667a12.73,12.73,0,0,1-.13,1.86.61.61,0,0,1-.67.54H523.17c-.17,0-.29.11-.35.32a4.47,4.47,0,0,0-.1,1.12A4.59,4.59,0,0,0,524,674.3a4.67,4.67,0,0,0,3.41,1.3,6.58,6.58,0,0,0,5.41-2.69.37.37,0,0,1,.26-.13.43.43,0,0,1,.26.1l1.22.67a.34.34,0,0,1,.13.54,9.75,9.75,0,0,1-3.38,2.72,9.9,9.9,0,0,1-4.18.83A7.54,7.54,0,0,1,523.42,676.75Zm9.44-9a.57.57,0,0,0,.53-.3,2.51,2.51,0,0,0,.18-1.14,4.36,4.36,0,0,0-1.14-3.12,4.05,4.05,0,0,0-3.09-1.2,5.68,5.68,0,0,0-3,.82,6.39,6.39,0,0,0-2.16,2.14,7,7,0,0,0-1,2.8Z"/><path class="cls-4" d="M537.89,682.13l3-21.34a.6.6,0,0,1,.11-.34.63.63,0,0,1,.4-.08h1.66c.32,0,.47.15.45.45l-.22,1.38v.06c0,.09,0,.13.1.13a.64.64,0,0,0,.35-.19l.85-.7a6.05,6.05,0,0,1,1.89-1A7.33,7.33,0,0,1,549,660a5.8,5.8,0,0,1,4.4,1.73,7,7,0,0,1,1.65,5,14.08,14.08,0,0,1-1,5.14A9.91,9.91,0,0,1,551.1,676a7.18,7.18,0,0,1-4.74,1.62,6.32,6.32,0,0,1-2.54-.48,5.23,5.23,0,0,1-1.81-1.25.79.79,0,0,0-.29-.16c-.15,0-.27.19-.35.58l-.8,6a1,1,0,0,1-.11.26s-.11.06-.24.06h-2Q537.82,682.61,537.89,682.13Zm11.38-7.78a8.52,8.52,0,0,0,2.26-3.39,11.77,11.77,0,0,0,.77-4.16,4.93,4.93,0,0,0-1.18-3.6A4.13,4.13,0,0,0,548,662a5.33,5.33,0,0,0-2.45.58,5.67,5.67,0,0,0-1.86,1.46,3.62,3.62,0,0,0-.85,1.74l-1.15,7.87a6.29,6.29,0,0,0,1.82,1.54,4.48,4.48,0,0,0,2.14.51A5.14,5.14,0,0,0,549.26,674.35Z"/><path class="cls-4" d="M560.42,676.88c0,.21-.06.34-.13.38a1,1,0,0,1-.45.06h-1.63q-.54,0-.48-.54L560,660.72a.54.54,0,0,1,.1-.29.37.37,0,0,1,.26-.06h2q.38,0,.32.48Zm2.94-20.1a.88.88,0,0,1-.18.43.62.62,0,0,1-.43.11h-2q-.48,0-.35-.61l.38-2.66q.06-.48.48-.48h2.08a.31.31,0,0,1,.29.16.54.54,0,0,1,0,.42Z"/><path class="cls-4" d="M565.38,676.81l2.27-16.13a.48.48,0,0,1,.1-.26.31.31,0,0,1,.22-.06h2c.23,0,.32.12.26.35l-.26,1.82v.13q0,.19.26,0a14.85,14.85,0,0,1,3.12-1.94,7.58,7.58,0,0,1,3.09-.66,4.85,4.85,0,0,1,3.41,1.1,3.83,3.83,0,0,1,1.2,3q0,.26-.06.83l-1.7,12a.52.52,0,0,1-.13.34.56.56,0,0,1-.35.08H577q-.42,0-.32-.51l1.6-11.36a6.82,6.82,0,0,0,.06-.8q0-2.5-2.82-2.5a5.72,5.72,0,0,0-2.59.61,21,21,0,0,0-3.1,2l-1.73,12.13a.43.43,0,0,1-.14.3.64.64,0,0,1-.37.08h-1.82C565.45,677.33,565.33,677.16,565.38,676.81Z"/><path class="cls-4" d="M584,681.84a3.31,3.31,0,0,1-2-3,3.47,3.47,0,0,1,.91-2.35,6.53,6.53,0,0,1,2.45-1.68.61.61,0,0,0,.32-.21c0-.07,0-.14-.16-.21a2.82,2.82,0,0,1-.85-.74,1.56,1.56,0,0,1-.27-.93,2,2,0,0,1,.8-1.58,6.58,6.58,0,0,1,2-1.07.44.44,0,0,0,.32-.21c0-.1,0-.17-.13-.21a3.76,3.76,0,0,1-2.21-3.49,5.29,5.29,0,0,1,1-3.31,6.49,6.49,0,0,1,2.75-2.06,9.71,9.71,0,0,1,3.73-.7q3.39,0,5,1.54a.31.31,0,0,0,.22.1c.13,0,.3-.11.51-.32a7.17,7.17,0,0,1,1.55-.94,3.9,3.9,0,0,1,1.58-.4q.74,0,.64.51l-.13,1.09a.93.93,0,0,1-.18.46.56.56,0,0,1-.4.11,5.3,5.3,0,0,0-1.79.32,2.29,2.29,0,0,0-.74.37.36.36,0,0,0-.1.43,4.55,4.55,0,0,1,.29,1.54,4.83,4.83,0,0,1-1.07,3.18,6.35,6.35,0,0,1-2.8,1.92,10.76,10.76,0,0,1-3.68.62,15.81,15.81,0,0,0-3,.3q-1.57.3-1.57,1.2,0,.42.62.62a9.28,9.28,0,0,0,2.1.3l4.06.22q5,.29,5,4a4.45,4.45,0,0,1-2.69,4.27,14.63,14.63,0,0,1-6.53,1.33A11.61,11.61,0,0,1,584,681.84Zm10.35-1.42a2.88,2.88,0,0,0,1.87-2.8,1.72,1.72,0,0,0-.64-1.47,4.25,4.25,0,0,0-2.21-.58l-5.22-.32a6.21,6.21,0,0,0-2.61,1.2,2.6,2.6,0,0,0-1,2.1q0,2.72,5.15,2.72A11.38,11.38,0,0,0,594.38,680.41Zm.93-12.53a3.73,3.73,0,0,0,1.42-3.2,2.5,2.5,0,0,0-1-2.13,4.91,4.91,0,0,0-3-.75,5.65,5.65,0,0,0-3.6,1.17,3.86,3.86,0,0,0-1.49,3.22,2.32,2.32,0,0,0,1.06,2,5.25,5.25,0,0,0,3,.72A5.88,5.88,0,0,0,595.31,667.89Z"/><path class="cls-4" d="M277.87,174.87a.19.19,0,0,1-.15-.06.26.26,0,0,1,0-.17V158.76a.25.25,0,0,1,0-.18.21.21,0,0,1,.15,0h.57a.38.38,0,0,1,.19,0,.29.29,0,0,1,.1.14l5.87,14.74q.09.22.18.21c.06,0,.12-.08.18-.23l6-14.74a.24.24,0,0,1,.24-.15h.64a.22.22,0,0,1,.15,0,.25.25,0,0,1,0,.18v15.88a.26.26,0,0,1,0,.17.19.19,0,0,1-.15.06h-.59a.26.26,0,0,1-.17,0,.19.19,0,0,1-.06-.15v-13.6s0-.06,0-.06a.12.12,0,0,0,0,.06l-5.48,13.55a.36.36,0,0,1-.12.19.39.39,0,0,1-.23.06h-.59q-.33,0-.42-.22l-5.37-13.46a.12.12,0,0,0,0-.05s0,0,0,.05v13.49a.19.19,0,0,1-.06.15.26.26,0,0,1-.17,0Z"/><path class="cls-4" d="M305.76,172.19a5.09,5.09,0,0,1-1.88,2.13,5.56,5.56,0,0,1-5.61,0,5,5,0,0,1-1.87-2.11,7,7,0,0,1-.66-3.11,7.18,7.18,0,0,1,.67-3.17,5.2,5.2,0,0,1,1.89-2.17,5.4,5.4,0,0,1,5.58,0,5.15,5.15,0,0,1,1.88,2.16,7.13,7.13,0,0,1,.67,3.15A7.06,7.06,0,0,1,305.76,172.19Zm-8.55-.42a4.14,4.14,0,0,0,3.92,2.47,3.94,3.94,0,0,0,3.2-1.42,5.72,5.72,0,0,0,1.18-3.77,6.52,6.52,0,0,0-.54-2.74,4.27,4.27,0,0,0-1.54-1.84,4.45,4.45,0,0,0-4.66,0,4.33,4.33,0,0,0-1.55,1.85,6.43,6.43,0,0,0-.55,2.73A6.35,6.35,0,0,0,297.21,171.77Z"/><path class="cls-4" d="M309.86,174.87a.19.19,0,0,1-.2-.2V163.4a.22.22,0,0,1,0-.15.18.18,0,0,1,.13,0h.46a.16.16,0,0,1,.18.18v1.36c0,.07,0,.12,0,.13s.07,0,.13-.07a16.74,16.74,0,0,1,2.29-1.42,4.58,4.58,0,0,1,2-.41,3.68,3.68,0,0,1,2.64.88,3.1,3.1,0,0,1,.92,2.35v8.43c0,.15-.07.22-.2.22h-.48a.19.19,0,0,1-.2-.2v-8.1a2.88,2.88,0,0,0-.66-2,2.68,2.68,0,0,0-2-.7,4.34,4.34,0,0,0-2,.45,16.72,16.72,0,0,0-2.37,1.57v8.82a.22.22,0,0,1,0,.14.19.19,0,0,1-.15.06Z"/><path class="cls-4" d="M330.74,174.87a.2.2,0,0,1-.16-.07.26.26,0,0,1-.06-.18V173.5c0-.12,0-.18-.07-.2s-.11,0-.2.11a7.74,7.74,0,0,1-1.43,1.16,4,4,0,0,1-2.16.52,5.12,5.12,0,0,1-2.58-.66,4.62,4.62,0,0,1-1.83-2,7,7,0,0,1-.67-3.2,7.74,7.74,0,0,1,.66-3.28,4.94,4.94,0,0,1,4.69-3,4.35,4.35,0,0,1,1.8.33,7.68,7.68,0,0,1,1.43.86c.13.1.22.14.25.11s.06-.12.06-.26v-5.26c0-.15.07-.22.2-.22h.51a.16.16,0,0,1,.13.06.22.22,0,0,1,0,.14V174.6a.21.21,0,0,1-.26.26Zm-.26-9.37a6.4,6.4,0,0,0-1.69-1.25,4.31,4.31,0,0,0-4.12.23,4.38,4.38,0,0,0-1.57,1.86,6.58,6.58,0,0,0-.57,2.84,6.15,6.15,0,0,0,.58,2.82,4,4,0,0,0,1.55,1.71,4.18,4.18,0,0,0,2.13.56,3.62,3.62,0,0,0,1.86-.49,4.09,4.09,0,0,0,1.34-1.22,2.51,2.51,0,0,0,.5-1.41Z"/><path class="cls-4" d="M342.47,173.2s-.08,0-.14.08a5.74,5.74,0,0,1-4.18,1.8,4.07,4.07,0,0,1-2.74-.86,2.91,2.91,0,0,1-1-2.33,3.07,3.07,0,0,1,.6-1.9,4,4,0,0,1,1.81-1.28,10.9,10.9,0,0,1,3-.63l2.31-.2q.37,0,.37-.33v-.68a2.9,2.9,0,0,0-.89-2.23,3.38,3.38,0,0,0-2.39-.82,4.13,4.13,0,0,0-2,.51,5.28,5.28,0,0,0-1.66,1.52.33.33,0,0,1-.1.1.11.11,0,0,1-.12,0l-.53-.33a.19.19,0,0,1-.06-.09s0-.07.06-.13a5.67,5.67,0,0,1,1.87-1.75,5.14,5.14,0,0,1,2.62-.65,4.27,4.27,0,0,1,3,1,3.58,3.58,0,0,1,1.12,2.78v7.85a.22.22,0,0,1-.06.18.26.26,0,0,1-.17,0h-.4a.16.16,0,0,1-.2-.2l0-1.34C342.54,173.25,342.51,173.21,342.47,173.2Zm.05-4.19a.35.35,0,0,0-.08-.25.26.26,0,0,0-.23-.06l-2,.15a11.56,11.56,0,0,0-2.81.51,3.55,3.55,0,0,0-1.61,1,2.22,2.22,0,0,0-.52,1.47,2.15,2.15,0,0,0,.8,1.77,3.31,3.31,0,0,0,2.15.65,4.55,4.55,0,0,0,1.57-.29,5.07,5.07,0,0,0,1.42-.79,3.77,3.77,0,0,0,.94-1,2.05,2.05,0,0,0,.32-1Z"/><path class="cls-4" d="M349.66,177.69a2.59,2.59,0,0,1-1,.62,4.17,4.17,0,0,1-1.3.19q-.84,0-1.12,0c-.19,0-.29-.08-.29-.19v-.33a.19.19,0,0,1,.12-.2,1.88,1.88,0,0,1,.52,0h1.32a1.55,1.55,0,0,0,1.2-.65,3.8,3.8,0,0,0,.76-1.53,2.51,2.51,0,0,0,0-1.47l-4.16-10.58a.24.24,0,0,1,0-.19c0-.05.08-.08.19-.08h.46a.32.32,0,0,1,.18,0,.22.22,0,0,1,.09.13l3.83,9.77q.09.2.2.19c.07,0,.14-.1.2-.28l3.74-9.7a.23.23,0,0,1,.22-.15h.48a.18.18,0,0,1,.14.07.1.1,0,0,1,0,.13l-5,13.16A3.29,3.29,0,0,1,349.66,177.69Z"/><path class="cls-4" d="M277.49,1214.14a.27.27,0,0,1,0-.18.22.22,0,0,1,.16,0H287a.14.14,0,0,1,.16.16v.6a.18.18,0,0,1,0,.13.22.22,0,0,1-.15,0h-8.23a.28.28,0,0,0-.16,0s0,.08,0,.17v7a.15.15,0,0,0,0,.13.28.28,0,0,0,.16,0h6.88a.14.14,0,0,1,.16.16v.6a.18.18,0,0,1,0,.13.22.22,0,0,1-.15,0h-6.85a.28.28,0,0,0-.16,0s0,.08,0,.17v7.5a.13.13,0,0,1-.16.16h-.69a.22.22,0,0,1-.16,0,.27.27,0,0,1,0-.18Z"/><path class="cls-4" d="M289.42,1231a.2.2,0,0,1-.21-.21V1219q0-.21.18-.21h.48a.14.14,0,0,1,.18.18v1.56c0,.08,0,.12,0,.14s.08,0,.14-.07a8.3,8.3,0,0,1,1.87-1.58,3.59,3.59,0,0,1,1.78-.47q.8,0,.8.23v.6a.12.12,0,0,1-.11.11h-.69a3.63,3.63,0,0,0-1.63.46,5,5,0,0,0-1.52,1.18,2.25,2.25,0,0,0-.62,1.46v8.19a.23.23,0,0,1,0,.15.19.19,0,0,1-.16.06Z"/><path class="cls-4" d="M298.36,1214a.29.29,0,0,1,.08.22v1.59a.53.53,0,0,1-.06.28.24.24,0,0,1-.22.09h-.62a.22.22,0,0,1-.2-.08.41.41,0,0,1-.06-.24v-1.63a.29.29,0,0,1,.08-.22.26.26,0,0,1,.2-.08h.6A.27.27,0,0,1,298.36,1214Zm-.08,4.84a.27.27,0,0,1,0,.18v11.68a.37.37,0,0,1,0,.22s-.11.06-.23.06h-.39a.31.31,0,0,1-.21,0,.26.26,0,0,1,0-.18V1219a.26.26,0,0,1,0-.18.22.22,0,0,1,.16,0h.51A.23.23,0,0,1,298.28,1218.83Z"/><path class="cls-4" d="M311.3,1231a.21.21,0,0,1-.17-.07.28.28,0,0,1-.06-.18v-1.17c0-.12,0-.19-.07-.21s-.12,0-.21.11a8.09,8.09,0,0,1-1.5,1.21,4.16,4.16,0,0,1-2.25.54,5.35,5.35,0,0,1-2.7-.69,4.83,4.83,0,0,1-1.91-2.06,7.26,7.26,0,0,1-.7-3.35,8.1,8.1,0,0,1,.69-3.43,5.16,5.16,0,0,1,4.9-3.13,4.56,4.56,0,0,1,1.89.34,8.07,8.07,0,0,1,1.49.9c.14.11.23.15.26.12s.06-.12.06-.28v-5.5q0-.23.21-.23h.53a.17.17,0,0,1,.14.06.23.23,0,0,1,0,.15v16.58a.22.22,0,0,1-.28.28Zm-.28-9.8a6.69,6.69,0,0,0-1.77-1.31,4.5,4.5,0,0,0-4.31.24,4.58,4.58,0,0,0-1.64,1.94,6.87,6.87,0,0,0-.6,3,6.43,6.43,0,0,0,.61,2.94,4.18,4.18,0,0,0,1.62,1.78,4.37,4.37,0,0,0,2.23.59,3.78,3.78,0,0,0,1.94-.52,4.27,4.27,0,0,0,1.4-1.28,2.62,2.62,0,0,0,.52-1.47Z"/><path class="cls-4" d="M323.57,1229.24s-.09,0-.15.08a6,6,0,0,1-4.37,1.89,4.26,4.26,0,0,1-2.86-.9,3,3,0,0,1-1-2.44,3.21,3.21,0,0,1,.63-2,4.23,4.23,0,0,1,1.9-1.33,11.43,11.43,0,0,1,3.15-.66l2.42-.21q.39,0,.39-.35v-.71a3,3,0,0,0-.93-2.33,3.53,3.53,0,0,0-2.5-.86,4.31,4.31,0,0,0-2.13.53,5.52,5.52,0,0,0-1.74,1.59.33.33,0,0,1-.1.1.11.11,0,0,1-.13,0l-.55-.35a.2.2,0,0,1-.06-.09s0-.08.06-.14a5.93,5.93,0,0,1,2-1.83,5.37,5.37,0,0,1,2.74-.68,4.46,4.46,0,0,1,3.13,1.07,3.74,3.74,0,0,1,1.17,2.91v8.21a.23.23,0,0,1-.06.18.27.27,0,0,1-.17,0h-.41a.17.17,0,0,1-.21-.21l0-1.4C323.63,1229.29,323.6,1229.24,323.57,1229.24Zm.06-4.38a.37.37,0,0,0-.08-.26.27.27,0,0,0-.24-.06l-2,.16a12.06,12.06,0,0,0-2.93.53,3.71,3.71,0,0,0-1.68,1,2.32,2.32,0,0,0-.54,1.54,2.25,2.25,0,0,0,.84,1.85,3.46,3.46,0,0,0,2.24.68,4.75,4.75,0,0,0,1.64-.3,5.3,5.3,0,0,0,1.48-.83,3.93,3.93,0,0,0,1-1.07,2.14,2.14,0,0,0,.33-1.09Z"/><path class="cls-4" d="M331.08,1233.93a2.7,2.7,0,0,1-1.06.64,4.37,4.37,0,0,1-1.36.2q-.87,0-1.17,0c-.2,0-.3-.09-.3-.2v-.34a.19.19,0,0,1,.13-.21,1.93,1.93,0,0,1,.54,0h1.38a1.62,1.62,0,0,0,1.25-.68,4,4,0,0,0,.79-1.6,2.62,2.62,0,0,0,0-1.54l-4.35-11.06a.25.25,0,0,1,0-.2c0-.05.09-.08.2-.08h.48a.33.33,0,0,1,.18,0,.23.23,0,0,1,.09.14l4,10.21q.09.21.21.2c.08,0,.15-.1.21-.29l3.91-10.14a.24.24,0,0,1,.23-.16h.51a.19.19,0,0,1,.15.07.11.11,0,0,1,0,.14l-5.27,13.75A3.44,3.44,0,0,1,331.08,1233.93Z"/><path class="cls-4" d="M52.14,33.14a5.88,5.88,0,0,0-2.59-.52,5,5,0,0,0-3,.81,2.62,2.62,0,0,0-1.08,2.22q0,1.88,2.67,2.78l4.1,1.28q4.64,1.45,4.64,5.46a5.1,5.1,0,0,1-2,4.26A8.76,8.76,0,0,1,49.35,51a11,11,0,0,1-4.59-.9,7.05,7.05,0,0,1-3.08-2.57.93.93,0,0,1-.11-.27.52.52,0,0,1,.27-.41l1.34-.93a.82.82,0,0,1,.44-.16.4.4,0,0,1,.33.19,7.45,7.45,0,0,0,2.23,2,6.29,6.29,0,0,0,3,.6,6.36,6.36,0,0,0,3.33-.74,2.5,2.5,0,0,0,1.2-2.29,2.35,2.35,0,0,0-.61-1.65,5.63,5.63,0,0,0-2.22-1.24l-4.12-1.34a6.78,6.78,0,0,1-3.32-2.16A5,5,0,0,1,42.31,36a5.28,5.28,0,0,1,.9-3,5.84,5.84,0,0,1,2.53-2,9.15,9.15,0,0,1,3.75-.72,9.51,9.51,0,0,1,3.81.74,7.52,7.52,0,0,1,2.8,2,.42.42,0,0,1,.14.3.34.34,0,0,1-.14.27l-1.56,1.2a.37.37,0,0,1-.22.08c-.05,0-.16-.08-.33-.25A5.88,5.88,0,0,0,52.14,33.14Z"/><path class="cls-4" d="M62.69,50.06a6.39,6.39,0,0,1-2.47-2.63,8.26,8.26,0,0,1-.87-3.85,8.43,8.43,0,0,1,.9-3.94,6.61,6.61,0,0,1,2.5-2.69,7.43,7.43,0,0,1,7.32,0,6.54,6.54,0,0,1,2.47,2.69,8.49,8.49,0,0,1,.87,3.9,8.17,8.17,0,0,1-.89,3.85A6.58,6.58,0,0,1,70,50a7,7,0,0,1-3.67,1A7.09,7.09,0,0,1,62.69,50.06Zm6.7-2.54a6.65,6.65,0,0,0,1.06-4,6.71,6.71,0,0,0-1.08-4.05,3.51,3.51,0,0,0-3-1.46,3.55,3.55,0,0,0-3,1.46,6.65,6.65,0,0,0-1.09,4.05,6.53,6.53,0,0,0,1.09,4,3.58,3.58,0,0,0,3,1.45A3.5,3.5,0,0,0,69.39,47.52Z"/><path class="cls-4" d="M76.46,50.29V36.67q0-.41.35-.41h2.13q.33,0,.33.35v1.5c0,.11,0,.17.08.19s.12,0,.19-.11A12.64,12.64,0,0,1,82,36.52,5.2,5.2,0,0,1,84.32,36a4.26,4.26,0,0,1,2.48.68,3.71,3.71,0,0,1,1.39,1.77q.05.08.11.08a.38.38,0,0,0,.25-.14A11.89,11.89,0,0,1,91,36.6,5.23,5.23,0,0,1,93.47,36a4.09,4.09,0,0,1,3.07,1.13,4.25,4.25,0,0,1,1.11,3.1v10a.43.43,0,0,1-.49.49h-2a.38.38,0,0,1-.3-.1.53.53,0,0,1-.08-.34V40.73a2.74,2.74,0,0,0-.6-1.9,2.3,2.3,0,0,0-1.8-.67,5.35,5.35,0,0,0-3.49,1.72,1.32,1.32,0,0,0-.27.37,1,1,0,0,0-.08.42v9.56a.43.43,0,0,1-.49.49H86q-.41,0-.41-.44V40.73a2.79,2.79,0,0,0-.59-1.9,2.29,2.29,0,0,0-1.82-.67,3.66,3.66,0,0,0-1.83.48,11.37,11.37,0,0,0-2,1.57v10a.45.45,0,0,1-.12.35.59.59,0,0,1-.4.11H76.9A.39.39,0,0,1,76.46,50.29Z"/><path class="cls-4" d="M104.1,46.73a4.37,4.37,0,0,0,1.6,1.58,4.32,4.32,0,0,0,2.21.59,4.72,4.72,0,0,0,2.24-.52,5.49,5.49,0,0,0,1.8-1.61.24.24,0,0,1,.19-.11.39.39,0,0,1,.22.05l1.39.66a.25.25,0,0,1,.14.22.47.47,0,0,1-.08.22,7.12,7.12,0,0,1-2.62,2.44,7.82,7.82,0,0,1-3.58.75,7.19,7.19,0,0,1-3.66-.93,6.47,6.47,0,0,1-2.51-2.61,7.93,7.93,0,0,1-.9-3.81,8.48,8.48,0,0,1,.93-4A6.68,6.68,0,0,1,104,36.92a7.37,7.37,0,0,1,7.11-.05,5.92,5.92,0,0,1,2.36,2.58,9,9,0,0,1,.83,4v.11a.79.79,0,0,1-.07.37c0,.08-.16.12-.34.12h-10.1c-.18,0-.27.15-.27.44A4.3,4.3,0,0,0,104.1,46.73ZM111,42.34a.59.59,0,0,0,.37-.08.38.38,0,0,0,.1-.3,4.51,4.51,0,0,0-.45-2,3.58,3.58,0,0,0-3.34-2,3.81,3.81,0,0,0-2.16.61A4.15,4.15,0,0,0,104,40.15a4.49,4.49,0,0,0-.48,2.17Z"/><path class="cls-4" d="M125.87,36.69v1.06c0,.15,0,.22.11.22a.68.68,0,0,0,.25-.14A8.11,8.11,0,0,1,128,36.5,5,5,0,0,1,130.4,36a5.61,5.61,0,0,1,3,.82,5.55,5.55,0,0,1,2.09,2.46,9.52,9.52,0,0,1,.76,4,10.35,10.35,0,0,1-.76,4.19,5.75,5.75,0,0,1-2.16,2.62,5.86,5.86,0,0,1-3.22.89,5.62,5.62,0,0,1-3.79-1.36.63.63,0,0,0-.33-.19c-.09,0-.14.12-.14.35v5.05q0,.38-.33.38h-2.21q-.35,0-.35-.38V36.75a.49.49,0,0,1,.12-.38.59.59,0,0,1,.4-.11h1.91Q125.87,36.26,125.87,36.69Zm1.6,11.92a3.73,3.73,0,0,0,1.76.42,3.55,3.55,0,0,0,3-1.46,7,7,0,0,0,1.11-4.27,6.23,6.23,0,0,0-1.09-4,3.55,3.55,0,0,0-2.87-1.31,3.78,3.78,0,0,0-1.79.42,3.36,3.36,0,0,0-1.26,1.09,2.37,2.37,0,0,0-.45,1.32v6.58A6.41,6.41,0,0,0,127.47,48.61Z"/><path class="cls-4" d="M142.18,46.73a4.37,4.37,0,0,0,1.6,1.58,4.32,4.32,0,0,0,2.21.59,4.72,4.72,0,0,0,2.24-.52,5.49,5.49,0,0,0,1.8-1.61.24.24,0,0,1,.19-.11.39.39,0,0,1,.22.05l1.39.66a.25.25,0,0,1,.14.22.47.47,0,0,1-.08.22,7.12,7.12,0,0,1-2.62,2.44,7.82,7.82,0,0,1-3.58.75,7.19,7.19,0,0,1-3.66-.93,6.47,6.47,0,0,1-2.51-2.61,7.93,7.93,0,0,1-.9-3.81,8.48,8.48,0,0,1,.93-4,6.68,6.68,0,0,1,2.52-2.69,7.37,7.37,0,0,1,7.11-.05,5.92,5.92,0,0,1,2.36,2.58,9,9,0,0,1,.83,4v.11a.79.79,0,0,1-.07.37c0,.08-.16.12-.34.12h-10.1c-.18,0-.27.15-.27.44A4.3,4.3,0,0,0,142.18,46.73ZM149,42.34a.59.59,0,0,0,.37-.08.38.38,0,0,0,.1-.3,4.51,4.51,0,0,0-.45-2,3.58,3.58,0,0,0-3.34-2,3.81,3.81,0,0,0-2.16.61,4.15,4.15,0,0,0-1.43,1.61,4.49,4.49,0,0,0-.48,2.17Z"/><path class="cls-4" d="M157.85,50.06a6.39,6.39,0,0,1-2.47-2.63,8.26,8.26,0,0,1-.87-3.85,8.43,8.43,0,0,1,.9-3.94,6.61,6.61,0,0,1,2.5-2.69,7.43,7.43,0,0,1,7.32,0,6.54,6.54,0,0,1,2.47,2.69,8.49,8.49,0,0,1,.87,3.9,8.17,8.17,0,0,1-.89,3.85A6.58,6.58,0,0,1,165.2,50a7,7,0,0,1-3.67,1A7.09,7.09,0,0,1,157.85,50.06Zm6.7-2.54a6.65,6.65,0,0,0,1.06-4,6.71,6.71,0,0,0-1.08-4.05,3.51,3.51,0,0,0-3-1.46,3.55,3.55,0,0,0-3,1.46,6.65,6.65,0,0,0-1.09,4.05,6.53,6.53,0,0,0,1.09,4,3.58,3.58,0,0,0,3,1.45A3.5,3.5,0,0,0,164.56,47.52Z"/><path class="cls-4" d="M174.52,36.69v1.06c0,.15,0,.22.11.22a.68.68,0,0,0,.25-.14,8.11,8.11,0,0,1,1.73-1.34,5,5,0,0,1,2.44-.52,5.61,5.61,0,0,1,3,.82,5.55,5.55,0,0,1,2.09,2.46,9.52,9.52,0,0,1,.76,4,10.35,10.35,0,0,1-.76,4.19A5.75,5.75,0,0,1,182,50.11a5.86,5.86,0,0,1-3.22.89A5.62,5.62,0,0,1,175,49.63a.63.63,0,0,0-.33-.19c-.09,0-.14.12-.14.35v5.05q0,.38-.33.38H172q-.35,0-.35-.38V36.75a.49.49,0,0,1,.12-.38.59.59,0,0,1,.4-.11h1.91Q174.52,36.26,174.52,36.69Zm1.6,11.92a3.73,3.73,0,0,0,1.76.42,3.55,3.55,0,0,0,3-1.46A7,7,0,0,0,182,43.3a6.23,6.23,0,0,0-1.09-4A3.55,3.55,0,0,0,178,37.95a3.78,3.78,0,0,0-1.79.42A3.36,3.36,0,0,0,175,39.46a2.37,2.37,0,0,0-.45,1.32v6.58A6.41,6.41,0,0,0,176.12,48.61Z"/><path class="cls-4" d="M191,50.21a.53.53,0,0,1-.12.41.69.69,0,0,1-.45.11h-1.86a.58.58,0,0,1-.38-.1.44.44,0,0,1-.11-.34l.05-19.41q0-.41.35-.41h2.16q.35,0,.35.41Z"/><path class="cls-4" d="M197.6,46.73a4.37,4.37,0,0,0,1.6,1.58,4.32,4.32,0,0,0,2.21.59,4.72,4.72,0,0,0,2.24-.52,5.49,5.49,0,0,0,1.8-1.61.24.24,0,0,1,.19-.11.39.39,0,0,1,.22.05l1.39.66a.25.25,0,0,1,.14.22.47.47,0,0,1-.08.22,7.12,7.12,0,0,1-2.62,2.44,7.82,7.82,0,0,1-3.58.75,7.19,7.19,0,0,1-3.66-.93,6.47,6.47,0,0,1-2.51-2.61,7.93,7.93,0,0,1-.9-3.81,8.48,8.48,0,0,1,.93-4,6.68,6.68,0,0,1,2.52-2.69,7.37,7.37,0,0,1,7.11-.05A5.92,5.92,0,0,1,207,39.45a9,9,0,0,1,.83,4v.11a.79.79,0,0,1-.07.37c0,.08-.16.12-.34.12h-10.1c-.18,0-.27.15-.27.44A4.3,4.3,0,0,0,197.6,46.73Zm6.87-4.38a.59.59,0,0,0,.37-.08.38.38,0,0,0,.1-.3,4.51,4.51,0,0,0-.45-2,3.58,3.58,0,0,0-3.34-2,3.81,3.81,0,0,0-2.16.61,4.15,4.15,0,0,0-1.43,1.61,4.49,4.49,0,0,0-.48,2.17Z"/><path class="cls-4" d="M241.47,36.41a.3.3,0,0,1,0,.31l-4.26,13.62a.49.49,0,0,1-.18.3.61.61,0,0,1-.34.08H235.1a.56.56,0,0,1-.63-.41L231.52,41c-.05-.16-.12-.25-.19-.25s-.11.08-.16.25l-2.87,9.39a.49.49,0,0,1-.18.3.61.61,0,0,1-.34.08h-1.69a.54.54,0,0,1-.6-.41l-4.34-13.57a.3.3,0,0,1,0-.14.36.36,0,0,1,.1-.25.33.33,0,0,1,.26-.11h2.13a.49.49,0,0,1,.49.35l3,9.72c.05.16.12.25.19.25s.14-.09.19-.27l2.95-9.72a.42.42,0,0,1,.46-.33h1.58a.43.43,0,0,1,.46.35L236,46.33c.05.16.12.25.19.25s.14-.09.19-.27l2.89-9.72a.51.51,0,0,1,.52-.33h1.39A.32.32,0,0,1,241.47,36.41Z"/><path class="cls-4" d="M246.39,46.73a4.37,4.37,0,0,0,1.6,1.58,4.32,4.32,0,0,0,2.21.59,4.72,4.72,0,0,0,2.24-.52,5.49,5.49,0,0,0,1.8-1.61.24.24,0,0,1,.19-.11.39.39,0,0,1,.22.05l1.39.66a.25.25,0,0,1,.14.22.47.47,0,0,1-.08.22,7.12,7.12,0,0,1-2.62,2.44,7.82,7.82,0,0,1-3.58.75,7.19,7.19,0,0,1-3.66-.93,6.47,6.47,0,0,1-2.51-2.61,7.93,7.93,0,0,1-.9-3.81,8.48,8.48,0,0,1,.93-4,6.68,6.68,0,0,1,2.52-2.69,7.37,7.37,0,0,1,7.11-.05,5.92,5.92,0,0,1,2.36,2.58,9,9,0,0,1,.83,4v.11a.79.79,0,0,1-.07.37c0,.08-.16.12-.34.12h-10.1c-.18,0-.27.15-.27.44A4.3,4.3,0,0,0,246.39,46.73Zm6.87-4.38a.59.59,0,0,0,.37-.08.38.38,0,0,0,.1-.3,4.51,4.51,0,0,0-.45-2,3.58,3.58,0,0,0-3.34-2,3.81,3.81,0,0,0-2.16.61,4.15,4.15,0,0,0-1.43,1.61,4.49,4.49,0,0,0-.48,2.17Z"/><path class="cls-4" d="M259.48,50.29V36.67q0-.41.35-.41h2.1q.33,0,.33.35v1.72c0,.11,0,.17.1.19s.13,0,.21-.11a8.34,8.34,0,0,1,2.09-1.8,4.19,4.19,0,0,1,2.12-.63q1,0,1,.38v2.13q0,.33-.3.27a6,6,0,0,0-1.45-.14,3.61,3.61,0,0,0-1.61.42,4.41,4.41,0,0,0-1.42,1.11,2.16,2.16,0,0,0-.57,1.39v8.71q0,.46-.52.46h-1.94A.39.39,0,0,1,259.48,50.29Z"/><path class="cls-4" d="M272.7,46.73a4.37,4.37,0,0,0,1.6,1.58,4.32,4.32,0,0,0,2.21.59,4.72,4.72,0,0,0,2.24-.52,5.49,5.49,0,0,0,1.8-1.61.24.24,0,0,1,.19-.11.39.39,0,0,1,.22.05l1.39.66a.25.25,0,0,1,.14.22.47.47,0,0,1-.08.22,7.12,7.12,0,0,1-2.62,2.44,7.82,7.82,0,0,1-3.58.75,7.19,7.19,0,0,1-3.66-.93A6.47,6.47,0,0,1,270,47.46a7.93,7.93,0,0,1-.9-3.81,8.48,8.48,0,0,1,.93-4,6.68,6.68,0,0,1,2.52-2.69,7.37,7.37,0,0,1,7.11-.05,5.92,5.92,0,0,1,2.36,2.58,9,9,0,0,1,.83,4v.11a.79.79,0,0,1-.07.37c0,.08-.16.12-.34.12h-10.1c-.18,0-.27.15-.27.44A4.3,4.3,0,0,0,272.7,46.73Zm6.87-4.38a.59.59,0,0,0,.37-.08.38.38,0,0,0,.1-.3,4.51,4.51,0,0,0-.45-2,3.58,3.58,0,0,0-3.34-2,3.81,3.81,0,0,0-2.16.61,4.15,4.15,0,0,0-1.43,1.61,4.49,4.49,0,0,0-.48,2.17Z"/><path class="cls-4" d="M301.38,37a6.31,6.31,0,0,1,2.21,2.62.55.55,0,0,1,.05.25c0,.11-.08.18-.25.22l-1.94.33h-.08c-.11,0-.2-.07-.27-.22a7,7,0,0,0-1.47-1.65,2.79,2.79,0,0,0-1.72-.53,3.63,3.63,0,0,0-3,1.45,6.47,6.47,0,0,0-1.12,4,6.41,6.41,0,0,0,1.15,4.07A3.76,3.76,0,0,0,298,49a3.57,3.57,0,0,0,2.12-.63,6.23,6.23,0,0,0,1.65-1.88.37.37,0,0,1,.16-.14.33.33,0,0,1,.22,0l1.45.44q.25.08.11.41a7,7,0,0,1-2.25,2.69,6.14,6.14,0,0,1-3.7,1.08,6.91,6.91,0,0,1-3.6-.94,6.51,6.51,0,0,1-2.47-2.63,8.91,8.91,0,0,1,0-7.78A6.66,6.66,0,0,1,297.78,36,6.23,6.23,0,0,1,301.38,37Z"/><path class="cls-4" d="M308.88,50.06a6.39,6.39,0,0,1-2.47-2.63,8.26,8.26,0,0,1-.87-3.85,8.43,8.43,0,0,1,.9-3.94,6.61,6.61,0,0,1,2.5-2.69,7.43,7.43,0,0,1,7.32,0,6.54,6.54,0,0,1,2.47,2.69,8.49,8.49,0,0,1,.87,3.9,8.17,8.17,0,0,1-.89,3.85A6.58,6.58,0,0,1,316.22,50a7,7,0,0,1-3.67,1A7.09,7.09,0,0,1,308.88,50.06Zm6.7-2.54a6.65,6.65,0,0,0,1.06-4,6.71,6.71,0,0,0-1.08-4.05,3.51,3.51,0,0,0-3-1.46,3.55,3.55,0,0,0-3,1.46,6.65,6.65,0,0,0-1.09,4.05,6.53,6.53,0,0,0,1.09,4,3.58,3.58,0,0,0,3,1.45A3.5,3.5,0,0,0,315.58,47.52Z"/><path class="cls-4" d="M322.65,50.29V36.67q0-.41.35-.41h2.13q.33,0,.33.35v1.5c0,.11,0,.17.08.19s.12,0,.19-.11a12.64,12.64,0,0,1,2.44-1.68,5.2,5.2,0,0,1,2.33-.53,4.26,4.26,0,0,1,2.48.68,3.71,3.71,0,0,1,1.39,1.77q.05.08.11.08a.38.38,0,0,0,.25-.14,11.89,11.89,0,0,1,2.46-1.79,5.23,5.23,0,0,1,2.46-.61,4.09,4.09,0,0,1,3.07,1.13,4.25,4.25,0,0,1,1.11,3.1v10a.43.43,0,0,1-.49.49h-2a.38.38,0,0,1-.3-.1.53.53,0,0,1-.08-.34V40.73a2.74,2.74,0,0,0-.6-1.9,2.3,2.3,0,0,0-1.8-.67A5.35,5.35,0,0,0,335,39.89a1.32,1.32,0,0,0-.27.37,1,1,0,0,0-.08.42v9.56a.43.43,0,0,1-.49.49h-2q-.41,0-.41-.44V40.73a2.79,2.79,0,0,0-.59-1.9,2.29,2.29,0,0,0-1.82-.67,3.66,3.66,0,0,0-1.83.48,11.37,11.37,0,0,0-2,1.57v10a.45.45,0,0,1-.12.35.59.59,0,0,1-.4.11h-1.94A.39.39,0,0,1,322.65,50.29Z"/><path class="cls-4" d="M355.13,36.61V38c0,.2-.12.3-.36.3h-2.84a.22.22,0,0,0-.25.25V50.29q0,.44-.35.44h-2.21c-.22,0-.33-.13-.33-.38V38.55c0-.15-.06-.22-.19-.22h-2.46q-.33,0-.33-.3V36.61a.31.31,0,0,1,.35-.35h2.35a.27.27,0,0,0,.22-.07.44.44,0,0,0,.05-.26V34a3.23,3.23,0,0,1,3.6-3.58h2.43a.36.36,0,0,1,.41.41l0,1.28a.31.31,0,0,1-.09.23.35.35,0,0,1-.26.1h-1.75A1.36,1.36,0,0,0,352,33a2.17,2.17,0,0,0-.38,1.37V36c0,.16.09.25.27.25h2.84Q355.13,36.26,355.13,36.61Z"/><path class="cls-4" d="M359.68,50.06a6.39,6.39,0,0,1-2.47-2.63,8.26,8.26,0,0,1-.87-3.85,8.43,8.43,0,0,1,.9-3.94,6.61,6.61,0,0,1,2.5-2.69,7.43,7.43,0,0,1,7.32,0,6.54,6.54,0,0,1,2.47,2.69,8.49,8.49,0,0,1,.87,3.9,8.17,8.17,0,0,1-.89,3.85A6.58,6.58,0,0,1,367,50a7,7,0,0,1-3.67,1A7.09,7.09,0,0,1,359.68,50.06Zm6.7-2.54a6.65,6.65,0,0,0,1.06-4,6.71,6.71,0,0,0-1.08-4.05,3.51,3.51,0,0,0-3-1.46,3.55,3.55,0,0,0-3,1.46,6.65,6.65,0,0,0-1.09,4.05,6.53,6.53,0,0,0,1.09,4,3.58,3.58,0,0,0,3,1.45A3.5,3.5,0,0,0,366.38,47.52Z"/><path class="cls-4" d="M373.45,50.29V36.67q0-.41.35-.41h2.1q.33,0,.33.35v1.72c0,.11,0,.17.1.19s.13,0,.21-.11a8.34,8.34,0,0,1,2.09-1.8,4.19,4.19,0,0,1,2.12-.63q1,0,1,.38v2.13q0,.33-.3.27a6,6,0,0,0-1.45-.14,3.61,3.61,0,0,0-1.61.42,4.41,4.41,0,0,0-1.42,1.11,2.16,2.16,0,0,0-.57,1.39v8.71q0,.46-.52.46h-1.94A.39.39,0,0,1,373.45,50.29Z"/><path class="cls-4" d="M388.79,38.33c-.16,0-.25.09-.25.27v8a2.27,2.27,0,0,0,.42,1.58,1.81,1.81,0,0,0,1.35.44h1.75a.29.29,0,0,1,.33.33v1.17a.44.44,0,0,1-.41.46,20,20,0,0,1-2.78.14,3.76,3.76,0,0,1-2.68-.83,3.41,3.41,0,0,1-.87-2.58V38.66c0-.22-.09-.33-.27-.33h-2q-.35,0-.35-.33V36.56q0-.3.33-.3h2.18c.15,0,.22-.08.22-.25l.33-4.29q.05-.38.33-.38h1.88c.24,0,.36.15.36.44V36a.22.22,0,0,0,.25.25h3.28c.22,0,.33.1.33.3V38q0,.33-.38.33Z"/><path class="cls-4" d="M398.68,51a4.76,4.76,0,0,1-3.3-1.08,3.68,3.68,0,0,1-1.2-2.88,4.06,4.06,0,0,1,1.92-3.52A10.57,10.57,0,0,1,401.57,42l1.78-.14c.29,0,.44-.17.44-.41v-.68A2.78,2.78,0,0,0,403,38.7a3.12,3.12,0,0,0-2.24-.78,4.1,4.1,0,0,0-3.58,2,.41.41,0,0,1-.18.21.45.45,0,0,1-.29,0l-1.86-.55a.21.21,0,0,1-.16-.22.83.83,0,0,1,.08-.3,5.23,5.23,0,0,1,2.33-2.28,8.2,8.2,0,0,1,3.78-.81,6.41,6.41,0,0,1,4.29,1.23,4.28,4.28,0,0,1,1.42,3.41v9.64a.53.53,0,0,1-.1.37.43.43,0,0,1-.31.1H404.3a.32.32,0,0,1-.3-.14,1.35,1.35,0,0,1-.14-.41l0-1q-.06-.22-.16-.22a.55.55,0,0,0-.3.16A6.56,6.56,0,0,1,398.68,51Zm4.72-7.48-1.47.11a8.06,8.06,0,0,0-3.59.91A2.39,2.39,0,0,0,397,46.68a2.05,2.05,0,0,0,.75,1.68,3.12,3.12,0,0,0,2,.61,4.52,4.52,0,0,0,2.81-1,2.6,2.6,0,0,0,1.17-1.91V43.93Q403.78,43.49,403.4,43.52Z"/><path class="cls-4" d="M410.77,50.73a.41.41,0,0,1-.49-.49V30.88q0-.41.38-.41h2.18q.33,0,.33.41v6.61c0,.2,0,.3.14.3a.59.59,0,0,0,.3-.14A5.85,5.85,0,0,1,417.79,36a5,5,0,0,1,4.33,2,8.94,8.94,0,0,1,1.49,5.38A8.62,8.62,0,0,1,422,49a5.56,5.56,0,0,1-4.59,2,5.13,5.13,0,0,1-2.66-.66,5.79,5.79,0,0,1-1.73-1.5q-.14-.14-.19-.14s-.07.07-.11.22l-.22,1.34a.72.72,0,0,1-.16.35.53.53,0,0,1-.38.11Zm2.4-4.91a2.9,2.9,0,0,0,.5,1.65A3.51,3.51,0,0,0,415,48.64a3.69,3.69,0,0,0,1.72.42,3.4,3.4,0,0,0,2.84-1.39,6.88,6.88,0,0,0,1.06-4.2,7.17,7.17,0,0,0-1-4.08,3.19,3.19,0,0,0-2.8-1.41,4.24,4.24,0,0,0-2,.5,5.8,5.8,0,0,0-1.65,1.32Z"/><path class="cls-4" d="M429.63,50.21a.53.53,0,0,1-.12.41.69.69,0,0,1-.45.11h-1.86a.58.58,0,0,1-.38-.1.44.44,0,0,1-.11-.34l.05-19.41q0-.41.35-.41h2.16q.35,0,.35.41Z"/><path class="cls-4" d="M436.28,46.73a4.37,4.37,0,0,0,1.6,1.58,4.32,4.32,0,0,0,2.21.59,4.72,4.72,0,0,0,2.24-.52,5.49,5.49,0,0,0,1.8-1.61.24.24,0,0,1,.19-.11.39.39,0,0,1,.22.05l1.39.66a.25.25,0,0,1,.14.22.47.47,0,0,1-.08.22,7.12,7.12,0,0,1-2.62,2.44,7.82,7.82,0,0,1-3.58.75,7.19,7.19,0,0,1-3.66-.93,6.47,6.47,0,0,1-2.51-2.61,7.93,7.93,0,0,1-.9-3.81,8.48,8.48,0,0,1,.93-4,6.68,6.68,0,0,1,2.52-2.69,7.37,7.37,0,0,1,7.11-.05,5.92,5.92,0,0,1,2.36,2.58,9,9,0,0,1,.83,4v.11a.79.79,0,0,1-.07.37c0,.08-.16.12-.34.12H436c-.18,0-.27.15-.27.44A4.3,4.3,0,0,0,436.28,46.73Zm6.87-4.38a.59.59,0,0,0,.37-.08.38.38,0,0,0,.1-.3,4.51,4.51,0,0,0-.45-2,3.58,3.58,0,0,0-3.34-2,3.81,3.81,0,0,0-2.16.61,4.15,4.15,0,0,0-1.43,1.61,4.49,4.49,0,0,0-.48,2.17Z"/><path class="cls-4" d="M49.57,73.23a4.65,4.65,0,0,0-2.16-.48,4.08,4.08,0,0,0-2.24.56,1.72,1.72,0,0,0-.87,1.52,1.36,1.36,0,0,0,.44,1,3.75,3.75,0,0,0,1.58.76l3.36,1A5.54,5.54,0,0,1,52.5,79a3.51,3.51,0,0,1,.92,2.42,3.64,3.64,0,0,1-.78,2.31,5,5,0,0,1-2.17,1.54,9.31,9.31,0,0,1-7-.29,5.19,5.19,0,0,1-2.37-2.17.49.49,0,0,1-.08-.25.27.27,0,0,1,.14-.25l1.34-.71a.64.64,0,0,1,.27-.08.26.26,0,0,1,.22.11,4.81,4.81,0,0,0,4.29,2.18,5,5,0,0,0,2.48-.56,1.69,1.69,0,0,0,1-1.52,1.47,1.47,0,0,0-.56-1.16,4.69,4.69,0,0,0-1.84-.81l-2.78-.71a6,6,0,0,1-2.95-1.45,3.31,3.31,0,0,1-.93-2.4A3.83,3.83,0,0,1,42.4,73a4.75,4.75,0,0,1,2-1.56,8.28,8.28,0,0,1,6.35.15A5.25,5.25,0,0,1,53,73.41a.53.53,0,0,1,.11.27.23.23,0,0,1-.14.19l-1.42.74a.38.38,0,0,1-.16,0,.42.42,0,0,1-.3-.14A4.18,4.18,0,0,0,49.57,73.23Z"/><path class="cls-4" d="M59.37,85.07a.53.53,0,0,1-.12.41.69.69,0,0,1-.45.11H56.94a.58.58,0,0,1-.38-.1.44.44,0,0,1-.11-.34l.05-19.41q0-.41.35-.41H59q.35,0,.35.41Z"/><path class="cls-4" d="M66,81.59a4.37,4.37,0,0,0,1.6,1.58,4.32,4.32,0,0,0,2.21.59,4.72,4.72,0,0,0,2.24-.52,5.49,5.49,0,0,0,1.8-1.61.24.24,0,0,1,.19-.11.39.39,0,0,1,.22.05l1.39.66a.25.25,0,0,1,.14.22.47.47,0,0,1-.08.22,7.12,7.12,0,0,1-2.62,2.44,7.82,7.82,0,0,1-3.58.75,7.19,7.19,0,0,1-3.66-.93,6.47,6.47,0,0,1-2.51-2.61,7.93,7.93,0,0,1-.9-3.81,8.48,8.48,0,0,1,.93-4,6.68,6.68,0,0,1,2.52-2.69A7.37,7.37,0,0,1,73,71.73a5.92,5.92,0,0,1,2.36,2.58,9,9,0,0,1,.83,4v.11a.79.79,0,0,1-.07.37c0,.08-.16.12-.34.12H65.7c-.18,0-.27.15-.27.44A4.3,4.3,0,0,0,66,81.59Zm6.87-4.38a.59.59,0,0,0,.37-.08.38.38,0,0,0,.1-.3,4.51,4.51,0,0,0-.45-2,3.58,3.58,0,0,0-3.34-2,3.81,3.81,0,0,0-2.16.61A4.15,4.15,0,0,0,66,75a4.49,4.49,0,0,0-.48,2.17Z"/><path class="cls-4" d="M81.91,81.59a4.37,4.37,0,0,0,1.6,1.58,4.32,4.32,0,0,0,2.21.59A4.72,4.72,0,0,0,88,83.24a5.49,5.49,0,0,0,1.8-1.61.24.24,0,0,1,.19-.11.39.39,0,0,1,.22.05l1.39.66a.25.25,0,0,1,.14.22.47.47,0,0,1-.08.22A7.12,7.12,0,0,1,89,85.11a7.82,7.82,0,0,1-3.58.75,7.19,7.19,0,0,1-3.66-.93,6.47,6.47,0,0,1-2.51-2.61,7.93,7.93,0,0,1-.9-3.81,8.48,8.48,0,0,1,.93-4,6.68,6.68,0,0,1,2.52-2.69,7.37,7.37,0,0,1,7.11-.05,5.92,5.92,0,0,1,2.36,2.58,9,9,0,0,1,.83,4v.11a.79.79,0,0,1-.07.37c0,.08-.16.12-.34.12H81.59c-.18,0-.27.15-.27.44A4.3,4.3,0,0,0,81.91,81.59Zm6.87-4.38a.59.59,0,0,0,.37-.08.38.38,0,0,0,.1-.3,4.51,4.51,0,0,0-.45-2,3.58,3.58,0,0,0-3.34-2,3.81,3.81,0,0,0-2.16.61A4.15,4.15,0,0,0,81.85,75a4.49,4.49,0,0,0-.48,2.17Z"/><path class="cls-4" d="M97.89,71.55v1.06c0,.15,0,.22.11.22a.68.68,0,0,0,.25-.14A8.11,8.11,0,0,1,100,71.36a5,5,0,0,1,2.44-.52,5.61,5.61,0,0,1,3,.82,5.55,5.55,0,0,1,2.09,2.46,9.52,9.52,0,0,1,.76,4,10.35,10.35,0,0,1-.76,4.19A5.75,5.75,0,0,1,105.37,85a5.86,5.86,0,0,1-3.22.89,5.62,5.62,0,0,1-3.79-1.36A.63.63,0,0,0,98,84.3c-.09,0-.14.12-.14.35v5.05q0,.38-.33.38H95.35q-.35,0-.35-.38V71.61a.49.49,0,0,1,.12-.38.59.59,0,0,1,.4-.11h1.91Q97.89,71.12,97.89,71.55Zm1.6,11.92a3.73,3.73,0,0,0,1.76.42,3.55,3.55,0,0,0,3-1.46,7,7,0,0,0,1.11-4.27,6.23,6.23,0,0,0-1.09-4,3.55,3.55,0,0,0-2.87-1.31,3.78,3.78,0,0,0-1.79.42,3.36,3.36,0,0,0-1.26,1.09,2.37,2.37,0,0,0-.45,1.32v6.58A6.41,6.41,0,0,0,99.49,83.47Z"/><path class="cls-4" d="M114.38,68.22a.64.64,0,0,1-.12.44.55.55,0,0,1-.42.14h-2a.49.49,0,0,1-.38-.12.59.59,0,0,1-.11-.4V65.79c0-.31.14-.46.41-.46H114a.35.35,0,0,1,.27.12.46.46,0,0,1,.11.31Zm-.08,16.84a.53.53,0,0,1-.12.41.64.64,0,0,1-.42.11h-1.86a.58.58,0,0,1-.38-.1.44.44,0,0,1-.11-.34V71.53a.48.48,0,0,1,.08-.31.38.38,0,0,1,.3-.1H114c.22,0,.33.13.33.38Z"/><path class="cls-4" d="M118.15,85.15V71.53q0-.41.35-.41h2.16q.33,0,.33.35V73c0,.11,0,.17.07.19s.11,0,.21-.11a13.75,13.75,0,0,1,2.51-1.68,5.34,5.34,0,0,1,2.38-.53A4.39,4.39,0,0,1,129.35,72a4.06,4.06,0,0,1,1.16,3V85.09q0,.49-.46.49h-2q-.41,0-.41-.44V75.59a2.63,2.63,0,0,0-.64-1.9,2.55,2.55,0,0,0-1.92-.67,4,4,0,0,0-1.92.48A11.17,11.17,0,0,0,121,75.07v10a.45.45,0,0,1-.12.35.59.59,0,0,1-.4.11h-1.94A.39.39,0,0,1,118.15,85.15Z"/><path class="cls-4" d="M148.28,71.25v1.23c0,.36-.16.55-.46.55l-.82,0a3.08,3.08,0,0,0-.66.11,1,1,0,0,0-.48.26.4.4,0,0,0-.07.37l.2.55a3.14,3.14,0,0,1,.18,1.12,3.88,3.88,0,0,1-1.57,3.18,7.2,7.2,0,0,1-4.55,1.24,8.26,8.26,0,0,0-2.62.3q-.82.3-.82.79t.52.59a7,7,0,0,0,1.75.23l3.63.22a6.21,6.21,0,0,1,3.67,1.15,3.34,3.34,0,0,1,1.21,2.7,3.73,3.73,0,0,1-1.9,3.3,10,10,0,0,1-5.36,1.2,12.37,12.37,0,0,1-5.47-1,3,3,0,0,1-1.87-2.78,2.34,2.34,0,0,1,.66-1.64,5.91,5.91,0,0,1,1.91-1.28q.33-.16,0-.3A1.94,1.94,0,0,1,134,81.65a1.68,1.68,0,0,1,.61-1.23,4.8,4.8,0,0,1,1.71-1c.11,0,.16-.08.16-.14s-.05-.14-.16-.19a4.7,4.7,0,0,1-1.83-1.53,3.8,3.8,0,0,1-.6-2.16,3.9,3.9,0,0,1,1.68-3.34,8,8,0,0,1,4.74-1.21,6.42,6.42,0,0,1,4.18,1.23.59.59,0,0,0,.3.14.47.47,0,0,0,.33-.16,4.86,4.86,0,0,1,1.27-.94,3,3,0,0,1,1.38-.4C148.11,70.76,148.28,70.92,148.28,71.25ZM137.77,84.11a2.34,2.34,0,0,0-1.11.25,2.65,2.65,0,0,0-1,.78,1.79,1.79,0,0,0-.4,1.13q0,2.48,5.13,2.48a6.89,6.89,0,0,0,3.25-.61,2,2,0,0,0,1.12-1.84q0-1.77-2.57-1.94Zm4.87-6.59a2.54,2.54,0,0,0,.86-2.06,2.68,2.68,0,0,0-.87-2.13,3.79,3.79,0,0,0-2.57-.76,3.92,3.92,0,0,0-2.59.78,2.62,2.62,0,0,0-.93,2.12,2.48,2.48,0,0,0,.92,2,4.06,4.06,0,0,0,2.61.74A3.93,3.93,0,0,0,142.65,77.52Z"/><path class="cls-4" d="M159.25,84.92a6.39,6.39,0,0,1-2.47-2.63,8.26,8.26,0,0,1-.87-3.85,8.43,8.43,0,0,1,.9-3.94,6.61,6.61,0,0,1,2.5-2.69,7.43,7.43,0,0,1,7.32,0,6.54,6.54,0,0,1,2.47,2.69,8.49,8.49,0,0,1,.87,3.9,8.17,8.17,0,0,1-.89,3.85,6.58,6.58,0,0,1-2.48,2.65,7,7,0,0,1-3.67,1A7.09,7.09,0,0,1,159.25,84.92Zm6.7-2.54a6.65,6.65,0,0,0,1.06-4,6.71,6.71,0,0,0-1.08-4.05,3.51,3.51,0,0,0-3-1.46,3.55,3.55,0,0,0-3,1.46,6.65,6.65,0,0,0-1.09,4.05,6.53,6.53,0,0,0,1.09,4,3.58,3.58,0,0,0,3,1.45A3.5,3.5,0,0,0,165.95,82.38Z"/><path class="cls-4" d="M173,85.15V71.53q0-.41.35-.41h2.16q.33,0,.33.35V73c0,.11,0,.17.07.19s.11,0,.21-.11a13.75,13.75,0,0,1,2.51-1.68,5.34,5.34,0,0,1,2.38-.53A4.39,4.39,0,0,1,184.22,72a4.06,4.06,0,0,1,1.16,3V85.09q0,.49-.46.49h-2q-.41,0-.41-.44V75.59a2.63,2.63,0,0,0-.64-1.9,2.55,2.55,0,0,0-1.92-.67,4,4,0,0,0-1.92.48,11.17,11.17,0,0,0-2.09,1.57v10a.45.45,0,0,1-.12.35.59.59,0,0,1-.4.11h-1.94A.39.39,0,0,1,173,85.15Z"/><path class="cls-4" d="M199.39,73.19c-.16,0-.25.09-.25.27v8a2.27,2.27,0,0,0,.42,1.58,1.81,1.81,0,0,0,1.35.44h1.75a.29.29,0,0,1,.33.33V85a.44.44,0,0,1-.41.46,20,20,0,0,1-2.78.14,3.76,3.76,0,0,1-2.68-.83,3.41,3.41,0,0,1-.87-2.58V73.52c0-.22-.09-.33-.27-.33h-2q-.35,0-.35-.33V71.42q0-.3.33-.3h2.18c.15,0,.22-.08.22-.25l.33-4.29q.05-.38.33-.38h1.88c.24,0,.36.15.36.44v4.23a.22.22,0,0,0,.25.25h3.28c.22,0,.33.1.33.3v1.45q0,.33-.38.33Z"/><path class="cls-4" d="M205.93,85.48a.48.48,0,0,1-.1-.33V65.74q0-.41.33-.41h2.16q.33,0,.33.35v7.21q0,.33.27.08a12.62,12.62,0,0,1,2.54-1.64,5.71,5.71,0,0,1,2.38-.49A4.36,4.36,0,0,1,217.05,72,4.17,4.17,0,0,1,218.17,75v10q0,.49-.46.49h-2q-.41,0-.41-.44V75.59a2.67,2.67,0,0,0-.63-1.9,2.5,2.5,0,0,0-1.91-.67,4,4,0,0,0-1.92.46,11.35,11.35,0,0,0-2.09,1.58v10q0,.46-.52.46h-1.94A.43.43,0,0,1,205.93,85.48Z"/><path class="cls-4" d="M224.65,81.59a4.37,4.37,0,0,0,1.6,1.58,4.32,4.32,0,0,0,2.21.59,4.72,4.72,0,0,0,2.24-.52,5.49,5.49,0,0,0,1.8-1.61.24.24,0,0,1,.19-.11.39.39,0,0,1,.22.05l1.39.66a.25.25,0,0,1,.14.22.47.47,0,0,1-.08.22,7.12,7.12,0,0,1-2.62,2.44,7.82,7.82,0,0,1-3.58.75,7.19,7.19,0,0,1-3.66-.93A6.47,6.47,0,0,1,222,82.32a7.93,7.93,0,0,1-.9-3.81,8.48,8.48,0,0,1,.93-4,6.68,6.68,0,0,1,2.52-2.69,7.37,7.37,0,0,1,7.11-.05A5.92,5.92,0,0,1,234,74.31a9,9,0,0,1,.83,4v.11a.79.79,0,0,1-.07.37c0,.08-.16.12-.34.12h-10.1c-.18,0-.27.15-.27.44A4.3,4.3,0,0,0,224.65,81.59Zm6.87-4.38a.59.59,0,0,0,.37-.08.38.38,0,0,0,.1-.3,4.51,4.51,0,0,0-.45-2,3.58,3.58,0,0,0-3.34-2,3.81,3.81,0,0,0-2.16.61A4.15,4.15,0,0,0,224.6,75a4.49,4.49,0,0,0-.48,2.17Z"/><path class="cls-4" d="M250.79,73.23a4.65,4.65,0,0,0-2.16-.48,4.08,4.08,0,0,0-2.24.56,1.72,1.72,0,0,0-.87,1.52,1.36,1.36,0,0,0,.44,1,3.75,3.75,0,0,0,1.58.76l3.36,1A5.54,5.54,0,0,1,253.73,79a3.51,3.51,0,0,1,.92,2.42,3.64,3.64,0,0,1-.78,2.31,5,5,0,0,1-2.17,1.54,9.31,9.31,0,0,1-7-.29,5.19,5.19,0,0,1-2.37-2.17.49.49,0,0,1-.08-.25.27.27,0,0,1,.14-.25l1.34-.71a.64.64,0,0,1,.27-.08.26.26,0,0,1,.22.11,4.81,4.81,0,0,0,4.29,2.18,5,5,0,0,0,2.48-.56,1.69,1.69,0,0,0,1-1.52,1.47,1.47,0,0,0-.56-1.16,4.69,4.69,0,0,0-1.84-.81l-2.78-.71a6,6,0,0,1-2.95-1.45,3.31,3.31,0,0,1-.93-2.4,3.83,3.83,0,0,1,.72-2.31,4.75,4.75,0,0,1,2-1.56,8.28,8.28,0,0,1,6.35.15,5.25,5.25,0,0,1,2.21,1.86.53.53,0,0,1,.11.27.23.23,0,0,1-.14.19l-1.42.74a.38.38,0,0,1-.16,0,.42.42,0,0,1-.3-.14A4.18,4.18,0,0,0,250.79,73.23Z"/><path class="cls-4" d="M261.82,73.19c-.16,0-.25.09-.25.27v8A2.27,2.27,0,0,0,262,83a1.81,1.81,0,0,0,1.35.44h1.75a.29.29,0,0,1,.33.33V85a.44.44,0,0,1-.41.46,20,20,0,0,1-2.78.14,3.76,3.76,0,0,1-2.68-.83,3.41,3.41,0,0,1-.87-2.58V73.52c0-.22-.09-.33-.27-.33h-2q-.35,0-.35-.33V71.42q0-.3.33-.3h2.18c.15,0,.22-.08.22-.25l.33-4.29q.05-.38.33-.38h1.88c.24,0,.36.15.36.44v4.23a.22.22,0,0,0,.25.25h3.28c.22,0,.33.1.33.3v1.45q0,.33-.38.33Z"/><path class="cls-4" d="M268.24,85.15V71.53q0-.41.35-.41h2.1q.33,0,.33.35v1.72c0,.11,0,.17.1.19s.13,0,.21-.11a8.34,8.34,0,0,1,2.09-1.8,4.19,4.19,0,0,1,2.12-.63q1,0,1,.38v2.13q0,.33-.3.27a6,6,0,0,0-1.45-.14,3.61,3.61,0,0,0-1.61.42A4.41,4.41,0,0,0,271.71,75a2.16,2.16,0,0,0-.57,1.39v8.71q0,.46-.52.46h-1.94A.39.39,0,0,1,268.24,85.15Z"/><path class="cls-4" d="M281.46,81.59a4.37,4.37,0,0,0,1.6,1.58,4.32,4.32,0,0,0,2.21.59,4.72,4.72,0,0,0,2.24-.52,5.49,5.49,0,0,0,1.8-1.61.24.24,0,0,1,.19-.11.39.39,0,0,1,.22.05l1.39.66a.25.25,0,0,1,.14.22.47.47,0,0,1-.08.22,7.12,7.12,0,0,1-2.62,2.44,7.82,7.82,0,0,1-3.58.75,7.19,7.19,0,0,1-3.66-.93,6.47,6.47,0,0,1-2.51-2.61,7.93,7.93,0,0,1-.9-3.81,8.48,8.48,0,0,1,.93-4,6.68,6.68,0,0,1,2.52-2.69,7.37,7.37,0,0,1,7.11-.05,5.92,5.92,0,0,1,2.36,2.58,9,9,0,0,1,.83,4v.11a.79.79,0,0,1-.07.37c0,.08-.16.12-.34.12h-10.1c-.18,0-.27.15-.27.44A4.3,4.3,0,0,0,281.46,81.59Zm6.87-4.38a.59.59,0,0,0,.37-.08.38.38,0,0,0,.1-.3,4.51,4.51,0,0,0-.45-2,3.58,3.58,0,0,0-3.34-2,3.81,3.81,0,0,0-2.16.61A4.15,4.15,0,0,0,281.41,75a4.49,4.49,0,0,0-.48,2.17Z"/><path class="cls-4" d="M297.35,81.59a4.37,4.37,0,0,0,1.6,1.58,4.32,4.32,0,0,0,2.21.59,4.72,4.72,0,0,0,2.24-.52,5.49,5.49,0,0,0,1.8-1.61.24.24,0,0,1,.19-.11.39.39,0,0,1,.22.05l1.39.66a.25.25,0,0,1,.14.22.47.47,0,0,1-.08.22,7.12,7.12,0,0,1-2.62,2.44,7.82,7.82,0,0,1-3.58.75,7.19,7.19,0,0,1-3.66-.93,6.47,6.47,0,0,1-2.51-2.61,7.93,7.93,0,0,1-.9-3.81,8.48,8.48,0,0,1,.93-4,6.68,6.68,0,0,1,2.52-2.69,7.37,7.37,0,0,1,7.11-.05,5.92,5.92,0,0,1,2.36,2.58,9,9,0,0,1,.83,4v.11a.79.79,0,0,1-.07.37c0,.08-.16.12-.34.12H297c-.18,0-.27.15-.27.44A4.3,4.3,0,0,0,297.35,81.59Zm6.87-4.38a.59.59,0,0,0,.37-.08.38.38,0,0,0,.1-.3,4.51,4.51,0,0,0-.45-2,3.58,3.58,0,0,0-3.34-2,3.81,3.81,0,0,0-2.16.61A4.15,4.15,0,0,0,297.3,75a4.49,4.49,0,0,0-.48,2.17Z"/><path class="cls-4" d="M314.65,73.19c-.16,0-.25.09-.25.27v8a2.27,2.27,0,0,0,.42,1.58,1.81,1.81,0,0,0,1.35.44h1.75a.29.29,0,0,1,.33.33V85a.44.44,0,0,1-.41.46,20,20,0,0,1-2.78.14,3.76,3.76,0,0,1-2.68-.83,3.41,3.41,0,0,1-.87-2.58V73.52c0-.22-.09-.33-.27-.33h-2q-.35,0-.35-.33V71.42q0-.3.33-.3h2.18c.15,0,.22-.08.22-.25l.33-4.29q.05-.38.33-.38h1.88c.24,0,.36.15.36.44v4.23a.22.22,0,0,0,.25.25H318c.22,0,.33.1.33.3v1.45q0,.33-.38.33Z"/><line class="cls-5" x1="449.55" y1="669.35" x2="408.62" y2="669.35"/><polygon class="cls-6" points="447.93 681.5 447.93 657.21 460.07 669.35 447.93 681.5"/><line class="cls-5" x1="301.54" y1="669.35" x2="342.47" y2="669.35"/><polygon class="cls-6" points="303.17 657.21 303.17 681.5 291.02 669.35 303.17 657.21"/><line class="cls-7" x1="374.5" y1="159.5" x2="374.5" y2="1233.5"/><line class="cls-8" x1="348.25" y1="572.75" x2="400.75" y2="572.75"/><line class="cls-8" x1="347.72" y1="342.8" x2="400.22" y2="342.8"/><line class="cls-8" x1="347.72" y1="785.9" x2="400.22" y2="785.9"/><line class="cls-8" x1="348.77" y1="1020.05" x2="401.27" y2="1020.05"/><path class="cls-4" d="M367.86,1292.63a.47.47,0,0,1,0,.44l-5.6,19.19a.69.69,0,0,1-.23.35.71.71,0,0,1-.42.11h-2.08c-.38,0-.61-.15-.68-.44l-4.1-14.36c0-.13-.05-.19-.11-.19s-.05.07-.11.22l-4.15,14.31a.57.57,0,0,1-.2.35.76.76,0,0,1-.45.11h-2.13a.66.66,0,0,1-.68-.44l-5.54-19.22a.6.6,0,0,1,0-.19q0-.41.49-.41h2.27a.67.67,0,0,1,.37.08.47.47,0,0,1,.18.27l4.18,14.82q.08.3.16.3t.16-.27l4.2-14.85a.52.52,0,0,1,.57-.35h2a.66.66,0,0,1,.38.08.51.51,0,0,1,.16.27l4.2,14.93c.05.15.11.22.16.22s.13-.07.16-.22l4.18-14.93c.05-.24.24-.35.55-.35h1.72A.46.46,0,0,1,367.86,1292.63Z"/><path class="cls-4" d="M371.71,1312.06a6.39,6.39,0,0,1-2.47-2.63,8.26,8.26,0,0,1-.87-3.85,8.43,8.43,0,0,1,.9-3.94,6.61,6.61,0,0,1,2.5-2.69,7.43,7.43,0,0,1,7.32,0,6.54,6.54,0,0,1,2.47,2.69,8.49,8.49,0,0,1,.87,3.9,8.17,8.17,0,0,1-.89,3.85A6.58,6.58,0,0,1,379,1312a7,7,0,0,1-3.67,1A7.09,7.09,0,0,1,371.71,1312.06Zm6.7-2.54a8.16,8.16,0,0,0,0-8.08,3.51,3.51,0,0,0-3-1.46,3.55,3.55,0,0,0-3,1.46,6.65,6.65,0,0,0-1.09,4.05,6.53,6.53,0,0,0,1.09,4,3.58,3.58,0,0,0,3,1.45A3.5,3.5,0,0,0,378.41,1309.52Z"/><path class="cls-4" d="M385.48,1312.29v-13.62q0-.41.35-.41H388q.33,0,.33.35v1.5c0,.11,0,.17.08.19s.12,0,.19-.11a12.64,12.64,0,0,1,2.44-1.68,5.2,5.2,0,0,1,2.33-.53,4.26,4.26,0,0,1,2.48.68,3.71,3.71,0,0,1,1.39,1.77q.05.08.11.08a.38.38,0,0,0,.25-.14,11.89,11.89,0,0,1,2.46-1.79,5.23,5.23,0,0,1,2.46-.61,4.09,4.09,0,0,1,3.07,1.13,4.25,4.25,0,0,1,1.11,3.1v10a.43.43,0,0,1-.49.49h-2a.38.38,0,0,1-.3-.1.53.53,0,0,1-.08-.34v-9.55a2.74,2.74,0,0,0-.6-1.9,2.3,2.3,0,0,0-1.8-.67,5.35,5.35,0,0,0-3.49,1.72,1.32,1.32,0,0,0-.27.37,1,1,0,0,0-.08.42v9.56a.43.43,0,0,1-.49.49h-2q-.41,0-.41-.44v-9.55a2.79,2.79,0,0,0-.59-1.9,2.29,2.29,0,0,0-1.82-.67,3.66,3.66,0,0,0-1.83.48,11.37,11.37,0,0,0-2,1.57v10a.45.45,0,0,1-.12.35.59.59,0,0,1-.4.11h-1.94A.39.39,0,0,1,385.48,1312.29Z"/><path class="cls-4" d="M413.12,1308.73a4.37,4.37,0,0,0,1.6,1.58,4.32,4.32,0,0,0,2.21.59,4.72,4.72,0,0,0,2.24-.52,5.49,5.49,0,0,0,1.8-1.61.24.24,0,0,1,.19-.11.39.39,0,0,1,.22.05l1.39.66a.25.25,0,0,1,.14.22.47.47,0,0,1-.08.22,7.12,7.12,0,0,1-2.62,2.44,7.82,7.82,0,0,1-3.58.75,7.19,7.19,0,0,1-3.66-.93,6.47,6.47,0,0,1-2.51-2.61,7.93,7.93,0,0,1-.9-3.81,8.48,8.48,0,0,1,.93-4,6.68,6.68,0,0,1,2.52-2.69,7.37,7.37,0,0,1,7.11-.05,5.92,5.92,0,0,1,2.36,2.58,9,9,0,0,1,.83,4v.11a.79.79,0,0,1-.07.37c0,.08-.16.12-.34.12H412.8c-.18,0-.27.15-.27.44A4.3,4.3,0,0,0,413.12,1308.73Zm6.87-4.38a.59.59,0,0,0,.37-.08.38.38,0,0,0,.1-.3,4.51,4.51,0,0,0-.45-2,3.58,3.58,0,0,0-3.34-2,3.81,3.81,0,0,0-2.16.61,4.15,4.15,0,0,0-1.43,1.61,4.49,4.49,0,0,0-.48,2.17Z"/><path class="cls-4" d="M426.21,1312.29v-13.62q0-.41.35-.41h2.16q.33,0,.33.35v1.5c0,.11,0,.17.07.19s.11,0,.21-.11a13.75,13.75,0,0,1,2.51-1.68,5.34,5.34,0,0,1,2.38-.53,4.39,4.39,0,0,1,3.21,1.13,4.06,4.06,0,0,1,1.16,3v10.07q0,.49-.46.49h-2q-.41,0-.41-.44v-9.55a2.63,2.63,0,0,0-.64-1.9,2.55,2.55,0,0,0-1.92-.67,4,4,0,0,0-1.92.48,11.17,11.17,0,0,0-2.09,1.57v10a.45.45,0,0,1-.12.35.59.59,0,0,1-.4.11h-1.94A.39.39,0,0,1,426.21,1312.29Z"/><path class="cls-4" d="M467.25,1298.41a.3.3,0,0,1,0,.31L463,1312.34a.49.49,0,0,1-.18.3.61.61,0,0,1-.34.08h-1.61a.56.56,0,0,1-.63-.41L457.3,1303c-.05-.16-.12-.25-.19-.25s-.11.08-.16.25l-2.87,9.39a.49.49,0,0,1-.18.3.61.61,0,0,1-.34.08h-1.69a.54.54,0,0,1-.6-.41l-4.34-13.57a.3.3,0,0,1,0-.14.36.36,0,0,1,.1-.25.33.33,0,0,1,.26-.11h2.13a.49.49,0,0,1,.49.35l3,9.72c.05.16.12.25.19.25s.14-.09.19-.27l2.95-9.72a.42.42,0,0,1,.46-.33h1.58a.43.43,0,0,1,.46.35l3.06,9.72c.05.16.12.25.19.25s.14-.09.19-.27l2.89-9.72a.51.51,0,0,1,.52-.33H467A.32.32,0,0,1,467.25,1298.41Z"/><path class="cls-4" d="M472.17,1308.73a4.37,4.37,0,0,0,1.6,1.58,4.32,4.32,0,0,0,2.21.59,4.72,4.72,0,0,0,2.24-.52,5.49,5.49,0,0,0,1.8-1.61.24.24,0,0,1,.19-.11.39.39,0,0,1,.22.05l1.39.66a.25.25,0,0,1,.14.22.47.47,0,0,1-.08.22,7.12,7.12,0,0,1-2.62,2.44,7.82,7.82,0,0,1-3.58.75,7.19,7.19,0,0,1-3.66-.93,6.47,6.47,0,0,1-2.51-2.61,7.93,7.93,0,0,1-.9-3.81,8.48,8.48,0,0,1,.93-4,6.68,6.68,0,0,1,2.52-2.69,7.37,7.37,0,0,1,7.11-.05,5.92,5.92,0,0,1,2.36,2.58,9,9,0,0,1,.83,4v.11a.79.79,0,0,1-.07.37c0,.08-.16.12-.34.12h-10.1c-.18,0-.27.15-.27.44A4.3,4.3,0,0,0,472.17,1308.73Zm6.87-4.38a.59.59,0,0,0,.37-.08.38.38,0,0,0,.1-.3,4.51,4.51,0,0,0-.45-2,3.58,3.58,0,0,0-3.34-2,3.81,3.81,0,0,0-2.16.61,4.15,4.15,0,0,0-1.43,1.61,4.49,4.49,0,0,0-.48,2.17Z"/><path class="cls-4" d="M485.26,1312.29v-13.62q0-.41.35-.41h2.1q.33,0,.33.35v1.72c0,.11,0,.17.1.19s.13,0,.21-.11a8.34,8.34,0,0,1,2.09-1.8,4.19,4.19,0,0,1,2.12-.63q1,0,1,.38v2.13q0,.33-.3.27a6,6,0,0,0-1.45-.14,3.61,3.61,0,0,0-1.61.42,4.41,4.41,0,0,0-1.42,1.11,2.16,2.16,0,0,0-.57,1.39v8.71q0,.46-.52.46h-1.94A.39.39,0,0,1,485.26,1312.29Z"/><path class="cls-4" d="M498.48,1308.73a4.37,4.37,0,0,0,1.6,1.58,4.32,4.32,0,0,0,2.21.59,4.72,4.72,0,0,0,2.24-.52,5.49,5.49,0,0,0,1.8-1.61.24.24,0,0,1,.19-.11.39.39,0,0,1,.22.05l1.39.66a.25.25,0,0,1,.14.22.47.47,0,0,1-.08.22,7.12,7.12,0,0,1-2.62,2.44,7.82,7.82,0,0,1-3.58.75,7.19,7.19,0,0,1-3.66-.93,6.47,6.47,0,0,1-2.51-2.61,7.93,7.93,0,0,1-.9-3.81,8.48,8.48,0,0,1,.93-4,6.68,6.68,0,0,1,2.52-2.69,7.37,7.37,0,0,1,7.11-.05,5.92,5.92,0,0,1,2.36,2.58,9,9,0,0,1,.83,4v.11a.79.79,0,0,1-.07.37c0,.08-.16.12-.34.12h-10.1c-.18,0-.27.15-.27.44A4.3,4.3,0,0,0,498.48,1308.73Zm6.87-4.38a.59.59,0,0,0,.37-.08.38.38,0,0,0,.1-.3,4.51,4.51,0,0,0-.45-2,3.58,3.58,0,0,0-3.34-2,3.81,3.81,0,0,0-2.16.61,4.15,4.15,0,0,0-1.43,1.61,4.49,4.49,0,0,0-.48,2.17Z"/><path class="cls-4" d="M521.89,1300.33c-.16,0-.25.09-.25.27v8a2.27,2.27,0,0,0,.42,1.58,1.81,1.81,0,0,0,1.35.44h1.75a.29.29,0,0,1,.33.33v1.17a.44.44,0,0,1-.41.46,20,20,0,0,1-2.78.14,3.76,3.76,0,0,1-2.68-.83,3.41,3.41,0,0,1-.87-2.58v-8.65c0-.22-.09-.33-.27-.33h-2q-.35,0-.35-.33v-1.45q0-.3.33-.3h2.18c.15,0,.22-.08.22-.25l.33-4.29q.05-.38.33-.38h1.88c.24,0,.36.15.36.44V1298a.22.22,0,0,0,.25.25h3.28c.22,0,.33.1.33.3V1300q0,.33-.38.33Z"/><path class="cls-4" d="M528,1317.16q-.37-.07-.37-.34v-1.39q0-.38.76-.38h1.77a1.83,1.83,0,0,0,1.13-.41,3,3,0,0,0,1.13-2.27,1.47,1.47,0,0,0-.11-.6l-5.21-13a.46.46,0,0,1,0-.19q0-.33.38-.33h2.24a.51.51,0,0,1,.3.1.38.38,0,0,1,.16.26l3.77,9.83c.05.16.12.25.19.25s.2-.11.27-.33l3.71-9.77a.46.46,0,0,1,.44-.33h1.61a.32.32,0,0,1,.29.15.3.3,0,0,1,0,.31l-5.87,14.88a7.26,7.26,0,0,1-1.28,2.25,3.76,3.76,0,0,1-1.65,1.08,7.89,7.89,0,0,1-2.36.3A8.27,8.27,0,0,1,528,1317.16Z"/><path class="cls-4" d="M546,1298.69v1.06c0,.15,0,.22.11.22a.68.68,0,0,0,.25-.14,8.11,8.11,0,0,1,1.73-1.34,5,5,0,0,1,2.44-.52,5.61,5.61,0,0,1,3,.82,5.55,5.55,0,0,1,2.09,2.46,9.52,9.52,0,0,1,.76,4,10.35,10.35,0,0,1-.76,4.19,5.75,5.75,0,0,1-2.16,2.62,5.86,5.86,0,0,1-3.22.89,5.62,5.62,0,0,1-3.79-1.36.63.63,0,0,0-.33-.19c-.09,0-.14.12-.14.35v5.05q0,.38-.33.38h-2.21q-.35,0-.35-.38v-18.1a.49.49,0,0,1,.12-.38.59.59,0,0,1,.4-.11h1.91Q546,1298.26,546,1298.69Zm1.6,11.92a3.73,3.73,0,0,0,1.76.42,3.55,3.55,0,0,0,3-1.46,7,7,0,0,0,1.11-4.27,6.23,6.23,0,0,0-1.09-4,3.55,3.55,0,0,0-2.87-1.31,3.78,3.78,0,0,0-1.79.42,3.36,3.36,0,0,0-1.26,1.09,2.37,2.37,0,0,0-.45,1.32v6.58A6.41,6.41,0,0,0,547.57,1310.61Z"/><path class="cls-4" d="M562.46,1295.36a.64.64,0,0,1-.12.44.55.55,0,0,1-.42.14h-2a.49.49,0,0,1-.38-.12.59.59,0,0,1-.11-.4v-2.48c0-.31.14-.46.41-.46h2.27a.35.35,0,0,1,.27.12.46.46,0,0,1,.11.31Zm-.08,16.84a.53.53,0,0,1-.12.41.64.64,0,0,1-.42.11H560a.58.58,0,0,1-.38-.1.44.44,0,0,1-.11-.34v-13.62a.48.48,0,0,1,.08-.31.38.38,0,0,1,.3-.1h2.18c.22,0,.33.13.33.38Z"/><path class="cls-4" d="M576,1299a6.31,6.31,0,0,1,2.21,2.62.55.55,0,0,1,.05.25c0,.11-.08.18-.25.22l-1.94.33H576c-.11,0-.2-.07-.27-.22a7,7,0,0,0-1.47-1.65,2.79,2.79,0,0,0-1.72-.53,3.63,3.63,0,0,0-3,1.45,7.82,7.82,0,0,0,0,8.11,3.76,3.76,0,0,0,3.11,1.45,3.57,3.57,0,0,0,2.12-.63,6.23,6.23,0,0,0,1.65-1.88.37.37,0,0,1,.16-.14.33.33,0,0,1,.22,0l1.45.44q.25.08.11.41a7,7,0,0,1-2.25,2.69,6.14,6.14,0,0,1-3.7,1.08,6.91,6.91,0,0,1-3.6-.94,6.51,6.51,0,0,1-2.47-2.63,8.91,8.91,0,0,1,0-7.78,6.66,6.66,0,0,1,6.06-3.66A6.23,6.23,0,0,1,576,1299Z"/><path class="cls-4" d="M584.57,1313a4.76,4.76,0,0,1-3.3-1.08,3.68,3.68,0,0,1-1.2-2.88,4.06,4.06,0,0,1,1.92-3.52,10.57,10.57,0,0,1,5.47-1.47l1.78-.14c.29,0,.44-.17.44-.41v-.68a2.78,2.78,0,0,0-.82-2.12,3.12,3.12,0,0,0-2.24-.78,4.1,4.1,0,0,0-3.58,2,.41.41,0,0,1-.18.21.45.45,0,0,1-.29,0l-1.86-.55a.21.21,0,0,1-.16-.22.83.83,0,0,1,.08-.3,5.23,5.23,0,0,1,2.33-2.28,8.2,8.2,0,0,1,3.78-.81,6.41,6.41,0,0,1,4.29,1.23,4.28,4.28,0,0,1,1.42,3.41v9.64a.53.53,0,0,1-.1.37.43.43,0,0,1-.31.1H590.2a.32.32,0,0,1-.3-.14,1.35,1.35,0,0,1-.14-.41l0-1q-.06-.22-.16-.22a.55.55,0,0,0-.3.16A6.56,6.56,0,0,1,584.57,1313Zm4.72-7.48-1.47.11a8.06,8.06,0,0,0-3.59.91,2.39,2.39,0,0,0-1.32,2.14,2.05,2.05,0,0,0,.75,1.68,3.12,3.12,0,0,0,2,.61,4.52,4.52,0,0,0,2.81-1,2.6,2.6,0,0,0,1.17-1.91v-2.13Q589.68,1305.49,589.3,1305.52Z"/><path class="cls-4" d="M599.1,1312.21a.53.53,0,0,1-.12.41.69.69,0,0,1-.45.11h-1.86a.58.58,0,0,1-.38-.1.44.44,0,0,1-.11-.34l.05-19.41q0-.41.35-.41h2.16q.35,0,.35.41Z"/><path class="cls-4" d="M605.87,1312.21a.53.53,0,0,1-.12.41.69.69,0,0,1-.45.11h-1.86a.58.58,0,0,1-.38-.1.44.44,0,0,1-.11-.34l.05-19.41q0-.41.35-.41h2.16q.35,0,.35.41Z"/><path class="cls-4" d="M609.4,1317.16q-.37-.07-.37-.34v-1.39q0-.38.76-.38h1.77a1.83,1.83,0,0,0,1.13-.41,3,3,0,0,0,1.13-2.27,1.47,1.47,0,0,0-.11-.6l-5.21-13a.46.46,0,0,1,0-.19q0-.33.38-.33h2.24a.51.51,0,0,1,.3.1.38.38,0,0,1,.16.26l3.77,9.83c.05.16.12.25.19.25s.2-.11.27-.33l3.71-9.77a.46.46,0,0,1,.44-.33h1.61a.32.32,0,0,1,.29.15.3.3,0,0,1,0,.31L616,1313.6a7.26,7.26,0,0,1-1.28,2.25,3.76,3.76,0,0,1-1.65,1.08,7.89,7.89,0,0,1-2.36.3A8.27,8.27,0,0,1,609.4,1317.16Z"/><path class="cls-4" d="M633.74,1313a4.76,4.76,0,0,1-3.3-1.08,3.68,3.68,0,0,1-1.2-2.88,4.06,4.06,0,0,1,1.92-3.52,10.57,10.57,0,0,1,5.47-1.47l1.78-.14c.29,0,.44-.17.44-.41v-.68a2.78,2.78,0,0,0-.82-2.12,3.12,3.12,0,0,0-2.24-.78,4.1,4.1,0,0,0-3.58,2,.41.41,0,0,1-.18.21.45.45,0,0,1-.29,0l-1.86-.55a.21.21,0,0,1-.16-.22.83.83,0,0,1,.08-.3,5.23,5.23,0,0,1,2.33-2.28,8.2,8.2,0,0,1,3.78-.81,6.41,6.41,0,0,1,4.29,1.23,4.28,4.28,0,0,1,1.42,3.41v9.64a.53.53,0,0,1-.1.37.43.43,0,0,1-.31.1h-1.86a.32.32,0,0,1-.3-.14,1.35,1.35,0,0,1-.14-.41l0-1q-.06-.22-.16-.22a.55.55,0,0,0-.3.16A6.56,6.56,0,0,1,633.74,1313Zm4.72-7.48-1.47.11a8.06,8.06,0,0,0-3.59.91,2.39,2.39,0,0,0-1.32,2.14,2.05,2.05,0,0,0,.75,1.68,3.12,3.12,0,0,0,2,.61,4.52,4.52,0,0,0,2.81-1,2.6,2.6,0,0,0,1.17-1.91v-2.13Q638.84,1305.49,638.46,1305.52Z"/><path class="cls-4" d="M664.16,1298.41a.3.3,0,0,1,0,.31l-4.26,13.62a.49.49,0,0,1-.18.3.61.61,0,0,1-.34.08h-1.61a.56.56,0,0,1-.63-.41l-2.95-9.36c-.05-.16-.12-.25-.19-.25s-.11.08-.16.25l-2.87,9.39a.49.49,0,0,1-.18.3.61.61,0,0,1-.34.08h-1.69a.54.54,0,0,1-.6-.41l-4.34-13.57a.3.3,0,0,1,0-.14.36.36,0,0,1,.1-.25.33.33,0,0,1,.26-.11h2.13a.49.49,0,0,1,.49.35l3,9.72c.05.16.12.25.19.25s.14-.09.19-.27l2.95-9.72a.42.42,0,0,1,.46-.33h1.58a.43.43,0,0,1,.46.35l3.06,9.72c.05.16.12.25.19.25s.14-.09.19-.27l2.89-9.72a.51.51,0,0,1,.52-.33h1.39A.32.32,0,0,1,664.16,1298.41Z"/><path class="cls-4" d="M670,1313a4.76,4.76,0,0,1-3.3-1.08,3.68,3.68,0,0,1-1.2-2.88,4.06,4.06,0,0,1,1.92-3.52,10.57,10.57,0,0,1,5.47-1.47l1.78-.14c.29,0,.44-.17.44-.41v-.68a2.78,2.78,0,0,0-.82-2.12,3.12,3.12,0,0,0-2.24-.78,4.1,4.1,0,0,0-3.58,2,.41.41,0,0,1-.18.21.45.45,0,0,1-.29,0l-1.86-.55a.21.21,0,0,1-.16-.22.83.83,0,0,1,.08-.3,5.23,5.23,0,0,1,2.33-2.28,8.2,8.2,0,0,1,3.78-.81,6.41,6.41,0,0,1,4.29,1.23,4.28,4.28,0,0,1,1.42,3.41v9.64a.53.53,0,0,1-.1.37.43.43,0,0,1-.31.1h-1.86a.32.32,0,0,1-.3-.14,1.35,1.35,0,0,1-.14-.41l0-1q-.06-.22-.16-.22a.55.55,0,0,0-.3.16A6.56,6.56,0,0,1,670,1313Zm4.72-7.48-1.47.11a8.06,8.06,0,0,0-3.59.91,2.39,2.39,0,0,0-1.32,2.14,2.05,2.05,0,0,0,.75,1.68,3.12,3.12,0,0,0,2,.61,4.52,4.52,0,0,0,2.81-1,2.6,2.6,0,0,0,1.17-1.91v-2.13Q675.07,1305.49,674.69,1305.52Z"/><path class="cls-4" d="M694.73,1312.45q0,.27-.35.27h-2.43a.56.56,0,0,1-.55-.41l-3.74-6.61c-.05-.11-.11-.16-.16-.16a.3.3,0,0,0-.19.11l-2.59,2.59a.72.72,0,0,0-.22.57v3.39a.53.53,0,0,1-.12.41.64.64,0,0,1-.42.11h-1.88a.53.53,0,0,1-.37-.1.47.47,0,0,1-.1-.34v-19.41q0-.41.35-.41h2.18q.35,0,.35.41v12.2c0,.16,0,.25.11.25s.1,0,.19-.14l6.22-6.58a1,1,0,0,1,.63-.35h2q.38,0,.38.22a.53.53,0,0,1-.19.35l-4.15,4.23a.39.39,0,0,0-.14.27,1.06,1.06,0,0,0,.08.3l5,8.57A.45.45,0,0,1,694.73,1312.45Z"/><path class="cls-4" d="M699.22,1308.73a4.37,4.37,0,0,0,1.6,1.58,4.32,4.32,0,0,0,2.21.59,4.72,4.72,0,0,0,2.24-.52,5.49,5.49,0,0,0,1.8-1.61.24.24,0,0,1,.19-.11.39.39,0,0,1,.22.05l1.39.66a.25.25,0,0,1,.14.22.47.47,0,0,1-.08.22,7.12,7.12,0,0,1-2.62,2.44,7.82,7.82,0,0,1-3.58.75,7.19,7.19,0,0,1-3.66-.93,6.47,6.47,0,0,1-2.51-2.61,7.93,7.93,0,0,1-.9-3.81,8.48,8.48,0,0,1,.93-4,6.68,6.68,0,0,1,2.52-2.69,7.37,7.37,0,0,1,7.11-.05,5.92,5.92,0,0,1,2.36,2.58,9,9,0,0,1,.83,4v.11a.79.79,0,0,1-.07.37c0,.08-.16.12-.34.12H698.9c-.18,0-.27.15-.27.44A4.3,4.3,0,0,0,699.22,1308.73Zm6.87-4.38a.59.59,0,0,0,.37-.08.38.38,0,0,0,.1-.3,4.51,4.51,0,0,0-.45-2,3.58,3.58,0,0,0-3.34-2,3.81,3.81,0,0,0-2.16.61,4.15,4.15,0,0,0-1.43,1.61,4.49,4.49,0,0,0-.48,2.17Z"/><path class="cls-4" d="M64.27,1274.33a.13.13,0,0,1-.11,0,.18.18,0,0,1,0-.12V1262.6a.18.18,0,0,1,0-.13.16.16,0,0,1,.11,0h.42a.28.28,0,0,1,.14,0,.21.21,0,0,1,.07.1l4.28,10.74c0,.11.09.16.13.15s.09-.06.13-.17l4.34-10.74a.18.18,0,0,1,.18-.11h.46a.16.16,0,0,1,.11,0,.19.19,0,0,1,0,.13v11.57a.19.19,0,0,1,0,.12.14.14,0,0,1-.11,0H74a.19.19,0,0,1-.12,0,.13.13,0,0,1,0-.11v-9.9s0,0,0,0l0,0-4,9.87a.26.26,0,0,1-.09.14.29.29,0,0,1-.17,0h-.43q-.24,0-.3-.16l-3.91-9.81,0,0s0,0,0,0v9.82a.14.14,0,0,1,0,.11.19.19,0,0,1-.12,0Z"/><path class="cls-4" d="M83,1273.13s-.06,0-.1.06a4.18,4.18,0,0,1-3,1.31,3,3,0,0,1-2-.62,2.12,2.12,0,0,1-.73-1.7,2.24,2.24,0,0,1,.44-1.39,3,3,0,0,1,1.32-.93,8,8,0,0,1,2.2-.46l1.68-.14q.27,0,.27-.24v-.5a2.11,2.11,0,0,0-.65-1.63,2.46,2.46,0,0,0-1.74-.6,3,3,0,0,0-1.48.37,3.84,3.84,0,0,0-1.21,1.11.24.24,0,0,1-.07.07.08.08,0,0,1-.09,0l-.38-.24a.14.14,0,0,1,0-.06s0-.05,0-.1a4.13,4.13,0,0,1,1.36-1.27,3.74,3.74,0,0,1,1.91-.47,3.11,3.11,0,0,1,2.18.75,2.61,2.61,0,0,1,.82,2v5.72a.16.16,0,0,1,0,.13.19.19,0,0,1-.12,0h-.29a.15.15,0,0,1-.11,0,.15.15,0,0,1,0-.11l0-1C83.08,1273.16,83.06,1273.13,83,1273.13Zm0-3.05a.26.26,0,0,0-.06-.18.19.19,0,0,0-.17,0l-1.43.11a8.41,8.41,0,0,0-2,.37,2.59,2.59,0,0,0-1.17.72,1.62,1.62,0,0,0-.38,1.07,1.57,1.57,0,0,0,.58,1.29,2.41,2.41,0,0,0,1.56.47,3.3,3.3,0,0,0,1.15-.21,3.7,3.7,0,0,0,1-.58,2.75,2.75,0,0,0,.68-.75,1.5,1.5,0,0,0,.23-.76Z"/><path class="cls-4" d="M87.08,1262.47a.19.19,0,0,1,0,.13v11.54a.26.26,0,0,1,0,.15s-.07,0-.16,0h-.27a.22.22,0,0,1-.14,0,.18.18,0,0,1,0-.13V1262.6a.18.18,0,0,1,0-.13.16.16,0,0,1,.11,0H87A.16.16,0,0,1,87.08,1262.47Z"/><path class="cls-4" d="M90.14,1270.49a3.43,3.43,0,0,0,.43,1.68,3.37,3.37,0,0,0,1.17,1.25,3,3,0,0,0,1.62.46,3.44,3.44,0,0,0,1.66-.38,3,3,0,0,0,1.15-1.11.24.24,0,0,1,.09-.08.09.09,0,0,1,.09,0l.37.24a.14.14,0,0,1,0,.07.12.12,0,0,1,0,.09,3.68,3.68,0,0,1-1.4,1.32,4.18,4.18,0,0,1-2,.44,3.8,3.8,0,0,1-2-.54,3.65,3.65,0,0,1-1.38-1.53,5,5,0,0,1-.49-2.27,5.35,5.35,0,0,1,.5-2.39,3.64,3.64,0,0,1,1.38-1.55,3.8,3.8,0,0,1,2-.54,3.66,3.66,0,0,1,1.95.5,3.3,3.3,0,0,1,1.27,1.47,5.38,5.38,0,0,1,.45,2.29.9.9,0,0,1,0,.24c0,.05-.08.08-.18.08H90.23C90.17,1270.26,90.14,1270.34,90.14,1270.49Zm1.47-3.7a3.23,3.23,0,0,0-1.1,1.28,3.54,3.54,0,0,0-.36,1.62h5.93a.35.35,0,0,0,.22,0,.22.22,0,0,0,.06-.18,3.51,3.51,0,0,0-.37-1.61,2.79,2.79,0,0,0-1-1.15,3.26,3.26,0,0,0-3.33.08Z"/><path class="cls-4" d="M64.13,1295.32a.18.18,0,0,1,0-.13.16.16,0,0,1,.11,0h6.49a.1.1,0,0,1,.11.11v.42a.12.12,0,0,1,0,.09.16.16,0,0,1-.1,0H65a.19.19,0,0,0-.11,0s0,.06,0,.12v4.87a.1.1,0,0,0,0,.09.19.19,0,0,0,.11,0H69.8a.1.1,0,0,1,.11.11v.42a.12.12,0,0,1,0,.09.15.15,0,0,1-.1,0H65a.19.19,0,0,0-.11,0s0,.06,0,.12v5.22a.13.13,0,0,1,0,.09.13.13,0,0,1-.09,0h-.48a.15.15,0,0,1-.11,0,.18.18,0,0,1,0-.13Z"/><path class="cls-4" d="M72.09,1303.21a3.43,3.43,0,0,0,.43,1.68,3.37,3.37,0,0,0,1.17,1.25,3,3,0,0,0,1.62.46,3.44,3.44,0,0,0,1.66-.38,3,3,0,0,0,1.15-1.11.24.24,0,0,1,.09-.08.09.09,0,0,1,.09,0l.37.24a.14.14,0,0,1,0,.07.12.12,0,0,1,0,.09,3.68,3.68,0,0,1-1.4,1.32,4.18,4.18,0,0,1-2,.44,3.8,3.8,0,0,1-2-.54,3.65,3.65,0,0,1-1.38-1.53,5,5,0,0,1-.49-2.27,5.35,5.35,0,0,1,.5-2.39,3.64,3.64,0,0,1,1.38-1.55,3.8,3.8,0,0,1,2-.54,3.66,3.66,0,0,1,1.95.5,3.3,3.3,0,0,1,1.27,1.47,5.38,5.38,0,0,1,.45,2.29.9.9,0,0,1,0,.24c0,.05-.08.08-.18.08H72.19C72.12,1303,72.09,1303.06,72.09,1303.21Zm1.47-3.7a3.23,3.23,0,0,0-1.1,1.28,3.54,3.54,0,0,0-.36,1.62H78a.35.35,0,0,0,.22,0,.22.22,0,0,0,.06-.18,3.51,3.51,0,0,0-.37-1.61,2.79,2.79,0,0,0-1-1.15,3.26,3.26,0,0,0-3.33.08Z"/><path class="cls-4" d="M81.37,1307.06a.14.14,0,0,1-.14-.14v-8.21a.15.15,0,0,1,0-.11.13.13,0,0,1,.1,0h.34a.11.11,0,0,1,.13.13v1c0,.05,0,.09,0,.1s.05,0,.1,0a11.7,11.7,0,0,1,1.59-1,3,3,0,0,1,1.36-.3,2.59,2.59,0,0,1,1.51.41,1.88,1.88,0,0,1,.76,1s0,.06.09,0a.51.51,0,0,0,.15-.09,11.7,11.7,0,0,1,1.59-1,3,3,0,0,1,1.36-.3,2.42,2.42,0,0,1,1.8.64,2.34,2.34,0,0,1,.63,1.71v6.14q0,.16-.14.16H92.3a.14.14,0,0,1-.14-.14V1301a2.23,2.23,0,0,0-.44-1.49,1.71,1.71,0,0,0-1.37-.51,2.88,2.88,0,0,0-1.41.35,9,9,0,0,0-1.33.91.9.9,0,0,0-.22.22.51.51,0,0,0-.06.26v6.14q0,.16-.14.16h-.35a.14.14,0,0,1-.14-.14V1301a2.23,2.23,0,0,0-.44-1.49,1.71,1.71,0,0,0-1.37-.51,2.87,2.87,0,0,0-1.37.33,11.76,11.76,0,0,0-1.64,1.15v6.43a.16.16,0,0,1,0,.1.14.14,0,0,1-.11,0Z"/><path class="cls-4" d="M100.79,1305.85s-.06,0-.1.06a4.18,4.18,0,0,1-3,1.31,3,3,0,0,1-2-.62,2.12,2.12,0,0,1-.73-1.7,2.24,2.24,0,0,1,.44-1.39,3,3,0,0,1,1.32-.93,8,8,0,0,1,2.2-.46l1.68-.14q.27,0,.27-.24v-.5a2.11,2.11,0,0,0-.65-1.63,2.46,2.46,0,0,0-1.74-.6,3,3,0,0,0-1.48.37,3.84,3.84,0,0,0-1.21,1.11.24.24,0,0,1-.07.07.08.08,0,0,1-.09,0l-.38-.24a.14.14,0,0,1,0-.06s0-.05,0-.1a4.13,4.13,0,0,1,1.36-1.27,3.74,3.74,0,0,1,1.91-.47,3.11,3.11,0,0,1,2.18.75,2.61,2.61,0,0,1,.82,2v5.72a.16.16,0,0,1,0,.13.19.19,0,0,1-.12,0H101a.15.15,0,0,1-.11,0,.15.15,0,0,1,0-.11l0-1C100.83,1305.88,100.81,1305.85,100.79,1305.85Zm0-3.05a.26.26,0,0,0-.06-.18.19.19,0,0,0-.17,0l-1.43.11a8.41,8.41,0,0,0-2,.37,2.59,2.59,0,0,0-1.17.72,1.62,1.62,0,0,0-.38,1.07,1.57,1.57,0,0,0,.58,1.29,2.42,2.42,0,0,0,1.56.47,3.3,3.3,0,0,0,1.15-.21,3.7,3.7,0,0,0,1-.58,2.75,2.75,0,0,0,.68-.75,1.5,1.5,0,0,0,.23-.76Z"/><path class="cls-4" d="M104.83,1295.2a.19.19,0,0,1,0,.13v11.54a.26.26,0,0,1,0,.15s-.07,0-.16,0h-.27a.22.22,0,0,1-.14,0,.18.18,0,0,1,0-.13v-11.57a.18.18,0,0,1,0-.13.16.16,0,0,1,.11,0h.35A.16.16,0,0,1,104.83,1295.2Z"/><path class="cls-4" d="M107.9,1303.21a3.43,3.43,0,0,0,.43,1.68,3.37,3.37,0,0,0,1.17,1.25,3,3,0,0,0,1.62.46,3.44,3.44,0,0,0,1.66-.38,3,3,0,0,0,1.15-1.11.24.24,0,0,1,.09-.08.09.09,0,0,1,.09,0l.37.24a.14.14,0,0,1,0,.07.12.12,0,0,1,0,.09,3.68,3.68,0,0,1-1.4,1.32,4.18,4.18,0,0,1-2,.44,3.8,3.8,0,0,1-2-.54,3.65,3.65,0,0,1-1.38-1.53,5,5,0,0,1-.49-2.27,5.35,5.35,0,0,1,.5-2.39,3.64,3.64,0,0,1,1.38-1.55,3.8,3.8,0,0,1,2-.54,3.66,3.66,0,0,1,1.95.5,3.3,3.3,0,0,1,1.27,1.47,5.38,5.38,0,0,1,.45,2.29.9.9,0,0,1,0,.24c0,.05-.08.08-.18.08H108C107.93,1303,107.9,1303.06,107.9,1303.21Zm1.47-3.7a3.23,3.23,0,0,0-1.1,1.28,3.54,3.54,0,0,0-.36,1.62h5.93a.35.35,0,0,0,.22,0,.22.22,0,0,0,.06-.18,3.51,3.51,0,0,0-.37-1.61,2.79,2.79,0,0,0-1-1.15,3.26,3.26,0,0,0-3.33.08Z"/><circle class="cls-3" cx="50.9" cy="1300" r="8.73"/><circle class="cls-2" cx="50.9" cy="1267.96" r="8.73"/></svg>