<?xml version="1.0" encoding="utf-8"?>
<!-- Generator: Adobe Illustrator 22.0.1, SVG Export Plug-In . SVG Version: 6.00 Build 0)  -->
<svg version="1.1" id="Layer_1" xmlns="http://www.w3.org/2000/svg" xmlns:xlink="http://www.w3.org/1999/xlink" x="0px" y="0px"
	 viewBox="0 0 100 100" style="enable-background:new 0 0 100 100;" xml:space="preserve">
<style type="text/css">
	.st0{fill:#EA4A9D;}
	.st1{fill:#FFFFFF;}
	.st2{fill:none;stroke:#FFFFFF;}
	.st3{fill:none;}
	.st4{fill:#FFFFFF;stroke:#FFFFFF;}
</style>
<path class="st0" d="M-199,83c16,0,29-13,29-29s-13-29-29-29s-29,13-29,29S-215,83-199,83"/>
<path class="st1" d="M-198.8,70.3c4.2,0,7.7-5.1,7.7-11.4s-3.4-11.4-7.7-11.4c-4.2,0-7.7,5.1-7.7,11.4S-203.1,70.3-198.8,70.3"/>
<ellipse class="st2" cx="-198.8" cy="58.9" rx="7.7" ry="11.4"/>
<path class="st1" d="M-187.4,37.7h-2.3c0,4.4-4.4,8-9.9,8c-5.5,0-9.9-3.6-9.9-8h-2c0,5.7,5.4,10.3,12.1,10.3
	C-192.8,48-187.4,43.4-187.4,37.7"/>
<path class="st2" d="M-187.4,37.7h-2.3c0,4.4-4.4,8-9.9,8c-5.5,0-9.9-3.6-9.9-8h-2c0,5.7,5.4,10.3,12.1,10.3
	C-192.8,48-187.4,43.4-187.4,37.7z"/>
<path class="st1" d="M-180.8,37.7h-1.5c0,2.7-2.8,4.9-6.3,4.9c-3.5,0-6.3-2.2-6.3-4.9h-1.3c0,3.5,3.4,6.3,7.7,6.3
	C-184.2,44-180.8,41.2-180.8,37.7"/>
<path class="st2" d="M-180.8,37.7h-1.5c0,2.7-2.8,4.9-6.3,4.9c-3.5,0-6.3-2.2-6.3-4.9h-1.3c0,3.5,3.4,6.3,7.7,6.3
	C-184.2,44-180.8,41.2-180.8,37.7z"/>
<path class="st1" d="M-201.8,37.7h-1.5c0,2.7-2.8,4.9-6.3,4.9s-6.3-2.2-6.3-4.9h-1.3c0,3.5,3.4,6.3,7.7,6.3
	C-205.3,44-201.8,41.2-201.8,37.7"/>
<path class="st2" d="M-201.8,37.7h-1.5c0,2.7-2.8,4.9-6.3,4.9s-6.3-2.2-6.3-4.9h-1.3c0,3.5,3.4,6.3,7.7,6.3
	C-205.3,44-201.8,41.2-201.8,37.7z"/>
<rect x="-228" y="25" class="st3" width="58" height="58"/>
<rect x="0.2" y="0.3" class="st0" width="100.5" height="101.5"/>
<path class="st4" d="M294.7,38.3h-21.9c0,41.3-41.7,74.8-93.2,74.8c-51.5,0-93.2-33.5-93.2-74.8H67.2c0,53.2,50.9,96.3,113.7,96.3
	C243.8,134.6,294.7,91.4,294.7,38.3z"/>
<path class="st4" d="M159,28.3h-13.9c0,25.4-26.5,45.9-59.1,45.9S26.9,53.6,26.9,28.3H14.8c0,32.7,32.3,59.1,72.1,59.1
	S159,60.9,159,28.3z"/>
<path class="st4" d="M45,34.3h-4.1c0,9-7.8,16.3-17.3,16.3S6.2,43.3,6.2,34.3H2.7c0,11.6,9.5,21,21.1,21S45,45.9,45,34.3z"/>
</svg>
